<svg width="526" height="348" viewBox="0 0 526 348" fill="none" xmlns="http://www.w3.org/2000/svg">
<g clip-path="url(#clip0_8_1137)">
<path d="M94.7743 336.578L92.4294 337.813L92.249 337.89C92.249 337.89 67.4088 298.712 64.6001 289.117C61.7656 279.522 66.5327 269.489 66.5327 267.534C66.5327 265.579 59.5496 250.916 55.5298 240.369C51.5873 230.002 38.9868 195.891 38.5745 194.837C38.5745 194.837 39.3218 239.186 39.1672 254.337C39.0126 269.489 33.3694 337.916 33.3694 337.916L31.643 338.611L31.3595 338.713L31.0245 338.842L30.4061 339.099C30.4061 339.099 16.7233 302.442 15.6926 291.458C14.6619 280.473 19.1198 274.531 19.867 273.656C20.6143 272.756 21.0524 269.643 21.0524 269.643C21.0524 269.643 12.8839 239.957 9.4568 227.635C6.0039 215.288 -0.69575 194.065 0.0515192 180.122C0.798788 166.18 12.3943 154.166 15.3576 152.366C15.3576 152.366 17.5995 153.266 20.0732 154.681C20.2793 154.784 20.4597 154.887 20.6401 155.015C21.1812 155.35 21.7481 155.684 22.2892 156.07C23.758 157.048 25.0979 158.179 25.8967 159.363C28.422 163.067 43.0324 181.177 60.168 170.038C65.7596 180.714 78.2313 222.748 80.7566 244.845C83.2818 266.968 94.7227 336.578 94.7227 336.578H94.7743Z" fill="#C6662C"/>
<path d="M31.3595 338.713L31.0245 338.842L30.4061 339.099C30.4061 339.099 16.7233 302.442 15.6926 291.458C14.6619 280.473 19.1198 274.531 19.867 273.656C20.6143 272.756 21.0524 269.643 21.0524 269.643C21.0524 269.643 12.8839 239.957 9.4568 227.635C6.0039 215.288 -0.69575 194.065 0.0515192 180.122C0.798788 166.18 12.3943 154.166 15.3576 152.366C15.3576 152.366 17.5995 153.266 20.0732 154.681C20.2793 154.784 20.4597 154.887 20.6401 155.015C21.1812 155.35 21.7481 155.684 22.2892 156.07C18.7332 161.652 10.7194 173.28 10.2041 189.203C9.66294 206.541 23.4488 259.791 24.866 271.367C24.866 271.367 20.9493 280.088 23.1396 296.423C24.8402 309.053 29.3496 329.967 31.308 338.739L31.3595 338.713Z" fill="#B85527"/>
<path d="M92.4037 337.813L92.2233 337.89C92.2233 337.89 67.383 298.712 64.5743 289.117C61.7399 279.522 66.5069 269.489 66.5069 267.534C66.5069 265.579 59.5238 250.916 55.504 240.369C51.5616 230.002 38.9611 195.891 38.5488 194.837L71.2998 264.653C71.944 277.335 74.8815 298.712 78.5405 308.076C81.1946 314.893 88.59 330.07 92.3779 337.813H92.4037Z" fill="#B85527"/>
<path d="M81.5554 132.635C77.6902 133.227 74.3661 135.208 71.9955 137.034C69.6506 138.86 68.2591 140.533 68.2591 140.533C68.2591 140.404 68.2076 140.172 68.1303 139.864C67.7438 137.857 66.4554 132.506 66.1719 131.272C66.0431 129.497 65.8112 127.799 65.4762 126.178C65.4762 126.178 67.2799 125.715 69.3414 124.712C71.4028 123.709 73.7477 122.114 74.7269 119.876C76.6595 115.425 75.0103 107.116 73.825 101.457C72.6397 95.8235 71.2997 88.3891 71.1451 86.4598L75.5514 91.2188C75.5514 91.2188 78.5663 101.457 80.0608 109.329C81.5554 117.2 81.5554 132.635 81.5554 132.635Z" fill="#F79738"/>
<path d="M71.9697 137.034C69.6248 138.86 68.2334 140.532 68.2334 140.532C68.2334 140.404 68.1818 140.172 68.1045 139.864C67.718 137.857 66.4296 132.506 66.1462 131.272C66.0173 129.497 65.7854 127.799 65.4504 126.178C65.4504 126.178 67.2542 125.715 69.3156 124.712C70.9132 128.262 71.712 134.487 71.9697 137.034Z" fill="#E18726"/>
<path d="M41.409 89.8811C38.4457 97.2126 29.6331 108.969 29.4785 109.174C27.752 111.438 25.3556 114.525 25.3556 114.525C20.7431 116.223 15.4865 116.712 11.8532 116.815C9.17336 116.892 7.36961 116.763 7.36961 116.763C6.33889 113.059 7.08616 109.483 10.3329 103.258C12.0594 99.9651 14.4042 96.1064 17.316 92.0162C19.8928 88.3891 22.8819 84.5819 26.2575 80.8518C33.3952 72.9802 35.9204 73.4432 42.0017 72.9802C42.0017 72.9802 44.3981 82.5239 41.409 89.9068V89.8811Z" fill="#F79738"/>
<path d="M12.8582 105.907C11.5955 110.023 11.6213 114.242 11.8532 116.789C9.17336 116.866 7.36961 116.737 7.36961 116.737C6.33889 113.033 7.08616 109.457 10.3329 103.232C12.0594 99.9393 14.4042 96.0807 17.316 91.9905C15.7184 96.9038 13.7085 103.155 12.8839 105.907H12.8582Z" fill="#E18726"/>
<path d="M74.7011 119.876C73.3354 123.014 69.3156 124.866 67.048 125.664C66.0946 125.998 65.4504 126.178 65.4504 126.178C65.7854 127.799 65.9916 129.522 66.1462 131.272C67.4346 148.327 60.2196 170.038 60.2196 170.038C43.0581 181.177 28.4735 163.067 25.9483 159.363C25.201 158.231 23.9126 157.15 22.5211 156.199C19.3001 153.961 15.4092 152.391 15.4092 152.391C22.2635 147.041 27.5974 138.294 29.5042 128.802C31.3595 119.516 29.6073 109.715 29.5042 109.226V109.2C29.5042 109.2 29.5042 109.174 29.5558 109.149C30.3546 108.068 38.5745 96.9553 41.4348 89.9325C44.4238 82.5496 42.0274 73.0059 42.0274 73.0059L53.3395 75.9642L60.2711 84.2217L67.5119 79.4627L71.1967 86.5112C71.3513 88.4405 72.6912 95.8749 73.8765 101.509C74.2888 103.464 74.7526 105.753 75.1134 108.068C75.7834 112.441 76.041 117.02 74.7784 119.901L74.7011 119.876Z" fill="#263B7F"/>
<path d="M33.3694 115.863C33.3694 115.863 36.2296 123.426 32.2614 133.818C29.6331 140.738 25.1495 150.462 22.4954 156.199C19.2744 153.961 15.3834 152.391 15.3834 152.391C22.2377 147.041 27.5716 138.294 29.4785 128.802C31.3337 119.516 29.5815 109.715 29.4785 109.226C29.4785 109.226 29.4785 109.2 29.4785 109.174C29.4785 109.174 29.4785 109.149 29.53 109.123C30.1484 108.326 35.1216 101.997 35.8689 100.454C35.7658 101.226 33.524 116.712 41.074 119.747C41.074 119.747 36.1781 119.593 33.3694 115.889V115.863Z" fill="#212A60"/>
<path d="M98.5622 47.4615C93.692 49.8796 89.8784 48.5934 87.8685 47.4358C86.9409 47.0242 86.5028 46.5869 86.2709 46.2782C86.0905 46.0467 86.0648 45.8923 86.0648 45.8923C86.0648 45.8923 86.1678 48.3619 78.1282 46.8956C74.5723 46.2525 72.4335 45.275 71.1709 44.3746C69.5733 43.2685 69.3414 42.3167 69.3414 42.3167C69.3414 42.3167 66.3265 46.8956 64.4455 49.7767C64.4455 49.7767 65.5535 44.992 62.5387 44.3232C59.5238 43.6543 56.947 47.7702 57.8489 52.1177C58.7508 56.4651 61.4049 58.0343 61.4049 58.0343C61.4049 58.0343 61.4049 58.3172 61.4049 58.8317C61.4049 59.9636 61.4822 62.2016 61.9975 64.6969C61.9975 64.7741 62.0233 64.8512 62.0491 64.9284C62.6933 67.861 63.9559 71.1023 66.4296 73.2889C67.1511 73.9062 67.9242 74.4465 68.723 74.9095C68.9291 75.0124 69.1095 75.141 69.3156 75.2439C73.9538 77.6877 79.6486 77.6877 83.9003 76.0928C84.5702 75.8356 85.2402 75.5269 85.8328 75.1925C90.9607 72.2856 95.4185 63.5136 97.1965 57.8285C97.6861 56.2336 98.021 54.7415 98.2272 53.3781C98.5622 50.3169 98.5364 47.4873 98.5364 47.4873L98.5622 47.4615Z" fill="#F1B5AB"/>
<path d="M71.1709 44.4003C65.7081 49.9825 63.2086 58.4201 62.0491 64.9541C62.0491 64.8769 62.0233 64.7998 61.9975 64.7226C61.4822 62.2273 61.4049 60.015 61.4049 58.8574C61.4049 58.3429 61.4049 58.06 61.4049 58.06C61.4049 58.06 58.725 56.4908 57.8489 52.1434C56.947 47.7959 59.5238 43.68 62.5387 44.3489C65.5535 45.0177 64.4455 49.8024 64.4455 49.8024C66.3266 46.9213 69.3414 42.3423 69.3414 42.3423C69.3414 42.3423 69.5733 43.2942 71.1709 44.4003Z" fill="#F5948D"/>
<path d="M69.3156 75.2442C68.826 75.9387 68.0272 77.0706 67.0738 78.3054C64.9351 81.1351 62.1006 84.505 60.8638 84.4535C58.7508 84.3249 56.7409 77.4307 56.947 75.8873C57.0501 75.167 58.1581 72.9032 59.2919 70.6138C60.6576 67.887 62.0748 65.083 61.9975 64.7486C62.6417 67.7584 63.8786 71.1025 66.4296 73.3406C67.3057 74.1123 68.2849 74.7554 69.3156 75.2699V75.2442Z" fill="#F1B5AB"/>
<path d="M69.3156 75.2439C68.826 75.9384 68.0272 77.0703 67.0738 78.3051C63.4663 77.0703 60.3999 72.6714 59.2919 70.5878C60.6576 67.861 62.0748 65.057 61.9975 64.7226C62.6417 67.7324 63.8786 71.0765 66.4296 73.3146C67.3057 74.0863 68.2849 74.7294 69.3156 75.2439Z" fill="#F5948D"/>
<path d="M27.4943 121.599C26.3605 124.738 23.9126 131.169 21.3873 136.056C21.0008 136.802 20.6143 137.497 20.2278 138.166C8.14265 121.574 7.34384 116.737 7.34384 116.737C8.78684 116.84 10.2298 116.84 11.5955 116.789C19.3259 116.532 25.3298 114.499 25.3298 114.499C25.3298 114.499 25.0206 115.4 25.7679 117.175C26.309 118.487 27.082 120.545 27.4686 121.599H27.4943Z" fill="#F1B5AB"/>
<path d="M21.3873 136.056C21.0008 136.802 20.6143 137.497 20.2278 138.166C8.14265 121.574 7.34384 116.737 7.34384 116.737C8.78684 116.84 10.2298 116.84 11.5955 116.789C13.0901 122.345 18.5271 131.478 21.3873 136.056Z" fill="#F5948D"/>
<path d="M81.5554 151.928C78.2055 152.186 74.9073 153.42 72.6397 154.449C70.9132 155.273 69.8052 155.941 69.8052 155.941C69.2383 147.144 68.2849 140.893 68.1561 139.992C68.2076 140.25 68.2591 140.43 68.2591 140.533C68.2591 140.533 69.7279 138.758 72.2016 136.88C74.5465 135.079 77.7933 133.201 81.5554 132.635C83.0241 143.311 81.5554 151.928 81.5554 151.928Z" fill="#F1B5AB"/>
<path d="M72.6397 154.449C70.9132 155.273 69.8052 155.941 69.8052 155.941C69.2383 147.144 68.2849 140.893 68.1561 139.992C68.2076 140.25 68.2591 140.43 68.2591 140.533C68.2591 140.533 69.7279 138.758 72.2016 136.88C72.4593 140.893 72.9489 148.481 72.6654 154.449H72.6397Z" fill="#F5948D"/>
<path d="M149.48 344.424H198.928C198.928 344.424 200.629 343.55 203.979 344.064C207.328 344.579 211.477 345.067 211.554 343.91C211.632 342.726 208.668 341.929 203.515 341.595C198.387 341.26 198.542 340.36 196.3 340.231C194.058 340.077 191.095 339.794 189.987 338.971C188.879 338.148 187.461 337.556 184.55 338.122C181.664 338.688 179.576 340.617 174.964 340.103C170.352 339.588 167.594 338.25 162.389 340.18C157.184 342.109 154.968 341.595 152.726 340.926C150.484 340.257 145.228 343.781 149.454 344.476L149.48 344.424Z" fill="#A6DDEB"/>
<path d="M155.741 329.298C152.34 328.141 147.779 329.736 145.563 332.642C143.321 335.524 143.115 340.72 145.047 342.212C146.98 343.704 148.913 343.781 150.768 343.318C152.623 342.881 153.216 342.649 154.556 343.009C155.896 343.37 156.256 343.164 157.313 342.778C158.344 342.418 158.936 343.292 160.792 343.138C162.647 342.984 165.249 341.8 165.481 342.161C165.713 342.521 166.589 343.267 167.569 342.752C168.522 342.238 169.578 342.083 170.609 342.675C171.64 343.267 175.222 342.675 176.562 341.492C177.902 340.308 176.716 338.662 176.562 338.147C176.407 337.633 176.201 336.707 174.32 335.318C172.464 333.929 168.625 331.871 165.713 330.97C162.827 330.07 158.318 330.121 155.715 329.247L155.741 329.298Z" fill="#D64E27"/>
<path d="M57.4109 74.5493L53.288 75.9127L54.0353 89.8554L60.2196 84.1446C60.2196 84.1446 56.7924 79.8486 57.4109 74.5236V74.5493Z" fill="#F79738"/>
<path d="M62.0233 83.9131L66.5327 90.6014L68.9033 84.4018L67.0996 78.2794C67.0996 78.2794 63.1571 83.4243 62.0233 83.9131Z" fill="#F79738"/>
<path d="M30.3803 339.099C31.1791 338.791 35.5855 335.678 38.7034 336.578C41.8213 337.479 44.3465 341.595 44.3465 341.595H30.3803V339.099Z" fill="#1E2D58"/>
<path d="M92.2491 337.916C92.2491 337.916 94.9289 335.241 99.2322 335.241C103.535 335.241 105.777 340.874 105.777 340.874H93.4344L92.2491 337.916Z" fill="#1E2D58"/>
<path d="M31.4368 129.497C31.2049 130.371 30.638 131.941 29.195 134.564C28.1901 136.365 27.0048 138.269 25.9225 139.889C24.866 141.484 23.9126 142.822 23.3715 143.568C23.0623 144.005 22.8819 144.263 22.8819 144.263C21.0266 143.002 19.5578 139.298 19.5578 139.298C19.7897 138.938 20.0217 138.552 20.2536 138.166C20.6659 137.471 21.0781 136.725 21.4647 135.902C23.9641 131.04 26.3606 124.712 27.4943 121.599C27.9324 120.416 28.1643 119.696 28.1643 119.696L31.5914 128.596C31.5914 128.596 31.5914 128.828 31.4368 129.471V129.497Z" fill="#A6DDEB"/>
<path d="M80.2155 170.553C78.8755 177.601 76.5564 188.354 76.5564 188.354C76.5564 188.354 78.2056 193.036 77.6644 197.846C77.1491 202.683 74.7011 203.557 73.8766 203.043C73.0778 202.528 74.0312 199.57 73.8766 196.74C73.7219 193.911 72.4078 191.312 72.4078 191.312C72.4078 191.312 70.3206 195.094 69.0837 194.425C69.058 194.425 69.0064 194.374 68.9807 194.348C68.0015 193.525 70.166 189.846 70.166 189.846C70.166 189.846 70.0887 184.727 70.166 180.354C70.2433 175.981 69.4702 162.63 69.5218 162.553C70.2433 162.218 71.0936 161.601 72.0213 160.906C73.825 159.594 75.8865 157.974 77.6644 157.356C79.7001 156.636 81.2204 156.276 82.1738 156.121C82.0707 157.202 81.4008 164.096 80.1897 170.579L80.2155 170.553Z" fill="#A6DDEB"/>
<path d="M83.7714 151.028L83.3334 155.916C83.3334 155.916 82.9211 155.941 82.1996 156.07C81.2462 156.25 79.7259 156.61 77.6902 157.305C75.9122 157.922 73.8508 159.569 72.047 160.855C71.1194 161.549 70.2433 162.141 69.5475 162.475C68.8776 162.81 68.3364 162.887 68.0272 162.553C66.7646 161.215 66.6615 157.999 66.9192 157.794C68.8003 156.327 70.7329 155.17 72.5882 154.269C78.6436 151.285 83.7972 150.977 83.7972 150.977L83.7714 151.028Z" fill="#A6DDEB"/>
<path d="M98.5628 47.4615C98.5628 47.4615 98.5886 50.317 98.253 53.3782C98.7951 49.9054 98.5628 47.4615 98.5628 47.4615Z" fill="#F1B5AB"/>
<path d="M158.653 331.665C158.06 331.665 157.493 331.382 157.158 330.867L45.8926 161.884C45.3515 161.061 45.5834 159.954 46.408 159.414C47.2326 158.874 48.3406 159.106 48.8817 159.929L160.147 328.912C160.689 329.736 160.457 330.842 159.632 331.382C159.323 331.588 158.988 331.665 158.653 331.665Z" fill="#A6D6B4"/>
<path d="M49.5774 163.427C48.4694 164.25 48.624 161.498 48.624 161.498C48.624 161.498 48.3921 164.611 47.4129 164.765C46.4337 164.919 46.1761 161.421 45.8153 161.266C45.4546 161.112 47.0006 164.816 45.8153 164.765C45.0938 164.739 44.5785 163.787 44.2692 163.041C44.5012 163.839 44.5785 164.919 43.4962 164.739C43.187 164.688 42.7489 164.533 42.182 164.225C38.6261 162.295 37.1315 154.732 37.1315 154.732C30.638 151.568 24.5826 145.214 23.423 143.568C23.2684 143.362 23.2169 143.234 23.2169 143.182L25.4071 139.555L31.4626 129.471L43.5735 148.996C43.5735 148.996 47.5933 152.186 49.6032 155.015C51.6131 157.819 50.7112 162.578 49.6032 163.402L49.5774 163.427Z" fill="#A6DDEB"/>
<path d="M48.4952 121.728H48.4694C42.079 121.162 37.4407 119.053 34.6836 115.425C31.1018 110.718 32.0295 105.264 32.081 105.033C32.081 104.981 32.1326 104.904 32.1583 104.853C42.0017 94.4086 36.7192 83.2184 36.6677 83.1155C36.5904 82.9612 36.6677 82.7554 36.8223 82.6782C37.0027 82.6011 37.1831 82.6782 37.2604 82.8326C37.3119 82.9355 42.7489 94.5115 32.6994 105.239C32.5964 105.985 32.0553 110.872 35.1989 115.014C37.8273 118.461 42.3109 120.493 48.4952 121.033C48.6755 121.033 48.8044 121.213 48.8044 121.393C48.8044 121.574 48.6498 121.702 48.4694 121.702L48.4952 121.728Z" fill="#A6DDEB"/>
<path d="M73.825 159.929C73.825 159.929 73.6446 159.903 73.5673 159.826C73.4385 159.697 73.4642 159.491 73.5931 159.363C73.7477 159.234 77.2521 156.224 83.2818 155.607C83.4622 155.607 83.6168 155.71 83.6426 155.916C83.6426 156.096 83.5395 156.25 83.3333 156.276C77.5356 156.842 74.0569 159.826 74.0311 159.852C73.9538 159.903 73.9023 159.929 73.7992 159.929H73.825Z" fill="#263B7F"/>
<path d="M31.643 338.585L31.0245 338.842C28.9889 330.739 21.7996 301.825 20.8462 293.747C20.1763 288.088 21.1039 280.834 21.9542 274.428C22.4954 270.106 22.985 266.376 22.8561 264.01C22.5984 259.611 19.3259 247.135 16.4141 236.124C15.435 232.42 14.5073 228.87 13.7343 225.783C8.78685 206.156 7.24078 191.595 9.04453 181.229C11.2863 168.444 18.3983 157.253 20.099 154.707C20.3051 154.81 20.4855 154.912 20.6658 155.041C19.0425 157.485 11.9048 168.624 9.68873 181.357C7.91074 191.621 9.43105 206.104 14.3527 225.629C15.1515 228.716 16.0792 232.266 17.0583 235.97C19.9701 247.006 23.2684 259.534 23.5261 264.01C23.6549 266.454 23.1653 270.209 22.6242 274.557C21.7996 280.911 20.872 288.139 21.5162 293.696C22.4696 301.722 29.6073 330.404 31.6687 338.611L31.643 338.585Z" fill="#F79738"/>
<path d="M61.0957 54.1756C61.0957 54.1756 61.0441 54.1756 61.0184 54.1756C60.9153 54.1242 60.838 53.9955 60.8895 53.8926C62.1006 50.5227 60.8895 46.4068 60.8895 46.3554C60.8637 46.2268 60.9153 46.1239 61.0441 46.0724C61.173 46.0467 61.276 46.0981 61.3276 46.2268C61.3791 46.4068 62.5902 50.5227 61.3276 54.047C61.3018 54.1499 61.2245 54.2013 61.1214 54.2013L61.0957 54.1756Z" fill="#983222"/>
<path d="M61.276 52.0662C61.0441 52.0662 60.7349 52.0147 60.4515 51.809C60.1165 51.526 59.9619 51.0629 59.9877 50.4198C60.0134 49.751 60.2196 49.3137 60.5803 49.0564C61.0957 48.722 61.6883 48.9278 61.7141 48.9278C61.8172 48.9793 61.8945 49.0822 61.8429 49.2108C61.7914 49.3394 61.6883 49.3909 61.5595 49.3394C61.5595 49.3394 61.1214 49.1851 60.8122 49.4166C60.5803 49.5709 60.4257 49.9311 60.3999 50.4198C60.3999 50.9086 60.4772 51.2687 60.7092 51.4488C61.0184 51.7061 61.4822 51.5774 61.4822 51.5774C61.611 51.5517 61.7141 51.6289 61.7656 51.7318C61.7914 51.8604 61.7141 51.9633 61.611 52.0147C61.611 52.0147 61.4564 52.0662 61.2503 52.0662H61.276Z" fill="#983222"/>
<path d="M79.8289 71.8997C75.3195 71.8997 72.4593 67.8353 72.3305 67.6295C72.2274 67.4751 72.2532 67.2693 72.4078 67.1664C72.5624 67.0635 72.7685 67.0892 72.8716 67.2436C72.8974 67.295 75.938 71.591 80.4473 71.1794C80.6277 71.1794 80.7823 71.308 80.8081 71.4881C80.8081 71.6682 80.705 71.8225 80.4989 71.8483C80.267 71.8483 80.0351 71.874 79.8031 71.874L79.8289 71.8997Z" fill="#CB3D27"/>
<path d="M85.1887 69.353C84.4414 69.353 82.9468 68.6842 80.6793 67.3465C80.5762 67.2951 80.5504 67.1407 80.602 67.0378C80.6535 66.9349 80.8081 66.9092 80.9112 66.9607C83.5137 68.5041 85.0083 69.0444 85.3175 68.89C85.6525 68.5041 86.5801 63.1792 87.2759 58.3687C87.2759 58.2401 87.4047 58.1629 87.5335 58.1886C87.6624 58.1886 87.7397 58.3173 87.7139 58.4459C87.147 62.356 86.1163 68.9929 85.5236 69.3016C85.4463 69.353 85.3433 69.353 85.2144 69.353H85.1887Z" fill="#983222"/>
<path d="M72.6139 51.3459C72.6139 51.3459 74.9846 48.5677 78.3344 49.0565C81.6842 49.5709 82.5088 53.0437 82.5088 53.0437C82.5088 53.0437 81.6585 51.5003 77.5614 51.0115C73.49 50.5485 72.6139 51.3459 72.6139 51.3459Z" fill="#601818"/>
<path d="M88.3066 56.3365C88.3066 56.3365 91.0637 54.2528 93.2025 55.076C95.367 55.8991 95.2124 59.3719 95.2124 59.3719C95.2124 59.3719 94.5424 58.2143 92.1718 57.1339C89.8011 56.0535 88.3066 56.3365 88.3066 56.3365Z" fill="#601818"/>
<path d="M79.6228 58.4716C78.6951 59.8093 77.5356 60.6324 77.0202 60.2723C76.5049 59.9122 76.8399 58.5488 77.7675 57.1854C78.6951 55.8477 79.8547 55.0245 80.3701 55.3847C80.8854 55.7448 80.5504 57.1082 79.6486 58.4716H79.6228Z" fill="#1E1724"/>
<path d="M91.2698 63.3592C90.3937 64.6197 89.2857 65.3657 88.7704 65.0056C88.255 64.6454 88.5385 63.3335 89.4146 62.073C90.2907 60.8125 91.3987 60.0665 91.914 60.4266C92.4294 60.7868 92.146 62.0987 91.2698 63.3592Z" fill="#1E1724"/>
<path d="M27.4686 137.806C27.4686 137.806 27.3397 137.806 27.2624 137.729C27.1078 137.626 27.082 137.42 27.1851 137.266C31.3337 131.735 31.2307 128.648 31.2307 128.622C31.2307 128.442 31.3595 128.288 31.5399 128.262C31.7203 128.262 31.8749 128.391 31.9006 128.571C31.9006 128.699 32.0553 131.915 27.7262 137.651C27.6489 137.754 27.5716 137.78 27.4428 137.78L27.4686 137.806Z" fill="#263B7F"/>
<path d="M103.69 54.6901C101.809 61.3784 96.5523 59.7578 96.5523 59.7578C97.2223 57.8027 97.9953 55.7962 98.253 53.3524C98.7941 49.8796 98.5622 47.4615 98.5622 47.4615C93.6921 49.8796 89.8784 48.5934 87.8685 47.4358C86.8378 46.8441 86.2709 46.2782 86.2709 46.2782C86.0905 46.0467 86.0648 45.8923 86.0648 45.8923C86.0648 45.8923 86.1678 48.3619 78.1283 46.8956C70.1144 45.455 69.3414 42.3166 69.3414 42.3166C69.3414 42.3166 66.3266 46.8956 64.4455 49.7767C64.4455 49.7767 65.0124 47.3072 64.2394 45.6865C63.9301 45.0177 63.4148 44.5032 62.5387 44.3231C59.5238 43.6543 56.947 47.7702 57.8489 52.1177C58.2097 53.9184 58.9054 55.256 59.5754 56.1564C60.503 57.4683 61.4307 58.0085 61.4307 58.0085C61.4307 58.0085 61.4307 58.2915 61.4307 58.806C61.1472 60.5038 62.3325 64.0281 62.0233 66.1632C61.276 71.2823 59.2662 75.424 56.9728 77.7135C55.6587 79.0254 53.1076 79.7971 50.402 80.0544C45.738 80.4917 40.5329 79.3341 40.0433 76.3758C39.2703 71.6939 41.8213 64.131 52.0769 50.5485C62.3325 36.966 72.382 29.3773 81.5554 26.599C90.7287 23.8208 92.6613 28.6055 92.6613 28.6055C95.3412 26.4961 98.8972 29.9432 100.701 33.6218C101.448 35.1653 102.427 37.9178 103.175 41.0819C104.205 45.5065 104.798 50.7543 103.716 54.6644L103.69 54.6901Z" fill="#732725"/>
<path d="M61.9975 66.2146C61.2503 71.3338 59.2404 75.4754 56.947 77.7649C55.6329 79.0768 53.0818 79.8486 50.3762 80.1058C53.0818 78.125 57.0501 74.112 57.6943 67.4751C58.0293 63.7451 58.6219 59.8607 59.6011 56.2078C60.5288 57.5198 61.4564 58.06 61.4564 58.06C61.4564 58.06 61.4564 58.3429 61.4564 58.8574C61.173 60.5552 62.3583 64.0795 62.0491 66.2146H61.9975Z" fill="#591918"/>
<path d="M103.69 54.6901C101.809 61.3784 96.5523 59.7578 96.5523 59.7578C97.2223 57.8027 97.9953 55.7962 98.253 53.3524C98.7941 49.8796 98.5622 47.4615 98.5622 47.4615C93.6921 49.8796 89.8784 48.5934 87.8685 47.4358C86.8378 46.8441 86.2709 46.2782 86.2709 46.2782C86.0905 46.0467 86.0648 45.8923 86.0648 45.8923C86.0648 45.8923 86.1678 48.3619 78.1282 46.8956C70.1144 45.455 69.3414 42.3166 69.3414 42.3166C69.3414 42.3166 66.3265 46.8956 64.4455 49.7767C64.4455 49.7767 65.0124 47.3072 64.2393 45.6865C65.5277 43.9373 67.0738 42.471 68.9033 41.4163C68.9033 41.4163 70.604 44.1945 77.5614 44.3231C84.5187 44.426 86.2709 43.0884 86.2709 43.0884C86.2709 43.0884 88.3066 48.8764 95.2124 46.8184C98.9487 45.7122 101.525 43.1655 103.149 41.0818C104.18 45.5064 104.772 50.7542 103.69 54.6643V54.6901Z" fill="#591918"/>
<path d="M81.5556 94.8974C77.3812 97.0582 72.2533 90.3956 70.0115 87.5659C69.96 87.4887 69.8827 87.3858 69.8054 87.3087C67.6924 84.6333 66.7906 79.2826 67.2544 78.0993L68.7489 74.9095C68.9551 75.0124 69.1354 75.141 69.3416 75.2439C73.9798 77.6877 79.6745 77.6877 83.9262 76.0928C83.9262 76.0928 83.9777 76.6073 84.055 77.4562C84.4158 81.4692 85.0858 93.0452 81.5298 94.8974H81.5556Z" fill="#732725"/>
<path d="M84.0548 77.4562C80.1381 78.1508 71.0678 80.4917 69.9856 87.5659C69.934 87.4887 69.8567 87.3858 69.7794 87.3087C67.6665 84.6333 66.7646 79.2826 67.2284 78.0993L68.7229 74.9095C68.9291 75.0124 69.1095 75.141 69.3156 75.2439C73.9538 77.6877 79.6485 77.6877 83.9002 76.0928C83.9002 76.0928 83.9518 76.6073 84.0291 77.4562H84.0548Z" fill="#591918"/>
<path d="M74.7011 119.876C73.3354 123.014 69.3156 124.866 67.048 125.664C74.933 121.342 74.8557 107.682 74.8557 107.682C74.8557 107.682 74.933 107.785 75.0361 108.017C75.706 112.39 75.9637 116.969 74.7011 119.85V119.876Z" fill="#212A60"/>
<path d="M65.4504 126.513C65.2958 126.513 65.167 126.41 65.1155 126.255C65.0897 126.075 65.1928 125.895 65.3731 125.87C65.4504 125.87 72.0213 124.48 74.3919 119.747C76.7625 114.988 73.9023 103.566 73.8508 103.464C73.7992 103.284 73.9281 103.103 74.1085 103.052C74.2888 103.001 74.4692 103.129 74.5207 103.284C74.6496 103.772 77.484 115.04 75.0103 120.03C72.5108 125.046 65.8112 126.461 65.5277 126.513C65.5277 126.513 65.4762 126.513 65.4504 126.513Z" fill="#A6DDEB"/>
<path d="M38.5745 155.195C38.5745 155.195 40.4298 161.421 43.4447 164.765C43.1355 164.713 42.6974 164.559 42.1305 164.25C38.5745 162.321 37.08 154.758 37.08 154.758C30.5865 151.594 24.531 145.24 23.3715 143.594C23.0623 144.031 22.8819 144.288 22.8819 144.288C21.0266 143.028 19.5578 139.323 19.5578 139.323C19.7897 138.963 20.0217 138.577 20.2536 138.192C20.6658 137.497 21.0781 136.751 21.4647 135.928C22.4181 137.111 23.758 138.577 25.3814 139.581C25.5617 139.684 25.7421 139.812 25.9483 139.889C26.4379 140.147 26.9532 140.378 27.4943 140.533C27.4943 140.533 34.5805 152.957 38.6003 155.17L38.5745 155.195Z" fill="#66C8CE"/>
<path d="M72.0213 160.906C71.9955 161.318 71.9697 161.575 71.9697 161.575C71.9697 161.575 72.047 188.972 70.5525 191.698C70.166 192.444 69.5991 193.37 68.9807 194.348C68.0015 193.525 70.166 189.846 70.166 189.846C70.166 189.846 70.0887 184.727 70.166 180.354C70.2433 175.981 69.4702 162.63 69.5218 162.553C68.8518 162.861 68.3107 162.964 68.0015 162.63C66.7388 161.292 66.6358 158.077 66.8935 157.871C68.7745 156.404 70.7071 155.247 72.5624 154.346C72.382 156.585 72.1501 159.594 72.047 160.906H72.0213Z" fill="#66C8CE"/>
<path d="M151.335 331.665C148.603 334.443 150.227 337.093 155.638 337.144C161.075 337.221 168.883 337.453 168.419 334.315C167.955 331.202 164.09 329.71 158.627 329.787C153.164 329.864 152.056 330.893 151.309 331.639L151.335 331.665Z" fill="#212A60"/>
<path d="M196.996 333.569C196.506 333.569 196.094 333.157 196.094 332.668V325.44C196.094 324.951 196.506 324.539 196.996 324.539C197.485 324.539 197.897 324.951 197.897 325.44V332.668C197.897 333.157 197.511 333.569 196.996 333.569Z" fill="#49405E"/>
<path d="M271.362 334.572C270.872 334.572 270.46 334.186 270.46 333.671V325.465C270.46 324.977 270.872 324.565 271.362 324.565C271.851 324.565 272.264 324.977 272.264 325.465V333.671C272.264 334.16 271.851 334.572 271.362 334.572Z" fill="#49405E"/>
<path d="M235.467 270.595V320.706H198.877L187.255 274.557L187.049 273.656L186.276 270.595H235.467Z" fill="#F79738"/>
<path d="M286.539 270.595L285.611 273.656L285.354 274.557L271.362 320.706H235.467V270.595H286.539Z" fill="#D64E27"/>
<path d="M274.273 319.6H193.749V326.289H274.273V319.6Z" fill="#A6D6B4"/>
<path d="M200.217 335.549C200.217 338.096 198.774 340.154 196.996 340.154C195.218 340.154 193.775 338.096 193.775 335.549C193.775 333.003 195.218 330.945 196.996 330.945C198.774 330.945 200.217 333.003 200.217 335.549Z" fill="#1E2D58"/>
<path d="M274.943 335.678C274.943 338.225 273.5 340.283 271.697 340.283C269.893 340.283 268.476 338.225 268.476 335.678C268.476 333.131 269.919 331.073 271.697 331.073C273.475 331.073 274.943 333.131 274.943 335.678Z" fill="#1E2D58"/>
<path d="M190.347 301.259C190.347 301.259 190.141 301.233 190.064 301.156C189.884 301.001 189.832 300.718 189.987 300.538L214.518 270.338C214.672 270.158 214.956 270.132 215.136 270.261C215.316 270.415 215.368 270.698 215.213 270.878L190.682 301.079C190.682 301.079 190.476 301.233 190.347 301.233V301.259Z" fill="#212A60"/>
<path d="M280.149 301.259C279.994 301.259 279.865 301.182 279.762 301.053L260.616 270.852C260.488 270.647 260.539 270.364 260.745 270.235C260.951 270.106 261.235 270.158 261.364 270.364L280.509 300.564C280.638 300.77 280.587 301.053 280.38 301.182C280.303 301.233 280.226 301.259 280.149 301.259Z" fill="#212A60"/>
<path d="M195.991 271.058C195.733 271.058 195.553 270.827 195.578 270.595C195.578 270.415 196.506 253.488 210.91 253.771C219.104 253.951 223.975 259.251 225.392 269.566C225.443 269.875 225.495 270.209 225.521 270.364C225.572 270.441 225.624 270.518 225.624 270.621C225.624 270.878 225.417 271.058 225.186 271.058C224.722 271.058 224.696 270.75 224.541 269.669C224.052 266.016 222.506 254.903 210.91 254.646C197.382 254.337 196.48 270.467 196.48 270.621C196.48 270.852 196.274 271.058 196.042 271.058H195.991Z" fill="#212A60"/>
<path d="M234.024 306.609C233.844 306.609 233.663 306.506 233.612 306.326C233.526 306.103 242.287 294.467 259.895 271.418C271.465 256.344 283.035 241.295 285.637 237.874H264.327L240.956 270.93C240.827 271.135 240.543 271.187 240.337 271.032C240.131 270.904 240.079 270.621 240.234 270.415L263.734 237.153C263.734 237.153 263.941 236.973 264.095 236.973H286.539C286.719 236.973 286.874 237.076 286.951 237.231C287.029 237.385 287.003 237.565 286.9 237.694C269.146 260.768 235.441 304.68 234.436 306.326C234.385 306.429 234.307 306.532 234.179 306.558C234.127 306.558 234.076 306.584 234.024 306.584V306.609Z" fill="#212A60"/>
<path d="M285.611 273.656L285.354 274.557H187.255L187.049 273.656H285.611Z" fill="#212A60"/>
<path d="M198.825 278.853C198.567 278.853 198.387 278.647 198.387 278.415V274.119C198.387 273.862 198.593 273.682 198.825 273.682C199.057 273.682 199.263 273.888 199.263 274.119V278.415C199.263 278.673 199.057 278.853 198.825 278.853Z" fill="#212A60"/>
<path d="M217.842 278.467C217.584 278.467 217.404 278.287 217.404 278.055V273.965C217.404 273.734 217.61 273.553 217.842 273.553C218.074 273.553 218.28 273.734 218.28 273.965V278.055C218.28 278.287 218.074 278.467 217.842 278.467Z" fill="#5B1615"/>
<path d="M247.733 278.853C247.501 278.853 247.294 278.647 247.294 278.415V274.119C247.294 273.862 247.501 273.682 247.733 273.682C247.964 273.682 248.171 273.888 248.171 274.119V278.415C248.171 278.673 247.964 278.853 247.733 278.853Z" fill="#212A60"/>
<path d="M276.567 278.853C276.335 278.853 276.129 278.647 276.129 278.415V274.119C276.129 273.862 276.335 273.682 276.567 273.682C276.799 273.682 277.005 273.888 277.005 274.119V278.415C277.005 278.673 276.799 278.853 276.567 278.853Z" fill="#212A60"/>
<path d="M240.002 259.688H228.845L216.502 319.574H219.027L227.814 283.277H241.059L248.48 319.574H251.598L240.002 259.688ZM229.901 269.643L230.932 262.826H238.224L238.971 269.643H229.901Z" fill="#A8D7B4"/>
<path d="M516.775 319.883C516.775 319.883 512.91 327.137 496.418 329.247C491.858 329.813 487.967 329.993 484.694 329.916C476.113 329.761 471.887 328.038 471.887 328.038L469.259 315.15L456.272 251.302C456.272 251.302 456.452 250.221 461.451 248.498C465.729 247.032 473.511 244.999 487.786 242.53L512.085 307.381L516.775 319.883Z" fill="#F7981D"/>
<path d="M487.786 242.556C473.511 245.025 465.729 247.057 461.451 248.524C456.452 250.247 456.272 251.225 456.272 251.302L453.438 237.205C454.185 236.459 454.958 235.764 455.731 235.147L455.808 235.43C455.808 235.43 456.349 235.147 457.303 234.684C460.885 232.935 470.109 228.87 476.062 229.796L475.933 229.41C480.314 229.719 483.303 230.697 483.303 230.697L487.76 242.581L487.786 242.556Z" fill="#E2A657"/>
<path d="M484.668 329.916C476.088 329.761 471.862 328.038 471.862 328.038L469.233 315.15L456.246 251.302L453.412 237.205C454.159 236.459 454.932 235.764 455.705 235.147L455.783 235.43C455.783 235.43 456.324 235.147 457.277 234.684C458.205 237.642 459.648 242.504 461.4 248.524C469.053 274.685 482.555 322.584 484.643 329.916H484.668Z" fill="#DC8427"/>
<path d="M476.088 229.796C472.609 229.256 467.996 230.414 464.08 231.828C459.493 233.475 455.834 235.43 455.834 235.43L455.757 235.147L440.116 175.235L443.208 174.412L454.056 171.505L475.959 229.436L476.088 229.822V229.796Z" fill="#FFC40C"/>
<path d="M464.054 231.829C459.467 233.475 455.808 235.43 455.808 235.43L455.731 235.147L440.09 175.235L443.182 174.412L464.054 231.829Z" fill="#F7981D"/>
<path d="M525.974 330.868C525.536 331.022 519.275 338.585 495.182 340.231C494.769 340.231 494.357 340.283 493.945 340.308C470.882 341.698 465.445 336.99 465.445 336.99C465.445 336.99 463.822 328.938 463.204 323.459C462.637 318.288 465.523 316.127 469.208 315.176L471.836 328.064C471.836 328.064 475.675 329.633 483.509 329.89C487.013 330.019 491.291 329.89 496.367 329.247C512.858 327.163 516.724 319.883 516.724 319.883L512.034 307.381C521.336 304.371 526.387 330.713 525.923 330.842L525.974 330.868Z" fill="#D64E27"/>
<path d="M493.971 340.308C470.908 341.697 465.471 336.99 465.471 336.99C465.471 336.99 463.848 328.938 463.229 323.459C462.663 318.288 465.549 316.127 469.233 315.176L471.862 328.064C471.862 328.064 475.701 329.633 483.535 329.89C486.549 333.98 490.054 337.736 493.971 340.308Z" fill="#C54127"/>
<path d="M429.757 338.225L428.056 339.923L426.665 341.337C426.665 341.337 413.291 325.543 404.582 312.397C395.898 299.252 393.424 282.351 398.346 271.65C398.346 271.65 382.731 219.326 380.283 211.3C377.835 203.274 377.835 205.281 377.835 205.281L373.609 205.512C373.609 205.512 364.255 223.983 357.555 244.922C350.856 265.862 329.004 337.762 329.004 337.762L327.819 338.199L325.423 339.099C325.423 339.099 320.501 308.153 320.501 292.127C320.501 276.1 323.851 269.412 334.545 258.736C334.545 258.736 335.884 220.896 342.12 199.056C345.238 188.148 348.15 180.122 350.263 174.849C352.376 169.575 353.716 167.003 353.716 167.003C353.716 167.003 357.452 163.813 361.034 158.128C361.163 157.948 361.292 157.742 361.42 157.536C362.271 156.147 363.095 154.629 363.868 152.957C364.023 152.623 364.203 152.263 364.358 151.877C364.41 151.774 364.461 151.645 364.487 151.543C364.616 151.26 364.745 150.951 364.899 150.642C364.951 150.539 365.002 150.436 365.054 150.334C365.234 149.922 365.414 149.51 365.595 149.099C365.621 149.022 365.672 148.919 365.698 148.842C365.853 148.481 366.007 148.095 366.188 147.735C366.239 147.607 366.291 147.478 366.342 147.375C366.419 147.195 366.497 147.015 366.574 146.835C366.651 146.629 366.754 146.398 366.832 146.192C366.857 146.115 366.909 146.038 366.935 145.96C367.141 145.472 367.347 144.983 367.553 144.494C367.605 144.391 367.631 144.288 367.682 144.185C367.862 143.774 368.017 143.362 368.197 142.925C368.249 142.796 368.3 142.693 368.352 142.565C368.79 141.51 369.202 140.455 369.64 139.349C369.666 139.221 369.718 139.118 369.769 139.015C369.95 138.552 370.13 138.089 370.31 137.626C370.336 137.523 370.388 137.42 370.413 137.343C370.62 136.777 370.852 136.211 371.058 135.645C371.058 135.645 371.058 135.593 371.083 135.593C371.29 135.053 371.47 134.539 371.65 133.999C371.702 133.87 371.728 133.741 371.779 133.638C371.96 133.15 372.114 132.661 372.294 132.172C372.32 132.095 372.346 132.043 372.372 131.966C372.578 131.4 372.758 130.86 372.939 130.294C372.964 130.191 373.016 130.114 373.042 130.011C373.196 129.548 373.351 129.111 373.48 128.648C373.531 128.519 373.557 128.391 373.609 128.288C373.789 127.773 373.944 127.259 374.098 126.744C375.412 125.818 377.68 124.326 378.608 124.069C378.608 124.069 377.19 121.857 375.979 119.567C376.108 118.924 376.211 118.307 376.314 117.715C376.314 117.663 376.314 117.612 376.314 117.561C376.34 117.329 376.392 117.072 376.417 116.866C376.443 116.583 376.469 116.3 376.495 116.043C377.113 107.94 376.907 100.428 376.881 99.4506V99.3477C376.881 99.3477 395.022 96.8267 404.376 97.4184C404.376 97.4184 406.257 101.637 408.782 107.194C411.307 112.75 414.528 119.67 417.208 125.072C417.208 125.175 416.718 138.732 413.755 155.015C413.472 156.61 413.188 158.385 412.93 160.289C412.93 160.289 412.93 160.34 412.93 160.366C412.879 160.572 412.853 160.778 412.827 160.983C412.338 164.585 411.9 168.675 411.513 172.997C410.019 189.923 409.426 210.683 410.483 222.259C411.977 238.594 419.939 311.754 429.783 338.25L429.757 338.225Z" fill="#263B7F"/>
<path d="M372.63 204.741C372.63 204.741 380.824 201.294 384.405 200.959L372.63 204.741Z" fill="#7D322E"/>
<path d="M412.905 160.34C412.853 160.546 412.827 160.752 412.802 160.958C412.312 164.559 411.874 168.649 411.487 172.971C406.952 172.508 397.032 169.37 389.353 164.919C380.36 159.723 371.753 152.031 366.6 146.835C366.677 146.629 366.78 146.398 366.857 146.192C366.883 146.115 366.935 146.038 366.961 145.96C367.167 145.472 367.373 144.983 367.579 144.494C367.63 144.391 367.656 144.288 367.708 144.185C367.888 143.774 368.043 143.362 368.223 142.925C368.275 142.796 368.326 142.693 368.378 142.565C368.816 141.51 369.228 140.455 369.666 139.349C369.692 139.221 369.743 139.118 369.795 139.015C369.975 138.552 370.156 138.089 370.336 137.626C370.362 137.523 370.413 137.42 370.439 137.343C370.645 136.777 370.877 136.211 371.083 135.645C371.083 135.645 371.083 135.593 371.109 135.593C371.315 135.053 371.496 134.539 371.676 133.999C371.728 133.87 371.753 133.741 371.805 133.638C371.985 133.15 372.14 132.661 372.32 132.172C372.346 132.095 372.372 132.043 372.398 131.966C372.604 131.4 372.784 130.86 372.964 130.294C372.99 130.191 373.042 130.114 373.068 130.011C373.222 129.548 373.377 129.111 373.506 128.648C373.557 128.519 373.583 128.391 373.634 128.288C373.815 127.773 373.969 127.259 374.124 126.744C375.438 125.818 377.706 124.326 378.633 124.069C378.633 124.069 377.216 121.857 376.005 119.567C376.134 118.924 376.237 118.307 376.34 117.715C376.34 117.664 376.34 117.612 376.34 117.561C376.366 117.329 376.417 117.072 376.443 116.866C376.469 116.583 376.495 116.3 376.52 116.043C377.139 107.94 376.933 100.428 376.907 99.4506C378.298 104.93 379.509 124.069 379.509 124.069C379.509 124.069 387.111 134.436 394.764 142.951C402.391 151.465 409.22 160.932 409.22 160.932L412.956 160.392L412.905 160.34Z" fill="#212A60"/>
<path d="M428.056 339.923L426.665 341.337C426.665 341.337 413.291 325.543 404.582 312.397C395.898 299.252 393.424 282.351 398.346 271.65C398.346 271.65 382.731 219.326 380.283 211.3C377.835 203.274 377.835 205.281 377.835 205.281L373.609 205.512C373.609 205.512 364.255 223.983 357.555 244.922C350.856 265.862 329.004 337.762 329.004 337.762L327.819 338.199C328.36 334.443 330.138 322.687 333.462 312.372C334.802 308.204 335.24 306.738 335.24 306.609C335.06 306.841 333.694 310.777 333.488 311.394C334.003 309.619 342.507 280.962 346.63 266.505C350.856 251.585 369.022 206.387 369.022 206.387C369.022 206.387 383.194 199.699 384.431 197.718C384.431 197.718 386.493 207.853 390.976 229.385C395.46 250.916 401.49 275.637 401.49 275.637C401.49 275.637 398.81 286.339 404.607 301.696C409.375 314.301 423.263 333.44 428.082 339.923H428.056Z" fill="#212A60"/>
<path d="M434.344 123.143C434.344 123.143 432.643 125.072 428.881 127.928C427.773 128.776 426.768 129.805 425.892 130.834C423.882 133.227 422.619 135.645 422.516 135.825C421.125 134.076 419.785 131.375 418.806 129.111C417.826 126.847 417.182 125.021 417.182 125.021C416.796 124.275 416.435 123.503 416.023 122.68C410.818 111.927 404.35 97.3669 404.35 97.3669C394.97 96.7752 376.855 99.2962 376.855 99.2962C376.855 99.2962 377.139 107.322 376.469 115.991C376.469 116.249 376.417 116.532 376.392 116.815C376.366 117.046 376.314 117.278 376.289 117.509C376.289 117.561 376.289 117.612 376.289 117.663C376.211 118.229 376.082 118.847 375.954 119.49C377.165 121.779 378.582 123.992 378.582 123.992C377.654 124.249 375.387 125.741 374.073 126.667C373.918 127.182 373.763 127.696 373.583 128.21C373.531 128.339 373.506 128.468 373.454 128.571C373.299 129.034 373.171 129.471 373.016 129.934C373.016 130.037 372.965 130.114 372.913 130.217C372.733 130.757 372.552 131.323 372.346 131.889C372.346 131.941 372.295 132.018 372.269 132.095C372.114 132.584 371.934 133.072 371.753 133.561C371.702 133.69 371.65 133.793 371.625 133.921C371.496 134.256 371.367 134.616 371.238 134.95C371.187 135.13 371.109 135.31 371.032 135.491C371.032 135.491 371.032 135.516 371.006 135.542C370.8 136.108 370.594 136.674 370.362 137.24C370.336 137.343 370.285 137.446 370.259 137.523C370.078 137.986 369.898 138.449 369.718 138.912C369.666 139.015 369.615 139.143 369.589 139.246C369.151 140.327 368.739 141.407 368.3 142.462C368.249 142.59 368.197 142.693 368.146 142.822C367.966 143.234 367.811 143.671 367.631 144.082C367.579 144.185 367.527 144.288 367.502 144.391C367.296 144.906 367.089 145.369 366.883 145.857C366.858 145.935 366.806 146.012 366.78 146.089C366.6 146.501 366.445 146.886 366.291 147.272C366.239 147.401 366.188 147.53 366.136 147.632C365.981 147.993 365.801 148.378 365.646 148.739C365.621 148.816 365.569 148.919 365.543 148.996C365.363 149.407 365.183 149.819 365.002 150.231C365.002 150.231 365.002 150.231 365.002 150.282C364.951 150.359 364.899 150.462 364.873 150.539C364.745 150.848 364.616 151.157 364.461 151.44C364.41 151.543 364.358 151.671 364.332 151.774C364.152 152.134 363.997 152.52 363.843 152.854C361.781 157.279 359.256 160.803 357.22 163.196C355.21 165.588 353.69 166.874 353.69 166.9L359.385 141.819L361.034 134.513C355.391 127.207 349.67 117.381 348.202 105.907C347.351 99.039 347.068 93.1738 348.433 87.9518C349.335 84.4275 350.984 81.212 353.69 78.2279C357.684 73.7776 361.524 71.4367 365.492 70.1762C366.033 69.9961 366.6 69.8418 367.141 69.7132C368.275 69.4302 369.434 69.2244 370.62 69.0958C371.676 68.9671 372.758 68.89 373.866 68.8385C380.695 68.5041 392.316 68.7613 401.953 70.3048C403.345 70.5363 404.711 70.7679 406.025 71.0508C407.133 71.2823 408.189 71.5653 409.194 71.8226C409.684 71.9512 410.148 72.1312 410.611 72.2856C419.939 75.7584 424.706 86.2025 426.948 93.6369C428.623 99.1933 434.292 123.014 434.292 123.014L434.344 123.143Z" fill="#F79738"/>
<path d="M371.264 135.027C371.212 135.208 371.135 135.388 371.058 135.568C371.058 135.568 371.058 135.593 371.032 135.619C370.826 136.185 370.62 136.751 370.388 137.317C370.362 137.42 370.31 137.523 370.285 137.6C370.104 138.063 369.924 138.526 369.744 138.989C369.692 139.092 369.64 139.221 369.615 139.323C369.177 140.404 368.764 141.484 368.326 142.539C368.275 142.668 368.223 142.771 368.172 142.899C367.991 143.311 367.837 143.748 367.656 144.16C367.605 144.263 367.553 144.365 367.527 144.468C367.321 144.983 367.115 145.446 366.909 145.935C366.883 146.012 366.832 146.089 366.806 146.166C366.626 146.578 366.471 146.964 366.316 147.349C366.265 147.478 366.213 147.607 366.162 147.71C366.007 148.07 365.827 148.456 365.672 148.816C365.646 148.893 365.595 148.996 365.569 149.073C365.389 149.485 365.208 149.896 365.028 150.308C365.028 150.308 365.028 150.308 365.028 150.359C363.379 147.761 361.292 144.52 359.411 141.87L361.06 134.564C355.417 127.259 349.696 117.432 348.227 105.959C347.377 99.0905 347.094 93.2253 348.459 88.0032L349.902 96.4666C349.902 96.4666 354.077 112.493 357.633 118.898C361.189 125.304 367.579 132.841 367.579 132.841L371.212 134.976L371.264 135.027Z" fill="#E18726"/>
<path d="M425.917 130.834C423.908 133.227 422.645 135.645 422.542 135.825C421.15 134.076 419.81 131.375 418.831 129.111C417.852 126.847 417.208 125.021 417.208 125.021C416.821 124.275 416.461 123.503 416.048 122.68L418.136 115.4L419.682 121.111C419.682 121.111 423.341 127.13 425.917 130.809V130.834Z" fill="#E18726"/>
<path d="M410.689 72.4142C405.767 73.7776 398.526 75.4497 390.641 76.17C377.371 77.4048 370.877 73.932 367.218 69.8161C368.352 69.5331 369.512 69.3273 370.697 69.1987C371.753 69.07 372.836 68.9929 373.944 68.9414C380.772 68.607 392.393 68.8643 402.031 70.4077C403.422 70.6392 404.788 70.8708 406.102 71.1537C407.21 71.3852 408.266 71.6682 409.271 71.9255C409.761 72.0541 410.225 72.2342 410.689 72.3885V72.4142Z" fill="#E18726"/>
<path d="M402.134 41.7764C402.134 41.7764 398.062 45.5322 388.528 47.3844C383.272 48.4133 379.097 48.3362 376.108 47.6931C373.686 47.1786 372.037 46.2525 371.29 45.2235C371.29 45.2235 369.692 40.1815 369.151 33.3388C368.61 26.5219 368.79 22.586 369.151 21.9944C369.228 21.8915 369.486 21.6342 369.898 21.3255C371.547 20.0393 375.67 17.4669 380.076 16.2835C385.565 14.7915 389.817 14.8687 390.719 15.3832C391.569 15.8719 392.393 17.2096 392.471 17.364C394.043 20.3223 396.104 25.3128 397.264 28.9657C398.835 33.9562 402.159 41.7764 402.159 41.7764H402.134Z" fill="#F1B5AB"/>
<path d="M369.125 44.992C369.125 45.2235 368.996 45.5065 368.842 45.8152C368.275 46.8699 366.961 48.1818 365.672 48.542C365.183 48.6963 364.667 48.6706 364.229 48.4391C362.451 47.4873 360.854 38.6895 362.374 36.5801C362.451 36.4515 362.554 36.3486 362.657 36.2714C363.508 35.7055 364.41 35.8856 365.26 36.4772C366.394 37.2747 367.424 38.8181 368.12 40.2844C368.739 41.5964 369.228 43.6286 369.125 44.9663V44.992Z" fill="#F1B5AB"/>
<path d="M368.12 40.3101C368.739 41.6221 369.228 43.6543 369.125 44.992C369.125 45.2235 368.996 45.5065 368.842 45.8152C368.275 46.8699 366.961 48.1818 365.672 48.5419C365.08 44.9405 364.023 39.9757 362.374 36.6058C362.451 36.4772 362.554 36.3743 362.657 36.2971C363.508 35.7312 364.41 35.9112 365.26 36.5029C366.394 37.3004 367.424 38.8438 368.12 40.3101Z" fill="#F5948D"/>
<path d="M376.108 47.6673C373.686 47.1529 372.037 46.2268 371.29 45.1978C371.29 45.1978 369.692 40.1558 369.151 33.3131C368.61 26.4961 368.79 22.5603 369.151 21.9686C369.228 21.8657 369.486 21.6085 369.898 21.2998C370.362 27.2679 371.805 40.5417 376.108 47.6673Z" fill="#F5948D"/>
<path d="M432.772 176.212C432.772 176.212 437.848 192.547 445.45 195.66L447.331 202.837C447.331 202.837 432.179 195.634 428.984 177.679L432.772 176.212Z" fill="#66C8CE"/>
<path d="M461.065 170.579C461.065 170.579 466.064 187.197 461.889 192.341L464.415 199.004C464.415 199.004 471.398 184.856 465.162 169.678L461.065 170.579Z" fill="#66C8CE"/>
<path d="M367.579 144.494C367.579 144.494 367.656 144.288 367.708 144.185C367.656 144.288 367.631 144.391 367.579 144.494Z" fill="#8E3E36"/>
<path d="M364.384 151.903C364.384 151.903 364.487 151.697 364.539 151.594C364.487 151.697 364.435 151.8 364.384 151.903Z" fill="#8E3E36"/>
<path d="M366.857 146.192C366.857 146.192 366.935 146.038 366.961 145.96C366.935 146.038 366.883 146.115 366.857 146.192Z" fill="#8E3E36"/>
<path d="M366.188 147.761C366.188 147.761 366.291 147.504 366.342 147.375C366.291 147.504 366.239 147.632 366.188 147.761Z" fill="#8E3E36"/>
<path d="M364.925 150.668C364.925 150.668 365.028 150.462 365.08 150.359C365.028 150.462 364.976 150.565 364.925 150.668Z" fill="#8E3E36"/>
<path d="M365.621 149.124C365.621 149.124 365.698 148.944 365.724 148.867C365.698 148.944 365.646 149.047 365.621 149.124Z" fill="#8E3E36"/>
<path d="M373.454 128.648C373.454 128.648 373.531 128.391 373.583 128.262C373.531 128.391 373.506 128.519 373.454 128.648Z" fill="#8E3E36"/>
<path d="M368.223 142.899C368.223 142.899 368.326 142.668 368.378 142.539C368.326 142.642 368.275 142.771 368.223 142.899Z" fill="#8E3E36"/>
<path d="M372.913 130.294C372.913 130.294 372.965 130.114 373.016 130.011C372.99 130.114 372.965 130.191 372.913 130.294Z" fill="#8E3E36"/>
<path d="M376.417 116.84C376.443 116.557 376.469 116.3 376.495 116.017C376.495 116.274 376.443 116.557 376.417 116.84Z" fill="#8E3E36"/>
<path d="M369.64 139.349C369.64 139.349 369.718 139.118 369.769 139.015C369.718 139.118 369.692 139.246 369.64 139.349Z" fill="#8E3E36"/>
<path d="M372.294 132.146C372.294 132.146 372.346 132.018 372.372 131.941C372.372 132.018 372.32 132.069 372.294 132.146Z" fill="#8E3E36"/>
<path d="M370.285 137.626C370.285 137.626 370.362 137.42 370.388 137.317C370.362 137.42 370.31 137.523 370.285 137.626Z" fill="#8E3E36"/>
<path d="M371.625 133.973C371.625 133.973 371.702 133.716 371.754 133.613C371.702 133.741 371.676 133.87 371.625 133.973Z" fill="#8E3E36"/>
<path d="M472.66 162.733C472.996 161.215 473.151 159.903 473.151 159.903C473.151 159.903 472.867 161.241 472.66 162.733Z" fill="#F1B5AB"/>
<path d="M371.934 30.8693C372.372 29.7631 374.536 27.9881 376.392 26.7019C378.247 25.4414 381.365 25.2099 381.365 25.2099C381.365 25.2099 380.257 27.6537 376.649 29.4287C373.042 31.2037 371.934 30.8435 371.934 30.8435V30.8693Z" fill="#5D2610"/>
<path d="M388.683 23.9237C387.936 24.4382 392.187 26.4447 396.181 26.2904C396.181 26.2904 392.007 21.6085 388.683 23.9237Z" fill="#5D2610"/>
<path d="M392.471 69.7134L391.44 72.9033C389.533 73.7522 385.307 73.5978 381.803 73.212C379.071 72.9033 376.804 72.4402 376.417 72.183C375.515 71.5913 375.155 68.0156 375.155 68.0156C375.155 68.0156 377.01 68.1442 380.875 68.8645C381.468 68.9674 382.112 69.096 382.808 69.2247C388.013 70.2794 392.471 69.7392 392.471 69.7392V69.7134Z" fill="#F1B5AB"/>
<path d="M381.803 73.186C379.071 72.8773 376.804 72.4142 376.417 72.157C375.515 71.5653 375.155 67.9896 375.155 67.9896C375.155 67.9896 377.01 68.1182 380.875 68.8385C381.107 70.3563 381.442 71.8483 381.803 73.2117V73.186Z" fill="#F5948D"/>
<path d="M325.423 339.125V342.161H344.311C344.311 342.161 333.462 332.951 325.423 339.125Z" fill="#D64E27"/>
<path d="M426.665 341.337H445.553C445.553 341.337 431.87 331.331 426.665 341.337Z" fill="#D64E27"/>
<path d="M380.592 98.8332L376.855 99.322C376.855 99.322 369.975 78.3823 365.543 70.2791C367.218 69.7389 368.919 69.4302 370.697 69.2244C372.887 74.1378 379.664 89.984 380.618 98.859L380.592 98.8332Z" fill="#4B66AF"/>
<path d="M406.102 71.1537L404.376 97.3927L401.258 97.2898C401.258 97.2898 401.696 78.1765 402.031 70.382C403.422 70.6135 404.788 70.8451 406.102 71.128V71.1537Z" fill="#4B66AF"/>
<path d="M406.824 56.285C406.746 61.4813 402.881 67.1922 392.471 69.7132C382.061 72.2342 375 68.5298 372.114 65.8545C369.228 63.1792 369.357 58.2915 369.151 52.272C369.048 49.5709 369.048 47.5902 368.842 45.8152C369.022 45.5065 369.125 45.2235 369.125 44.992C369.228 43.6543 368.739 41.6478 368.12 40.3101C367.424 38.8439 366.394 37.3004 365.26 36.5029C363.637 33.5703 362.142 30.7407 361.755 26.9592C361.498 24.4896 362.194 22.4059 363.095 20.9139C363.997 19.3447 365.105 18.4187 365.466 18.3415C366.162 18.1871 365.646 15.8977 367.321 12.7078C368.996 9.51801 370.774 5.65935 375.541 2.31517C380.283 -1.029 383.04 -0.128646 384.74 1.20902C386.312 2.4438 390.1 8.07745 391.285 10.6756C391.389 10.8814 391.44 11.0615 391.517 11.2158C392.342 13.4538 392.471 17.3897 392.471 17.3897C392.368 17.2353 391.543 15.8977 390.719 15.4089C389.817 14.8944 385.591 14.8172 380.076 16.3093C374.562 17.8013 369.512 21.4284 369.151 22.0201C368.79 22.6117 368.61 26.5476 369.151 33.3646C369.305 35.3453 369.563 37.1718 369.821 38.7667C370.491 42.7025 371.29 45.2235 371.29 45.2235C372.99 47.513 379.02 49.2365 388.528 47.3844C398.037 45.5322 402.134 41.7764 402.134 41.7764C404.427 43.3714 406.72 50.5742 406.824 55.7448C406.824 55.9249 406.824 56.1049 406.824 56.285Z" fill="#723316"/>
<path d="M405.612 111.901L405.535 111.232L405.226 108.428C405.226 108.428 405.174 108.248 405.097 108.197C405.02 108.145 404.917 108.12 404.814 108.145C396.362 110.332 379.535 110.461 379.355 110.461C379.278 110.461 379.175 110.486 379.123 110.564C379.071 110.641 379.02 110.718 379.02 110.821L379.149 114.782V115.451L379.587 129.137C379.587 129.317 379.716 129.445 379.896 129.445C381.957 129.651 384.096 129.754 386.261 129.754C397.599 129.754 406.798 126.95 406.901 126.924C407.055 126.873 407.158 126.719 407.133 126.564L405.612 111.876V111.901ZM386.261 129.111C384.199 129.111 382.189 129.008 380.257 128.828L379.844 115.4V114.731L379.716 111.104C382.112 111.078 396.671 110.795 404.607 108.84L404.865 111.387L404.942 112.056L406.437 126.333C404.865 126.796 396.413 129.059 386.261 129.059V129.111Z" fill="#A6DDEB"/>
<path d="M405.612 111.901C405.406 111.978 405.174 112.03 404.968 112.107C397.289 114.397 384.225 115.22 379.844 115.425C379.587 115.425 379.355 115.451 379.174 115.477V114.808C379.355 114.808 379.587 114.808 379.819 114.782C384.199 114.551 397.315 113.753 404.865 111.464C405.097 111.387 405.303 111.335 405.509 111.258L405.587 111.927L405.612 111.901Z" fill="#A6DDEB"/>
<path d="M417.826 127.053C417.826 127.053 417.775 127.053 417.749 127.053C417.44 126.976 416.847 126.641 416.847 125.818C416.847 125.664 416.924 125.072 417.079 123.76C417.697 118.924 419.166 107.554 418.625 101.123C418.625 100.943 418.754 100.788 418.934 100.763C419.115 100.763 419.269 100.891 419.295 101.071C419.836 107.554 418.367 118.975 417.749 123.837C417.62 124.866 417.517 125.69 417.517 125.818C417.517 126.333 417.878 126.384 417.878 126.41C418.058 126.461 418.187 126.616 418.136 126.796C418.11 126.95 417.955 127.053 417.801 127.053H417.826Z" fill="#914037"/>
<path d="M376.649 113.65C376.495 113.65 376.34 113.522 376.314 113.368C374.201 98.8847 368.558 89.2123 368.507 89.1351C368.404 88.9808 368.481 88.775 368.635 88.6721C368.79 88.5692 368.996 88.6206 369.099 88.775C369.151 88.8779 374.845 98.6531 377.01 113.265C377.01 113.445 376.907 113.625 376.727 113.65H376.675H376.649Z" fill="#914037"/>
<path d="M412.905 160.263C412.879 160.495 412.827 160.726 412.802 160.958C404.994 162.373 397.882 162.887 391.646 162.887C385.075 162.887 379.51 162.321 375.181 161.627C368.275 160.546 363.379 158.951 361.06 158.128C361.189 157.948 361.317 157.742 361.446 157.536C367.012 159.517 386.209 165.177 412.905 160.263Z" fill="#A6DDEB"/>
<path d="M363.997 39.1268C363.997 39.1268 363.765 39.0753 363.688 39.1782C363.611 39.2811 363.636 39.4098 363.74 39.4869C363.74 39.4869 364.487 40.0272 365.286 40.9532C364.796 42.1366 364.152 44.0144 364.693 44.3746C364.77 44.426 364.873 44.4518 364.976 44.4518C365.492 44.4518 366.265 43.7829 366.729 43.2942C366.832 43.6028 366.935 43.9115 367.012 44.2202C367.012 44.3231 367.115 44.4003 367.218 44.4003C367.218 44.4003 367.244 44.4003 367.27 44.4003C367.399 44.4003 367.476 44.2717 367.45 44.1431C366.857 41.159 364.126 39.1782 364.023 39.1011L363.997 39.1268ZM364.951 44.0144C364.796 43.8344 365.105 42.6253 365.595 41.3391C365.93 41.7764 366.265 42.2909 366.522 42.8568C365.801 43.6286 365.079 44.1173 364.951 44.0144Z" fill="#983222"/>
<path d="M388.786 45.455C388.219 45.455 387.626 45.3778 387.085 45.2749C386.956 45.2492 386.905 45.1206 386.931 44.992C386.956 44.8633 387.085 44.7862 387.188 44.8376C389.172 45.3007 391.517 44.8376 392.883 43.68C393.373 43.2942 393.914 42.6253 393.888 41.7764C393.785 39.7185 390.564 39.5384 390.538 39.5384C390.487 39.5384 390.409 39.5127 390.384 39.4612C388.863 37.6605 387.807 28.6055 387.936 28.2196C387.961 28.1167 388.09 28.0396 388.219 28.091C388.322 28.1167 388.374 28.2196 388.374 28.3483C388.374 28.9914 389.301 37.3261 390.667 39.1268C391.26 39.1782 394.223 39.5384 394.352 41.7764C394.403 42.5996 393.991 43.3971 393.192 44.0402C392.084 44.9662 390.461 45.4807 388.812 45.4807L388.786 45.455Z" fill="#983222"/>
<path d="M378.144 52.555C378.144 52.555 390.203 50.0597 394.094 49.5967C394.094 49.5967 393.579 54.8445 388.683 56.285C383.787 57.7256 378.144 52.555 378.144 52.555Z" fill="white"/>
<path d="M381.7 34.6508C381.494 36.0914 380.824 37.1975 380.205 37.0946C379.587 37.0174 379.252 35.7569 379.484 34.3164C379.69 32.8758 380.36 31.7696 380.978 31.8468C381.597 31.9497 381.906 33.1845 381.7 34.6251V34.6508Z" fill="#1E1724"/>
<path d="M395.228 33.2617C395.022 34.7022 394.352 35.8084 393.733 35.7055C393.115 35.6283 392.78 34.3678 393.012 32.9273C393.218 31.4867 393.888 30.3805 394.506 30.4834C395.125 30.5863 395.46 31.8211 395.228 33.2617Z" fill="#1E1724"/>
<path d="M525.974 330.867C525.536 331.022 519.275 338.585 495.207 340.231C471.114 341.852 465.471 336.99 465.471 336.99L466.502 346.92C466.502 346.92 498.66 351.087 526 343.215V330.893L525.974 330.867Z" fill="#272760"/>
<path d="M457.612 230.465C457.612 230.465 457.535 230.465 457.509 230.439C457.457 230.414 457.406 230.362 457.406 230.311L445.218 179.685C445.218 179.685 445.243 179.454 445.372 179.428L450.99 177.498C450.99 177.498 451.222 177.498 451.273 177.627L470.006 226.452C470.006 226.452 470.006 226.581 470.006 226.632C469.981 226.684 469.929 226.735 469.878 226.735L457.689 230.439H457.638L457.612 230.465ZM445.707 179.762L457.792 229.951L469.517 226.375L450.938 177.962L445.707 179.762Z" fill="#66C8CE"/>
<path d="M460.266 244.845C460.266 244.845 460.189 244.845 460.163 244.819C460.111 244.794 460.06 244.742 460.06 244.665L458.875 238.285C458.875 238.285 458.9 238.105 458.978 238.054C465.935 234.221 475.959 233.578 476.062 233.578C476.165 233.578 476.242 233.629 476.268 233.706L479.334 240.215C479.334 240.215 479.334 240.369 479.334 240.42C479.309 240.498 479.231 240.523 479.154 240.523C470.238 241.089 460.446 244.794 460.343 244.819C460.343 244.819 460.292 244.819 460.266 244.819V244.845ZM459.338 238.363L460.446 244.331C462.018 243.765 470.702 240.703 478.819 240.112L475.959 234.015C474.696 234.118 465.729 234.89 459.338 238.337V238.363Z" fill="#A6DDEB"/>
<path d="M475.134 326.211C475.134 326.211 474.954 326.134 474.928 326.031L473.588 320.681C473.588 320.681 473.64 320.449 473.743 320.398C473.872 320.372 473.975 320.449 474.026 320.552L475.366 325.903C475.366 325.903 475.315 326.134 475.211 326.186C475.211 326.186 475.186 326.186 475.16 326.186L475.134 326.211Z" fill="#272760"/>
<path d="M481.087 326.211C481.087 326.211 481.009 326.211 480.983 326.211C480.88 326.16 480.829 326.057 480.88 325.954C480.88 325.645 480.133 323.51 479.386 321.658C479.334 321.555 479.386 321.401 479.515 321.375C479.644 321.349 479.747 321.375 479.798 321.504C481.473 325.748 481.318 326.057 481.267 326.134C481.215 326.211 481.164 326.263 481.061 326.263L481.087 326.211Z" fill="#272760"/>
<path d="M485.828 326.211C485.828 326.211 485.648 326.16 485.622 326.057L483.844 321.607C483.844 321.607 483.844 321.349 483.973 321.324C484.076 321.272 484.204 321.324 484.256 321.452L486.034 325.903C486.034 325.903 486.034 326.134 485.905 326.186C485.905 326.186 485.854 326.186 485.828 326.186V326.211Z" fill="#272760"/>
<path d="M491.342 325.311C491.342 325.311 491.162 325.26 491.136 325.157L489.513 320.706C489.513 320.706 489.513 320.475 489.641 320.423C489.745 320.372 489.873 320.423 489.925 320.552L491.548 325.002C491.548 325.002 491.548 325.234 491.419 325.285C491.419 325.285 491.368 325.285 491.342 325.285V325.311Z" fill="#272760"/>
<path d="M487.864 330.61C478.871 330.61 471.887 328.269 471.784 328.244C471.707 328.244 471.656 328.166 471.63 328.089L469.001 315.201C469.001 315.201 469.053 314.97 469.182 314.944C469.311 314.944 469.414 314.996 469.439 315.124L472.042 327.883C473.253 328.269 483.354 331.305 494.537 329.71C507.292 327.883 513.734 322.79 516.492 319.832L511.132 305.555C511.132 305.555 511.132 305.297 511.261 305.272C511.39 305.22 511.493 305.272 511.544 305.4L516.955 319.806C516.955 319.806 516.955 319.986 516.904 320.038C514.173 323.022 507.653 328.269 494.589 330.147C492.27 330.482 489.976 330.61 487.838 330.61H487.864Z" fill="#272760"/>
<path d="M477.144 167.003L438.415 175.595L414.915 180.817L413.729 176.212L435.065 171.428L476.474 162.167L477.144 167.003Z" fill="#A6DDEB"/>
<path d="M438.415 175.595L414.915 180.791L413.729 176.187L435.065 171.402C436.225 172.842 437.461 174.386 438.415 175.569V175.595Z" fill="#66C8CE"/>
<path d="M472.48 165.151C472.48 164.405 472.557 163.53 472.686 162.733C472.403 164.122 471.965 165.64 471.424 166.463C472.686 162.578 472.841 158.257 472.841 158.205C472.841 158.025 473.021 157.896 473.176 157.896C473.356 157.896 473.511 158.051 473.511 158.231C473.511 158.437 473.382 161.704 472.48 165.151Z" fill="#914037"/>
<path d="M406.824 56.285C406.746 61.4813 402.881 67.1922 392.471 69.7132C382.061 72.2341 375 68.5298 372.114 65.8545C369.228 63.1791 369.357 58.2915 369.151 52.272C369.048 49.5709 369.048 47.5901 368.842 45.8152C369.022 45.5065 369.125 45.2235 369.125 44.992C369.228 43.6543 368.739 41.6478 368.12 40.3101C367.424 38.8438 366.394 37.3004 365.26 36.5029C363.637 33.5703 362.142 30.7406 361.755 26.9592C361.498 24.4896 362.194 22.4059 363.095 20.9139C366.316 22.1487 368.378 20.1936 368.378 20.1936C368.378 20.1936 369.434 18.7016 375.979 15.8977C382.524 13.0937 387.73 13.2223 388.631 12.9393C389.147 12.7593 390.358 11.7046 391.311 10.6756C391.414 10.8814 391.466 11.0615 391.543 11.2158C392.368 13.4538 392.497 17.3897 392.497 17.3897C392.394 17.2353 391.569 15.8977 390.744 15.4089C389.842 14.8944 385.617 14.8172 380.102 16.3092C374.588 17.8013 369.537 21.4284 369.177 22.0201C368.816 22.6117 368.636 26.5476 369.177 33.3645C369.331 35.3453 369.589 37.1718 369.847 38.7667C369.769 39.8471 369.744 40.8503 369.744 41.8022C369.718 48.8249 375.181 58.9603 375.181 58.9603C375.181 58.9603 378.376 64.4396 385.513 64.1567C392.651 63.848 403.809 60.298 405.664 57.9314C406.128 57.314 406.514 56.568 406.849 55.7705C406.849 55.9506 406.849 56.1307 406.849 56.3107L406.824 56.285Z" fill="#5D2610"/>
<path d="M428.778 175.363C427.412 175.981 427.747 173.357 427.928 172.328C427.696 173.434 426.949 176.367 425.789 176.367C424.758 176.367 424.758 174.257 424.836 173.1C424.861 172.662 424.913 172.354 424.913 172.354L424.14 173.022L422.594 174.36C422.594 174.36 419.682 177.37 418.909 176.933C418.677 176.804 418.6 176.547 418.574 176.212C418.522 175.492 418.857 174.54 418.883 174.386C418.857 174.437 418.78 174.592 418.651 174.746C418.651 174.746 418.651 174.772 418.625 174.797C418.162 175.569 417.131 177.061 416.538 176.907C416.435 176.881 416.358 176.752 416.306 176.547C415.946 175.209 416.538 170.553 416.538 170.553C416.538 170.553 413.42 171.556 407.288 169.653C401.155 167.749 391.105 161.421 382.628 154.398C374.15 147.375 365.672 139.581 363.894 136.365C363.894 136.365 365.363 134.333 367.811 131.889C368.662 131.04 369.641 130.114 370.697 129.239C374.82 125.792 378.608 124.017 378.608 124.017C378.608 124.017 391.337 139.272 396.826 147.066C402.34 154.887 409.504 163.093 409.504 163.093C409.504 163.093 419.321 161.086 424.887 163.324C430.453 165.537 430.453 174.566 428.804 175.338L428.778 175.363Z" fill="#F1B5AB"/>
<path d="M420.867 169.781C420.867 169.91 420.867 172.688 418.522 176.212C418.471 175.492 418.805 174.54 418.831 174.386C418.805 174.437 418.728 174.592 418.599 174.746C420.145 171.916 420.171 169.807 420.171 169.781C420.171 169.601 420.326 169.447 420.506 169.447C420.687 169.447 420.841 169.601 420.841 169.781H420.867Z" fill="#914037"/>
<path d="M424.809 173.074C424.835 172.637 424.887 172.328 424.887 172.328L424.114 172.997C425.093 171.119 424.913 169.858 424.887 169.833C424.887 169.652 424.99 169.498 425.17 169.447C425.351 169.447 425.505 169.55 425.557 169.73C425.557 169.807 425.763 171.145 424.809 173.074Z" fill="#914037"/>
<path d="M418.522 167.903C418.522 167.903 416.95 172.791 416.28 176.572C415.92 175.235 416.512 170.579 416.512 170.579C416.512 170.579 413.394 171.582 407.262 169.678C401.129 167.775 391.079 161.446 382.602 154.424C374.124 147.401 365.646 139.606 363.868 136.391C363.868 136.391 365.337 134.359 367.785 131.915C373.068 139.349 375.129 142.771 382.782 150.668C391.26 159.44 408.06 169.807 409.993 169.447C411.926 169.087 418.496 167.878 418.496 167.878L418.522 167.903Z" fill="#F5948D"/>
<path d="M476.629 164.996C476.629 164.996 476.423 164.996 476.371 164.894C476.165 164.739 476.114 164.328 476.088 163.787C476.088 162.527 476.474 160.7 476.577 160.135C476.268 161.215 474.593 166.874 473.15 166.977C472.635 167.003 472.455 166.205 472.455 165.125C472.455 164.379 472.532 163.504 472.661 162.707C472.918 161.472 473.073 160.366 473.124 159.98C473.047 160.34 472.815 161.446 472.661 162.707C472.377 164.096 471.939 165.614 471.398 166.437C471.14 166.771 470.883 167.003 470.599 167.003C470.187 167.003 469.955 166.514 469.826 165.768C469.414 163.479 470.058 158.9 470.058 158.9C470.058 158.9 467.043 162.012 461.039 162.115C455.01 162.218 446.429 157.665 439.188 152.211C431.947 146.758 424.707 139.066 422.568 135.851C422.568 135.851 423.856 133.355 425.943 130.86C426.794 129.831 427.799 128.802 428.907 127.953C432.669 125.098 434.318 123.22 434.37 123.169C434.37 123.169 439.729 130.371 444.522 136.494C449.315 142.616 465.343 153.806 465.343 153.806C465.343 153.806 467.61 151.877 473.176 150.514C478.768 149.15 479.644 150.642 480.752 155.324C481.886 159.98 477.866 164.894 476.629 165.022V164.996Z" fill="#F1B5AB"/>
<path d="M478.175 157.253C478.046 158.591 477.556 162.192 476.345 164.919C476.139 164.765 476.088 164.353 476.062 163.813C476.989 161.344 477.376 158.385 477.479 157.253C477.479 157.073 477.659 156.868 477.84 156.893V157.228L478.149 157.279L478.175 157.253Z" fill="#914037"/>
<path d="M471.398 156.867C471.295 157.228 470.444 162.244 469.8 165.768C469.388 163.479 470.032 158.9 470.032 158.9C470.032 158.9 467.017 162.012 461.013 162.115C454.984 162.218 446.403 157.665 439.162 152.211C431.921 146.758 424.681 139.066 422.542 135.851C422.542 135.851 423.83 133.355 425.917 130.86C430.685 137.548 437.565 146.501 446.738 152.983C457.148 160.34 463.229 160.495 466.811 159.003C470.367 157.511 471.527 156.404 471.398 156.893V156.867Z" fill="#F5948D"/>
</g>
<path d="M526 347H0V349H526V347Z" fill="#E0E0E0" mask="url(#path-1-inside-1_8_1137)"/>
<defs>
<clipPath id="clip0_8_1137">
<path d="M0 0H526V348H0V0Z" fill="white"/>
</clipPath>
</defs>
</svg>
