<svg width="75" height="95" viewBox="0 0 75 95" fill="none" xmlns="http://www.w3.org/2000/svg">
<g clip-path="url(#clip0_8_1802)">
<path d="M62.3606 10.043C62.3606 10.043 62.1772 12.7432 61.473 13.2876C61.473 13.2876 60.6514 12.4268 59.375 12.9051C58.5167 13.2288 57.9299 13.7806 57.6438 14.1043C57.5117 14.2588 57.4384 14.3618 57.4384 14.3618C57.4384 14.3618 56.1693 14.715 55.1496 12.7726C54.1373 10.8302 53.3451 9.74132 53.1177 8.08589C53.0883 7.87252 53.0736 7.65915 53.0736 7.45314C53.0736 6.09201 53.6678 5.03253 54.13 4.62051C54.6728 4.14227 55.1423 4.26735 56.1326 4.52486C56.3674 4.58372 56.6535 4.62786 56.9616 4.65729C57.9445 4.75294 59.1623 4.67201 59.7198 4.36299C60.4533 3.95097 61.5904 3.39181 61.6637 3.8774C61.6637 3.91419 61.6711 3.95833 61.6784 4.01719C61.6931 4.34092 61.6857 4.95895 61.7077 5.63584C61.7297 6.43045 61.7811 7.31335 61.9645 7.85781C62.0892 8.59356 62.2359 9.35138 62.3606 10.0356V10.043Z" fill="#F1B5AB"/>
<path d="M57.6511 14.1117C57.519 14.2662 57.4457 14.3692 57.4457 14.3692C57.4457 14.3692 56.1766 14.7223 55.157 12.78C54.1446 10.8376 53.3524 9.74868 53.125 8.09324C53.0956 7.87987 53.081 7.6665 53.081 7.46049C53.6531 8.74806 54.5554 10.4109 55.3477 11.7205C55.8759 12.6034 56.5948 13.4936 57.6438 14.1043L57.6511 14.1117Z" fill="#F5948D"/>
<path d="M61.6857 4.02455C61.0695 4.72351 59.6391 5.62848 56.9762 4.66465C57.9592 4.7603 59.1769 4.67936 59.7344 4.37035C60.468 3.95833 61.605 3.39916 61.6784 3.88475C61.6784 3.92154 61.6857 3.96569 61.6931 4.02455H61.6857Z" fill="#F5948D"/>
<path d="M23.8336 45.8078C23.1294 48.2284 21.3542 53.1947 21.3542 53.1947C21.3542 53.1947 21.4495 55.2769 21.2588 56.0273C21.2368 56.123 21.2074 56.2039 21.1708 56.248C20.848 56.6306 20.6793 56.1524 20.6793 56.1524C20.6793 56.1524 20.2171 58.9556 19.6816 58.6687C19.1461 58.3817 19.7476 54.21 19.9384 53.4448C20.1291 52.6797 20.7013 47.1395 20.826 45.0058C20.9507 42.8721 21.5889 36.8831 21.9043 36.1842C21.9043 36.1842 22.2051 36.2577 23.4742 36.5152C23.8996 36.5962 24.2517 36.6992 24.5452 36.7948C25.1394 36.9861 25.4548 37.1627 25.4548 37.1627C25.3301 38.0824 24.5378 43.3798 23.841 45.8004L23.8336 45.8078Z" fill="#F1B5AB"/>
<path d="M23.8336 45.8078C23.1294 48.2284 21.3542 53.1947 21.3542 53.1947C21.3542 53.1947 21.4495 55.2769 21.2588 56.0273C21.2661 54.9237 21.1781 53.099 21.2001 53.0328C21.2294 52.9372 23.4228 45.4546 23.7383 43.1664C24.039 41.018 24.2224 38.6636 24.5378 36.8022C25.132 36.9935 25.4475 37.1701 25.4475 37.1701C25.3228 38.0897 24.5305 43.3871 23.8336 45.8078Z" fill="#F5948D"/>
<path d="M70.5252 90.946L69.5643 91.5273L69.4542 91.5935L69.3515 91.6597C69.3515 91.6597 69.1608 91.1594 68.8454 90.3206C67.5836 86.9509 64.3633 78.166 63.9525 75.2819C63.4463 71.6841 64.9721 69.4253 64.9721 69.4253C64.9721 69.4253 63.5417 65.4449 62.6834 61.6558C62.1405 59.2646 61.0035 55.2622 60.2406 52.6502L60.2259 52.6061C60.0425 51.966 59.8812 51.4215 59.7564 50.9948C59.5804 50.4136 59.4777 50.0678 59.4777 50.0678L59.4263 50.0972L59.2503 50.1855L58.8321 50.4062C58.8321 50.4062 58.8175 50.443 58.8175 50.4651C56.5141 58.7496 56.5067 58.7055 55.6411 62.8551C54.8195 66.8061 53.5431 70.3671 52.6555 74.0017C52.2007 75.8631 51.1223 80.3218 50.1907 84.2286C49.3031 87.9442 48.5329 91.1667 48.5329 91.1667L47.9387 91.2624L47.814 91.2845L47.1097 91.3948C47.1097 91.3948 45.1071 77.9527 45.7453 74.5756C46.3835 71.1985 48.7309 68.2702 48.7309 68.2702C48.7309 68.2702 48.2248 57.2192 48.3495 53.2388C48.3715 52.4516 48.4302 51.6128 48.5108 50.752C48.5108 50.6931 48.5182 50.6416 48.5255 50.5828C48.7456 48.2578 49.1124 45.9034 49.3178 44.6232C49.3178 44.5791 49.3324 44.5349 49.3398 44.4908C49.4278 43.961 49.4865 43.6447 49.4865 43.6447C49.4865 43.6447 49.6626 43.6741 49.9707 43.7182C50.6309 43.8139 51.9146 43.9831 53.4918 44.1082C53.5358 44.1082 53.5798 44.1082 53.6238 44.1155C54.9662 44.2185 56.5067 44.2848 58.0619 44.248C58.7881 44.2333 59.5217 44.1744 60.2333 44.0861C60.2846 44.0788 60.3286 44.0714 60.3726 44.064C61.7518 43.8875 63.0502 43.6079 64.1138 43.343C64.1579 43.3283 64.2019 43.3209 64.2459 43.3136C65.7644 42.9236 66.762 42.5558 66.762 42.5558C66.762 42.5558 66.8134 42.9163 66.9014 43.4975C66.9014 43.5417 66.9161 43.5784 66.9234 43.6226C67.0995 44.8072 67.3929 46.7716 67.657 48.4785C67.6643 48.5448 67.679 48.6183 67.6937 48.6845C67.7964 49.3467 67.8917 49.9721 67.9724 50.4798C68.3832 53.0255 69.4982 64.1059 69.7476 67.7993C70.0044 71.4928 70.5399 90.9166 70.5399 90.9166L70.5252 90.946Z" fill="#1D4EA1"/>
<path d="M50.1834 84.236C49.2958 87.9515 48.5255 91.1741 48.5255 91.1741L47.9313 91.2697L47.8066 91.2918L47.1024 91.4022C47.1024 91.4022 45.0998 77.96 45.738 74.5829C46.3762 71.2059 48.7236 68.2776 48.7236 68.2776C48.7236 68.2776 48.2174 57.2266 48.3421 53.2462C48.3641 52.4589 48.4228 51.6202 48.5035 50.7594C48.5035 50.7005 48.5109 50.649 48.5182 50.5901C48.7383 48.2652 49.1051 45.9108 49.3105 44.6306C49.3105 44.5864 49.3251 44.5423 49.3325 44.4981C49.4205 43.9684 49.4792 43.652 49.4792 43.652C49.4792 43.652 49.6552 43.6815 49.9633 43.7256C49.8533 46.985 49.7653 54.2247 49.8753 60.9421C49.9927 67.9465 49.6846 70.1096 49.6846 70.1096C49.6846 70.1096 47.0804 77.9453 50.1907 84.2213L50.1834 84.236Z" fill="#1D427F"/>
<path d="M68.8454 90.3206C67.5836 86.9509 64.3633 78.166 63.9525 75.2819C63.4463 71.6841 64.9721 69.4253 64.9721 69.4253C64.9721 69.4253 63.5417 65.4449 62.6834 61.6558C62.1406 59.2646 61.0035 55.2622 60.2406 52.6502L60.226 52.6061C60.0426 51.966 59.8812 51.4215 59.7565 50.9948L66.2632 68.9912C66.2632 68.9912 65.9845 71.5222 66.0505 76.7755C66.0945 80.4837 67.8331 86.8773 68.8454 90.3206Z" fill="#1D427F"/>
<path d="M40.2436 73.0599C40.9111 75.5468 40.7791 79.0122 40.0235 81.8522C39.2606 84.6848 38.1162 89.7835 38.1162 89.7835C38.0869 89.7982 38.0649 89.813 38.0355 89.8203C37.9622 89.8571 37.8888 89.8939 37.8228 89.916C37.8228 89.916 37.8228 89.916 37.8081 89.916C37.7641 89.9307 37.7201 89.9454 37.6834 89.9601C37.0892 90.1514 36.9352 89.8056 36.9352 89.8056C36.9352 89.8056 36.0769 84.8099 35.6954 80.7338C35.314 76.6578 34.2063 70.5437 33.8248 65.7392C33.4801 61.4277 32.4531 53.5552 32.2403 51.9807C32.2183 51.7968 32.2037 51.7011 32.2037 51.7011C32.2037 51.7011 32.1816 51.7526 32.145 51.8483C31.8515 52.6576 30.4724 56.4909 29.5628 58.9556C28.5505 61.722 26.1664 67.9686 26.1664 67.9686C26.1664 67.9686 27.3108 70.1022 27.9783 72.6185C28.6458 75.1348 28.1984 78.0998 27.5675 80.8663C26.9293 83.6327 25.5649 90.0705 25.5649 90.0705C25.5208 90.0852 25.4842 90.1073 25.4475 90.122C25.4035 90.1441 25.3595 90.1514 25.3154 90.1661C25.3008 90.1661 25.2861 90.1735 25.2714 90.1808C24.6112 90.328 24.0831 89.916 24.0831 89.916C24.0831 89.916 24.0831 89.8792 24.0684 89.8203C23.995 89.1434 23.5402 84.854 23.1588 81.2856C22.7406 77.4009 21.6329 68.9618 21.6329 68.9618C21.6329 68.9618 22.1758 62.8477 22.8066 58.6981C22.946 57.7931 23.1588 56.638 23.4228 55.3872C23.7529 53.7833 24.1491 52.0249 24.5379 50.3915C24.7359 49.5675 24.9267 48.7728 25.11 48.0665C25.1247 47.9856 25.1467 47.9047 25.1687 47.8237C25.4108 46.882 25.6235 46.0726 25.7923 45.5208C25.8069 45.4767 25.8143 45.4399 25.8289 45.4031C25.939 45.0352 26.027 44.7924 26.0784 44.7041C26.0784 44.7041 27.142 45.484 30.7585 45.2045C35.1159 44.866 36.8398 42.7986 36.8398 42.7986C36.8398 42.7986 36.8178 42.7397 36.7811 42.6367C36.7958 42.622 36.8031 42.622 36.8031 42.622C36.8031 42.622 37.1259 43.0193 37.5954 43.6447L37.6687 43.7403C38.0942 44.3142 38.6224 45.0573 39.1212 45.8446C39.1432 45.8814 39.1725 45.9181 39.1946 45.9549C39.6567 46.6833 40.0822 47.4411 40.3903 48.1401C41.4393 50.5534 40.1995 56.2628 39.7521 59.3529C39.3119 62.4431 38.2262 68.2996 38.2262 68.2996C38.2262 68.2996 39.5613 70.5952 40.2289 73.0747L40.2436 73.0599Z" fill="#263B7F"/>
<path d="M40.2435 73.0599C40.9111 75.5468 40.7791 79.0122 40.0235 81.8521C39.2606 84.6848 38.1162 89.7835 38.1162 89.7835C38.0869 89.7982 38.0648 89.813 38.0355 89.8203C37.9622 89.8571 37.8888 89.8939 37.8228 89.916C37.8228 89.916 37.8228 89.916 37.8081 89.916C38.1602 87.6351 39.2239 80.285 38.9011 75.922C38.5197 70.6982 37.1846 69.8741 37.1846 69.8741L36.9938 70.5805C37.0452 70.3892 37.1259 70.0802 37.2506 69.6166C37.9475 67.0047 38.9011 57.5135 38.9011 57.5135C38.9011 57.5135 35.8495 51.5319 33.6488 49.2952C31.4481 47.0659 29.0566 47.9488 27.3254 49.8029C26.1517 51.061 24.4792 53.7465 23.4155 55.3652C23.7456 53.7612 24.1417 52.0028 24.5305 50.3694C24.7286 49.5454 24.9193 48.7508 25.1027 48.0444C25.1174 47.9635 25.1394 47.8826 25.1614 47.8016C25.4035 46.8599 25.6162 46.0506 25.7849 45.4988C25.7996 45.4546 25.8069 45.4178 25.8216 45.381C25.9316 45.0132 26.0197 44.7704 26.071 44.6821C26.071 44.6821 27.1347 45.462 30.7512 45.1824C35.1086 44.8439 36.8325 42.7765 36.8325 42.7765C36.8325 42.7765 36.8105 42.7176 36.7738 42.6146C36.7884 42.5999 36.7958 42.5999 36.7958 42.5999C36.7958 42.5999 37.1185 42.9972 37.588 43.6226L37.6614 43.7182C38.0869 44.2921 38.615 45.0352 39.1139 45.8225C39.1359 45.8593 39.1652 45.8961 39.1872 45.9328C39.6494 46.6612 40.0748 47.4191 40.3829 48.118C41.4319 50.5313 40.1922 56.2407 39.7447 59.3308C39.3046 62.421 38.2189 68.2776 38.2189 68.2776C38.2189 68.2776 39.554 70.5731 40.2215 73.0526L40.2435 73.0599Z" fill="#212A60"/>
<path d="M29.5775 58.9556C28.5651 61.722 26.181 67.9685 26.181 67.9685C26.181 67.9685 27.3254 70.1022 27.9929 72.6185C28.6605 75.1347 28.213 78.0998 27.5821 80.8662C26.9439 83.6327 25.5795 90.0705 25.5795 90.0705C25.5355 90.0852 25.4988 90.1073 25.4621 90.122C25.4181 90.144 25.3741 90.1514 25.3301 90.1661C25.3154 90.1661 25.3008 90.1735 25.2861 90.1808C25.8436 87.6204 27.0687 81.9993 26.9513 78.8061C26.7899 74.605 25.1247 68.2996 25.1247 68.2996C25.1247 68.2996 28.4918 59.8827 29.9589 55.8802C31.426 51.8703 32.1596 51.8703 32.1596 51.8703C31.8662 52.6797 30.4871 56.5056 29.5775 58.9777V58.9556Z" fill="#212A60"/>
<path d="M36.1576 33.6605L36.1209 33.5723C36.1209 33.7047 36.0989 33.8298 36.0696 33.9475C36.0696 33.9622 36.0696 33.9769 36.0549 33.9843C35.9595 34.3742 35.7248 34.6685 35.5561 34.8451C35.5487 34.8525 35.5414 34.8672 35.5267 34.8745C35.424 34.9775 35.3507 35.0364 35.3507 35.0364V35.0585C35.3507 35.2498 35.4093 36.7286 35.7321 38.6048C36.0255 40.2897 36.6051 42.0775 36.7885 42.6146C36.8251 42.7176 36.8471 42.7765 36.8471 42.7765C36.8471 42.7765 36.5537 43.1296 35.9008 43.5637C34.9765 44.1818 33.326 44.9837 30.7659 45.1824C30.2157 45.2265 29.7169 45.2413 29.2767 45.2413C26.8486 45.2413 26.093 44.6821 26.093 44.6821C26.3498 42.5926 25.6309 37.5527 25.4842 36.5226C25.4695 36.4343 25.4622 36.3755 25.4548 36.3534V36.3387V37.1554C25.4548 37.1554 25.4402 37.1554 25.4328 37.148C25.2127 37.0303 24.9193 36.9273 24.6112 36.8243C23.4375 36.449 21.9044 36.1768 21.9044 36.1768C21.9044 36.1768 21.9337 35.9487 21.9777 35.5735C21.9777 35.5367 21.985 35.4852 21.9924 35.4484C22.1391 34.2786 22.4545 31.9536 22.8287 30.4821C23.3348 28.4441 23.907 25.0376 24.89 24.4048C25.8289 23.7941 27.2887 23.2865 28.5872 23.1246C28.6458 23.1246 28.6972 23.1099 28.7485 23.1099C28.7485 23.1099 28.7485 23.1099 28.7632 23.1099C29.5995 23.0216 30.3551 22.9848 31.0299 22.9701C31.074 22.9701 31.118 22.9701 31.162 22.9701C34.2063 22.9333 35.6368 23.5293 36.1209 23.7941C36.1649 23.8162 36.2016 23.8383 36.2309 23.8604C36.2529 23.8751 36.2676 23.8824 36.2823 23.8898C36.5684 24.0811 37.2653 25.0964 38.2776 27.0388C38.9818 28.4073 39.7521 30.6808 40.1409 31.9168C40.1555 31.961 40.1702 31.9978 40.1849 32.0419C40.3243 32.4907 40.4049 32.7703 40.4049 32.7703C38.9011 32.8439 37.6834 33.381 37.0159 33.793C36.6564 34.0137 36.4583 34.1976 36.4583 34.2491L36.1649 33.6532L36.1576 33.6605Z" fill="#F79738"/>
<path d="M25.4255 37.1554C25.2054 37.0376 24.912 36.9346 24.6039 36.8316L24.7799 35.7206C24.7799 35.7206 25.3961 35.8899 25.4255 36.53C25.4255 36.6918 25.4328 36.9126 25.4328 37.1554H25.4255Z" fill="#E47D25"/>
<path d="M36.7884 42.6146C36.8251 42.7176 36.8471 42.7765 36.8471 42.7765C36.8471 42.7765 36.5537 43.1296 35.9008 43.5637C35.5414 42.5558 35.0205 40.8267 34.8445 38.9432C34.5731 35.9708 34.3823 35.4484 34.3823 35.4484C34.3823 35.4484 35.9815 33.7268 35.534 32.5349L37.0085 33.793C36.6491 34.0137 36.451 34.1976 36.451 34.2491L36.1576 33.6532L36.1209 33.5649C36.1209 33.6973 36.0989 33.8224 36.0695 33.9401C36.0695 33.9548 36.0695 33.9696 36.0549 33.9769C35.9595 34.3669 35.7248 34.6612 35.556 34.8377C35.5487 34.8451 35.5414 34.8598 35.5267 34.8672C35.424 34.9702 35.3506 35.029 35.3506 35.029V35.0511C35.3506 35.2424 35.4093 36.7213 35.7321 38.5974C36.0255 40.2823 36.605 42.0702 36.7884 42.6073V42.6146Z" fill="#E47D25"/>
<path d="M72.1171 28.7899C72.1171 28.7899 72.0291 28.7604 71.9043 28.7237C71.875 28.7237 71.853 28.7089 71.8237 28.6942C71.6403 28.6427 71.3835 28.5765 71.0754 28.5103C71.0387 28.5103 70.9874 28.4956 70.9434 28.4882C70.4445 28.3852 69.821 28.3116 69.1535 28.3116C68.6473 28.3116 68.1338 28.3337 67.6643 28.3705C66.6447 28.4441 65.8524 28.5691 65.8524 28.5691V28.628H65.8597L66.0945 30.254V30.3129C66.0945 30.3129 66.0798 30.3129 66.0431 30.3129C65.8891 30.3129 65.4563 30.3129 64.8474 30.3276C63.8278 30.3276 62.3239 30.3276 60.8055 30.3129C58.1426 30.2761 55.7585 29.9891 55.091 30.3276C54.7315 30.5042 53.9539 30.8941 53.2864 31.262C52.7802 31.5342 52.3401 31.7991 52.164 31.9536C52.142 31.9757 52.12 31.9977 52.1053 32.0125C52.0247 32.1228 51.8853 32.4098 51.8046 32.7409C51.6579 33.3294 51.7019 34.0505 52.6115 34.0726C52.6922 34.0726 52.7729 34.0726 52.8609 34.0726C52.8609 34.0726 52.8609 34.0726 52.8683 34.0726C53.1397 34.0652 53.4184 34.0284 53.7045 33.9843C53.7192 33.9843 53.7265 33.9843 53.7339 33.9769C54.6802 33.8224 55.5825 33.5134 55.8759 33.4177C55.9346 33.3957 55.9713 33.3883 55.9713 33.3883C55.9713 33.3883 56.0006 33.3883 56.0593 33.3883C56.2133 33.3883 56.5654 33.4104 56.9909 33.484C57.0569 33.4987 57.123 33.506 57.189 33.5207C57.5264 33.587 57.8932 33.6826 58.2453 33.8298C58.8322 34.0726 60.4974 34.9334 62.2726 35.7721C63.1455 36.1842 64.0478 36.5888 64.8621 36.9125C65.4123 37.1259 65.9258 37.3099 66.3586 37.4276C66.5566 37.4791 66.762 37.5379 66.9674 37.5968C66.8501 40.2087 66.74 42.5925 66.74 42.5925C66.74 42.5925 66.2192 42.7838 65.3536 43.034C63.7177 43.5122 60.8642 44.2112 58.0399 44.2774C54.5775 44.351 51.159 43.9169 49.9413 43.7403C49.6406 43.6962 49.4718 43.6667 49.4718 43.6667L49.061 39.9438L49.3105 38.0898C49.3618 37.6924 49.4278 37.2142 49.5085 36.633C49.9487 33.3221 51.7459 30.2025 51.7459 30.2025C51.7459 30.2025 50.9977 30.0112 48.6502 30.4895C47.6599 30.6955 46.7796 30.9383 46.0901 31.1516C45.1365 31.4533 44.5569 31.6961 44.5569 31.6961C44.4689 31.3576 44.3809 31.0118 44.3002 30.644C44.2928 30.6072 44.2855 30.563 44.2708 30.5189C43.5153 27.1271 43.2218 23.0069 43.9847 21.7635C43.9847 21.7635 43.9848 21.7635 43.9921 21.7487C44.8504 20.3508 46.6623 18.9014 50.11 17.8493C51.5478 17.4078 52.6482 17.062 53.5578 16.7972C54.8342 16.4146 55.7072 16.1938 56.5214 16.0982L59.3163 16.3116C59.3163 16.3116 60.6808 16.8119 62.2946 17.4152C63.637 17.9155 65.1555 18.4967 66.2045 18.9308C68.5226 19.8873 69.6303 21.3809 70.2978 23.1982C70.7526 24.4342 71.4275 26.5679 71.8163 27.8187C71.831 27.8702 71.8457 27.9217 71.8603 27.9658C71.9557 28.2748 72.0291 28.5103 72.0731 28.6501C72.1024 28.7384 72.1171 28.7899 72.1171 28.7899Z" fill="#F79738"/>
<path d="M62.2946 17.4078C57.9812 19.3502 54.7242 17.6065 53.5578 16.7898C54.8342 16.4072 55.7072 16.1865 56.5214 16.0908L59.3163 16.3042C59.3163 16.3042 60.6807 16.8045 62.2946 17.4078Z" fill="#E47D25"/>
<path d="M46.0901 31.1443C45.1365 31.4459 44.5569 31.6887 44.5569 31.6887C44.4689 31.3503 44.3809 31.0045 44.3002 30.6366C44.2928 30.5998 44.2855 30.5557 44.2708 30.5115C43.5153 27.1197 43.2218 22.9995 43.9847 21.7561C43.9847 21.7561 43.9848 21.7561 43.9921 21.7414C43.8821 24.0222 44.887 28.7604 46.0901 31.1443Z" fill="#E47D25"/>
<path d="M66.9748 37.5894C66.8574 40.2014 66.7473 42.5852 66.7473 42.5852C66.7473 42.5852 66.2265 42.7765 65.3609 43.0266C65.625 41.3933 66.0211 38.8549 66.0505 37.9867C66.0505 37.9867 64.9868 37.7734 64.1652 37.2657C64.1652 37.2657 62.5147 39.5245 57.8052 40.3706C53.103 41.2167 50.132 41.1284 50.132 41.1284L49.9486 43.733C49.6479 43.6888 49.4792 43.6594 49.4792 43.6594L49.0684 39.9365L49.3178 38.0824C53.0003 37.7439 60.7981 37.0376 60.9815 37.045C61.0769 37.045 61.627 36.4785 62.2873 35.7721C63.1602 36.1842 64.0625 36.5888 64.8768 36.9126C65.4269 37.1259 65.9404 37.3099 66.3732 37.4276C66.5713 37.4791 66.7767 37.5379 66.9821 37.5968L66.9748 37.5894Z" fill="#E47D25"/>
<path d="M64.8548 30.335C64.8694 29.6434 64.8768 28.8414 64.8768 27.9585C64.8621 24.9934 64.8768 23.0584 64.8768 23.0584L67.6717 28.3705C66.652 28.4441 65.8598 28.5692 65.8598 28.5692V28.628H65.8671L66.1018 30.254V30.3129C66.1018 30.3129 66.0872 30.3129 66.0505 30.3129C65.8964 30.3129 65.4636 30.3129 64.8548 30.3276V30.335Z" fill="#E47D25"/>
<path d="M51.0637 24.4563C51.2397 24.6255 53.0296 29.7684 53.3817 31.7182L50.9977 33.2927L52.0467 32.0198C52.0467 32.0198 52.0026 30.3644 51.7459 28.5103C51.4891 26.6562 51.071 24.4637 51.071 24.4637L51.0637 24.4563Z" fill="#E47D25"/>
<path d="M67.635 48.508C66.4906 47.397 65.3976 45.5503 64.708 44.2627C65.6103 44.042 66.3512 43.8286 66.9014 43.652C66.9014 43.6079 66.8867 43.5637 66.8794 43.5269C66.3292 43.7035 65.5663 43.9316 64.642 44.1523C64.4806 43.836 64.3339 43.5564 64.2239 43.343C64.1799 43.3504 64.1358 43.3651 64.0918 43.3724C64.2019 43.5932 64.3412 43.8654 64.5026 44.1818C63.2702 44.4761 61.7517 44.7704 60.0425 44.969C60.2113 44.4908 60.3286 44.1376 60.3506 44.0935C60.3066 44.0935 60.2553 44.1008 60.2113 44.1155C60.1599 44.2627 60.0499 44.5717 59.9105 44.9837C59.6244 45.0132 59.3236 45.0426 59.0229 45.072C56.9175 45.2486 54.9149 45.1897 53.2497 45.0499C53.4037 44.6747 53.5284 44.3583 53.6018 44.1376C53.5578 44.1376 53.5138 44.1303 53.4698 44.1303C53.3891 44.3583 53.2644 44.6747 53.1103 45.0426C52.2154 44.9617 51.4231 44.866 50.7776 44.763C50.7629 44.7336 50.7189 44.7262 50.6895 44.7409C50.6895 44.7409 50.6895 44.7409 50.6895 44.7483C50.1027 44.66 49.6405 44.5717 49.3324 44.5128C49.3324 44.5496 49.3178 44.6011 49.3104 44.6453C49.6259 44.7115 50.0733 44.7924 50.6309 44.8734C50.4034 45.3957 49.7212 47.4338 49.3691 49.9427C49.0537 50.1928 48.7603 50.4136 48.5108 50.5975C48.5108 50.6564 48.4962 50.7079 48.4962 50.7667C48.7382 50.5901 49.0317 50.3694 49.3471 50.1193C49.2517 50.8697 49.1784 51.6496 49.1564 52.4516C49.0684 56.3658 49.1197 68.6822 49.127 69.3003C48.9363 69.521 47.2418 71.6547 46.7209 76.0176C46.2515 79.9907 47.4618 88.9153 47.7993 91.2845L47.924 91.2624C47.5865 88.9006 46.3762 79.9907 46.8456 76.0324C47.3885 71.4781 49.2077 69.3885 49.2297 69.3665C49.2371 69.3591 49.2444 69.337 49.2444 69.3223C49.2444 69.1972 49.1784 56.4467 49.2738 52.4516C49.2958 51.5981 49.3691 50.7741 49.4718 50.0089C50.1174 49.4939 50.8362 48.8611 51.4158 48.199C52.1713 47.3308 52.7875 46.1021 53.191 45.1677C54.152 45.2486 55.223 45.3001 56.3527 45.3001C57.2183 45.3001 58.1206 45.2707 59.0302 45.1897C59.309 45.1677 59.5877 45.1382 59.8591 45.1088C59.6171 45.8004 59.309 46.7201 59.0302 47.5588C59.0155 47.5956 59.0302 47.6251 59.0669 47.6398C59.0669 47.6398 59.0816 47.6398 59.0889 47.6398C59.1182 47.6398 59.1402 47.6177 59.1476 47.5956C59.3383 47.0291 59.7198 45.9108 59.9985 45.0941C61.7591 44.8954 63.3069 44.5938 64.5686 44.2921C65.2802 45.6312 66.4392 47.5883 67.6643 48.7066C67.657 48.6404 67.6423 48.5668 67.6276 48.5006L67.635 48.508ZM51.3277 48.1107C50.7849 48.7287 50.1174 49.3246 49.5085 49.825C49.8899 47.2204 50.6088 45.2486 50.7556 44.8881C51.4011 44.9837 52.186 45.0794 53.0663 45.1603C52.6702 46.08 52.0686 47.2719 51.3277 48.118V48.1107Z" fill="#A6DDEB"/>
<path d="M69.5643 91.5273L69.4542 91.5935C69.4322 91.5273 69.4102 91.4537 69.3809 91.3727C67.7817 86.3844 66.7694 82.8601 66.3659 80.881C66.2412 80.2703 66.1018 79.667 65.9624 79.0784C65.2949 76.2016 64.6567 73.494 65.603 69.2782L60.2479 52.6502L60.2333 52.6061L59.4263 50.1045V50.0898C59.4263 50.0898 59.4263 50.0751 59.4263 50.0678L59.2503 50.1928L58.8688 50.4651C58.8688 50.4651 58.8468 50.4798 58.8321 50.4798H58.8175C58.8028 50.4798 58.7881 50.4724 58.7808 50.4577C58.7588 50.4283 58.7661 50.3915 58.7955 50.3694L60.2699 49.3173C60.2699 49.3173 60.336 49.3026 60.358 49.332C60.38 49.3614 60.3726 49.3982 60.3433 49.4203L59.4997 50.0236C59.4997 50.0236 59.5364 50.0383 59.5437 50.0604L65.7277 69.2635C65.7277 69.2635 65.7277 69.2855 65.7277 69.2929C64.7887 73.4867 65.4196 76.1942 66.0871 79.0563C66.2192 79.6375 66.3659 80.2482 66.4906 80.8589C66.8941 82.8307 67.9064 86.3623 69.5056 91.3433C69.5276 91.4169 69.5496 91.4831 69.5643 91.5346V91.5273Z" fill="#A6DDEB"/>
<path d="M2.45012 90.9313C1.70188 91.1667 0.32277 92.0349 0 94.1392H4.13732C4.13732 94.1392 4.57746 91.9172 4.92958 91.2035L2.45745 90.9313H2.45012Z" fill="#263B7F"/>
<path d="M64.3266 36.6918C63.8791 37.0008 59.265 39.5245 55.1277 40.0395C50.7776 40.5839 48.6209 40.6428 47.1611 38.8623C45.7013 37.0818 44.5643 31.6961 44.5643 31.6961C44.5643 31.6961 44.7917 31.3871 45.9434 30.9824C46.3982 30.8205 47.0071 30.6366 47.7993 30.46C50.5942 29.8199 51.9586 30.0406 51.9586 30.0406C51.988 30.5262 52.054 31.3061 52.1127 32.0272C51.8926 32.3288 51.1957 34.0505 52.6188 34.0873C54.0493 34.1167 55.9859 33.3883 55.9859 33.3883C55.9859 33.3883 57.1816 33.3883 58.2527 33.8298H58.26C58.9275 34.1093 60.9815 35.1762 63.0062 36.1032C63.4536 36.3092 63.9011 36.5079 64.3266 36.6845V36.6918Z" fill="#F1B5AB"/>
<path d="M73.5916 35.6323C73.5622 36.3902 73.3862 37.0156 72.9974 37.4276C71.6843 38.8034 69.2048 38.1928 66.9674 37.5968C66.762 37.5379 66.564 37.4864 66.3586 37.4276C65.7864 37.2731 65.0748 37.0156 64.3193 36.6918C61.9425 35.6986 59.0669 34.1756 58.2526 33.8371C58.2526 33.8371 58.2526 33.8371 58.2453 33.8371C57.1743 33.3957 55.9786 33.3957 55.9786 33.3957C55.9786 33.3957 54.042 34.1167 52.6115 34.0946C52.2374 34.0873 52.01 33.9548 51.8779 33.7709C51.5185 33.2485 51.944 32.2626 52.1053 32.0345C52.3254 31.7329 54.4234 30.6808 55.091 30.3497C55.7585 30.0112 58.1426 30.2982 60.8055 30.335C63.4683 30.3644 66.1018 30.335 66.1018 30.335L66.0871 30.2467L65.8451 28.5839C65.8451 28.5839 66.5566 28.4809 67.4956 28.3999C68.0018 28.3558 68.5739 28.3264 69.1461 28.3264C70.716 28.3264 72.0291 28.7752 72.1024 28.7972C72.77 30.85 73.6576 33.6753 73.5769 35.6397L73.5916 35.6323Z" fill="#F1B5AB"/>
<path d="M24.0831 89.9013C24.0831 89.9013 24.083 89.8645 24.0757 89.8056C23.7823 89.8056 23.4595 89.8277 23.1294 89.9013C21.8603 90.1882 19.799 91.9908 19.799 91.9908H25.5795C25.5795 91.9908 25.5355 90.2618 25.5795 90.0631C24.7873 90.4457 24.0904 89.9013 24.0904 89.9013H24.0831Z" fill="#D64E27"/>
<path d="M36.9425 89.8056L36.0182 92.2924C36.0182 92.2924 37.4486 92.3587 38.8718 92.3071C38.8718 92.3071 38.527 90.7694 38.1162 89.7762C38.1162 89.7762 38.0869 89.7909 38.0355 89.8203C37.1552 90.2838 36.9425 89.8056 36.9425 89.8056Z" fill="#D64E27"/>
<path d="M51.6065 7.718C50.983 8.02702 51.3424 11.0289 53.3818 10.6978C53.0663 9.57945 52.5235 8.5494 52.0687 7.73272C51.922 7.65915 51.7679 7.64443 51.5992 7.72536L51.6065 7.718Z" fill="#F1B5AB"/>
<path d="M54.3354 7.26921C54.174 6.95283 54.7462 6.4746 55.8612 6.31273C56.9762 6.15087 57.387 6.57024 57.387 6.57024C57.387 6.57024 57.4751 6.82776 56.3674 6.9234C55.2597 7.01905 54.3427 7.27656 54.3427 7.27656L54.3354 7.26921Z" fill="#441211"/>
<path d="M60.0792 6.40837C59.8078 6.23179 60.8715 5.51811 61.9205 5.64319V6.1435C61.9205 6.1435 60.4314 6.62909 60.0792 6.40837Z" fill="#441211"/>
<path d="M47.0951 91.4022C47.0951 91.4022 48.7163 90.534 50.2054 90.6002C51.7019 90.6664 52.2667 92.0717 52.2667 92.0717L47.0951 92.0938V91.4022Z" fill="#D64E27"/>
<path d="M69.3515 91.6523C69.3515 91.6523 70.5252 90.2838 72.1171 90.3133C73.7016 90.3427 75.0073 92.0055 75.0073 92.0055C75.0073 92.0055 69.799 92.1232 69.3589 92.0791V91.6523H69.3515Z" fill="#D64E27"/>
<path d="M62.3606 10.043C62.8961 11.3894 63.1896 12.9345 61.6637 14.2073C61.5244 14.325 61.3703 14.4354 61.2089 14.5311C60.7394 14.8254 60.1966 15.0461 59.6171 15.2079C58.5901 15.4875 57.4824 15.5537 56.6094 15.3992C56.5434 15.3845 56.4701 15.3772 56.4041 15.3624C56.3234 15.3404 56.25 15.3257 56.1693 15.2962C56.0446 15.2594 55.9199 15.2153 55.8099 15.1638C54.4161 14.5237 53.8732 13.0301 53.4918 11.1981C53.4551 11.0289 53.4111 10.8597 53.3671 10.6904C53.0516 9.5721 52.5088 8.54205 52.054 7.72537C51.8486 7.35013 51.6652 7.0264 51.5258 6.76153C51.0343 5.81978 51.1737 4.09076 52.6262 2.37647C52.6262 2.37647 52.6262 2.37647 52.6262 2.36911C54.1153 0.647455 55.6705 0.117715 57.2256 0.0147102C58.6561 -0.0809373 61.0329 0.42673 62.1479 1.16248C62.368 1.30963 62.522 1.53035 62.632 1.80258C63.0648 2.89149 62.6834 4.7603 62.522 5.52548C62.4266 6.00371 62.2873 6.59231 62.1699 7.05583C62.0525 7.51936 61.9718 7.87252 61.9718 7.87252C61.6124 6.77625 61.7444 4.37035 61.6784 3.89211C61.6051 3.41387 60.4754 3.96569 59.7345 4.37771C59.0009 4.78973 57.1376 4.78973 56.1473 4.53221C55.1643 4.2747 54.6875 4.14962 54.1447 4.62786C53.6532 5.06195 53.0296 6.20236 53.0883 7.65915C53.0883 7.8063 53.103 7.94609 53.125 8.1006C53.3451 9.75604 54.1373 10.8376 55.157 12.7873C55.6998 13.8174 56.316 14.2073 56.7708 14.3398C57.167 14.4501 57.4384 14.3765 57.4384 14.3765C57.4384 14.3765 58.1059 13.3906 59.375 12.9124C60.6441 12.4342 61.473 13.295 61.473 13.295C62.1699 12.7505 62.3606 10.0503 62.3606 10.0503V10.043Z" fill="#591813"/>
<path d="M29.9589 29.0253V30.1069L34.1769 29.5698V28.4514L29.9589 29.0253Z" fill="#263B7F"/>
<path d="M59.5731 25.3907L59.8592 26.9799C59.8592 26.9799 63.3509 26.0897 64.5613 26.1853L64.0185 24.6918C64.0185 24.6918 62.2726 24.6623 59.5731 25.3907Z" fill="#D64E27"/>
<path d="M40.0308 91.0122C39.8548 91.0122 39.708 90.9902 39.6053 90.9681C39.0038 90.8357 38.571 90.4163 38.4096 89.7982C38.1089 88.621 38.8644 86.87 40.1775 85.7222C41.0872 84.9276 42.0481 84.4641 43.1998 84.2213C43.9334 80.4689 44.3882 74.0606 44.1535 70.0066C43.8307 64.4737 41.7034 58.3229 38.4536 53.5479C34.9105 48.3387 30.9566 46.8893 28.6092 47.7649C26.9586 48.3755 24.2371 52.2603 21.3248 58.1536C19.799 61.2364 13.7911 73.5676 12.2359 77.5259C10.6954 81.4254 7.15963 90.3427 7.12295 90.431C6.99091 90.7621 6.62412 90.9166 6.30135 90.7841C5.97858 90.6517 5.8172 90.2838 5.94924 89.9601C5.98592 89.8718 9.52172 80.9619 11.0622 77.0551C12.6394 73.0599 18.6693 60.6773 20.1951 57.5871C22.4178 53.0843 25.6015 47.5221 28.1764 46.5656C29.7095 45.9991 31.6095 46.2198 33.5314 47.1836C35.6587 48.2578 37.7274 50.2076 39.51 52.8268C42.8844 57.7858 45.0924 64.1794 45.4299 69.933C45.6646 73.9134 45.2391 80.1231 44.5349 84.0373C45.5766 83.9564 46.7723 83.9858 48.2028 84.0741C48.5549 84.0962 48.819 84.3978 48.797 84.751C48.7749 85.1042 48.4815 85.3617 48.1221 85.347C46.4862 85.244 45.2538 85.2366 44.2708 85.347C44.2048 85.6192 44.1461 85.8693 44.0801 86.1048C42.8477 90.4016 41.0065 91.0196 40.0528 91.0196L40.0308 91.0122ZM42.8771 85.6192C42.1582 85.8473 41.5786 86.2004 41.0138 86.686C39.8988 87.6572 39.5026 88.9301 39.642 89.4819C39.686 89.6511 39.7594 89.7026 39.8694 89.7247C40.7277 89.9086 41.9821 88.7535 42.8404 85.7443C42.8477 85.7001 42.8624 85.6633 42.8771 85.6192Z" fill="#B15026"/>
<path d="M6.02994 89.732C5.50177 89.938 2.054 90.7106 2.08335 91.3212C2.11269 91.9393 6.7415 90.8062 6.7415 90.8062L6.02994 89.732Z" fill="#AB463E"/>
<path d="M62.9621 77.3199L62.5807 81.3371L62.2873 84.4567L61.7004 90.6885C61.7004 91.6229 58.7588 92.3734 55.135 92.3734C54.7462 92.3734 54.3647 92.3734 53.9979 92.3439C50.917 92.2041 48.5769 91.5125 48.5769 90.6811C48.5769 90.6811 48.2541 87.6425 47.9167 84.4641C47.902 84.3316 47.8873 84.2065 47.88 84.0741C47.7846 83.1544 47.6819 82.2274 47.5866 81.3739C47.3445 79.1667 47.1538 77.4229 47.1317 77.3788C47.3151 77.8497 48.4008 78.269 50.0293 78.5486C51.3938 78.7841 53.1323 78.9312 55.0323 78.9312C59.3163 78.9312 62.8154 78.2102 62.9695 77.3052L62.9621 77.3199Z" fill="#A6DDEB"/>
<path d="M53.9979 92.3587C50.917 92.2189 48.5769 91.5273 48.5769 90.6959C48.5769 90.6959 48.2541 87.6572 47.9167 84.4788C47.902 84.3463 47.8873 84.2213 47.88 84.0888C47.7846 83.1691 47.6819 82.2421 47.5866 81.3886C47.3445 79.1814 47.1538 77.4377 47.1317 77.3935C47.3151 77.8644 48.4008 78.2838 50.0293 78.5633C50.9096 82.9705 52.3841 89.5113 54.0053 92.3587H53.9979Z" fill="#66C8CE"/>
<path d="M62.9695 77.2537C62.9695 78.1881 59.4117 78.9386 55.0323 78.9386C53.103 78.9386 51.3351 78.7914 49.956 78.5486C48.3715 78.2691 47.3078 77.857 47.1244 77.3935C47.1097 77.3494 47.0951 77.2979 47.0951 77.2537C47.0951 76.6651 48.5035 76.1501 50.6529 75.8484C51.9073 75.6719 53.4111 75.5688 55.0323 75.5688C59.419 75.5688 62.9695 76.3267 62.9695 77.2537Z" fill="#E69548"/>
<path d="M62.588 81.3371L62.2946 84.4567C61.1796 84.7363 58.9275 85.1483 54.8782 85.3102C53.5725 85.3617 52.4648 85.3323 51.5332 85.2513C49.7726 85.0968 48.6356 84.7731 47.924 84.4714C47.9093 84.339 47.8947 84.2139 47.8873 84.0815C47.792 83.1618 47.6893 82.2347 47.5939 81.3813C48.2541 81.6535 49.2958 81.9772 50.8069 82.1832C51.944 82.3451 53.3451 82.4408 55.0543 82.404C58.9789 82.323 61.3556 81.7492 62.5954 81.3298L62.588 81.3371Z" fill="#A3D6B7"/>
<path d="M57.7538 91.6523C57.7538 89.8056 59.2503 88.3047 61.0915 88.3047C62.9328 88.3047 64.4293 89.8056 64.4293 91.6523C64.4293 93.4991 62.9328 95 61.0915 95C59.2503 95 57.7538 93.4991 57.7538 91.6523Z" fill="#703E3E"/>
<path d="M61.0989 94.2422C59.6758 94.2422 58.524 93.0797 58.524 91.6523C58.524 90.225 59.6831 89.0699 61.0989 89.0699C62.5147 89.0699 63.6737 90.2323 63.6737 91.6523C63.6737 93.0723 62.5147 94.2422 61.0989 94.2422Z" fill="#E78234"/>
<path d="M47.9533 92.3292C47.9533 91.3727 48.7309 90.5928 49.6846 90.5928C50.6382 90.5928 51.4158 91.3727 51.4158 92.3292C51.4158 93.2857 50.6382 94.0656 49.6846 94.0656C48.7309 94.0656 47.9533 93.2857 47.9533 92.3292Z" fill="#703E3E"/>
<path d="M49.6846 93.3004C49.1491 93.3004 48.7162 92.8663 48.7162 92.3292C48.7162 91.7921 49.1491 91.358 49.6846 91.358C50.2201 91.358 50.6529 91.7921 50.6529 92.3292C50.6529 92.8663 50.2201 93.3004 49.6846 93.3004Z" fill="#E78234"/>
<path d="M36.2236 23.8677C35.4387 25.3319 34.9765 28.5839 34.9765 28.6207C34.9765 28.6574 34.9398 28.6795 34.9105 28.6795H34.9032C34.9032 28.6795 34.8445 28.6427 34.8445 28.6059C34.8665 28.4514 35.314 25.2804 36.1136 23.8015C36.1576 23.8236 36.1942 23.8456 36.2236 23.8677Z" fill="#601112"/>
<path d="M29.0053 26.384L28.9833 27.208V27.3552L28.8219 32.9689C28.8219 33.0057 28.7926 33.0278 28.7559 33.0278C28.7559 33.0278 28.6899 32.9984 28.6972 32.9616L28.8806 26.4061L26.9733 25.0891C26.9733 25.0891 26.944 25.0596 26.944 25.0449C26.944 25.0228 26.944 25.0081 26.9586 24.9934C27.4868 24.4048 28.2864 23.5072 28.5798 23.1246C28.6385 23.1246 28.6899 23.1099 28.7412 23.1099C28.4845 23.4778 27.6555 24.4122 27.098 25.0302L28.976 26.3251C28.976 26.3251 29.0053 26.3546 29.0053 26.384Z" fill="#601112"/>
<path d="M28.9393 27.3699C28.9393 27.3699 28.8953 27.3552 28.8879 27.3404C28.8733 27.311 28.8879 27.2742 28.9099 27.2522L31.9909 25.4937L31.0299 22.9922C31.0299 22.9922 31.0299 22.9259 31.0666 22.9112C31.096 22.8965 31.1326 22.9112 31.1473 22.948L32.1303 25.4937C32.1303 25.4937 32.1303 25.5599 32.101 25.5746L28.976 27.3552C28.976 27.3552 28.9539 27.3552 28.9466 27.3552L28.9393 27.3699Z" fill="#601112"/>
<path d="M39.7007 76.5253C39.3999 73.3395 37.6174 70.1684 37.4633 69.8962C37.4927 69.6313 37.7788 66.8134 37.9915 62.8109C38.0649 61.3983 38.2556 59.8679 38.4316 58.3817C38.7911 55.4167 39.1652 52.3559 38.659 50.1193C38.2923 48.5227 37.8154 47.1174 37.4046 46.08C37.588 46.1021 37.7788 46.1168 37.9768 46.1168C38.373 46.1168 38.7911 46.0653 39.2166 45.9402C39.1946 45.9034 39.1725 45.8593 39.1432 45.8298C38.505 46.0138 37.8961 46.0285 37.3533 45.9476C37.0085 45.1014 36.7224 44.5276 36.5977 44.3363C37.0232 44.1229 37.39 43.9095 37.6907 43.7182L37.6174 43.6226C36.5317 44.2995 34.5437 45.3001 31.8662 45.69C28.8439 46.1241 26.7752 45.6827 25.8509 45.3957C25.8363 45.4325 25.8216 45.4767 25.8143 45.5135C26.0637 45.5944 26.4011 45.6753 26.8119 45.7636C26.6725 45.9843 25.961 47.0585 25.1907 47.8237C25.1687 47.9047 25.1541 47.9782 25.132 48.0665C26.0417 47.2204 26.8999 45.8666 26.944 45.7931C27.5968 45.9108 28.4184 46.0064 29.4088 46.0064C30.1423 46.0064 30.9713 45.9549 31.8882 45.8225C33.0032 45.6606 34.0009 45.3957 34.8665 45.0867C35.0279 45.2044 35.9742 45.8666 37.2653 46.0653C37.6761 47.0953 38.1749 48.53 38.549 50.156C39.0552 52.3707 38.6811 55.424 38.3216 58.3744C38.1382 59.8606 37.9548 61.3909 37.8815 62.8109C37.6614 66.99 37.3533 69.8815 37.3533 69.9036C37.3533 69.9183 37.3533 69.933 37.3606 69.9404C37.3826 69.9698 39.2826 73.2439 39.598 76.5327C39.8768 79.4757 38.1089 88.0766 37.7054 89.9601C37.7494 89.9454 37.7934 89.9307 37.8448 89.9086C38.2776 87.8706 39.9941 79.4315 39.7227 76.518L39.7007 76.5253ZM34.9985 45.0279C35.5487 44.8219 36.0475 44.6085 36.4803 44.3951C36.561 44.5202 36.8471 45.072 37.1919 45.9255C36.0989 45.7415 35.2626 45.2192 34.9985 45.0279Z" fill="#A6DDEB"/>
<path d="M32.3064 51.9071C32.3064 51.9071 32.2843 51.9733 32.2477 51.9807C32.2183 51.9807 32.1816 51.9586 32.1743 51.9292C32.1743 51.9071 32.167 51.8851 32.1523 51.8556C32.0863 51.657 31.8735 51.245 31.7415 50.9948C31.4041 51.8924 29.4014 57.2119 28.3964 60.4418C27.7656 62.4799 26.8926 64.7975 26.3204 66.3278C25.9537 67.299 25.6456 68.1378 25.6309 68.2628C25.983 68.6749 27.2447 72.1476 27.3988 75.2893C27.5455 78.247 25.9757 87.2158 25.4548 90.1146C25.4108 90.1367 25.3668 90.144 25.3228 90.1588C25.8363 87.3335 27.4208 78.2617 27.2741 75.2966C27.1054 71.8974 25.7556 68.5645 25.5502 68.3438C25.5355 68.3438 25.5282 68.3291 25.5208 68.3143C25.4768 68.2481 25.5208 68.1083 26.2031 66.2763C26.7752 64.746 27.6409 62.4283 28.2791 60.3977C29.3794 56.8734 31.6535 50.8697 31.6755 50.8109C31.6828 50.7888 31.7048 50.7741 31.7268 50.7741C31.7562 50.7741 31.7782 50.7814 31.7855 50.8035C31.8369 50.8918 32.2697 51.6791 32.299 51.9071H32.3064Z" fill="#A6DDEB"/>
<path d="M58.0693 25.6409C58.0693 25.6409 58.0179 25.6262 58.0106 25.5967C57.343 23.5734 56.3234 20.5201 56.2133 20.3361C56.1913 20.314 56.1913 20.2846 56.206 20.2625C56.2207 20.2331 56.2573 20.2184 56.294 20.2331C56.3234 20.2478 56.4041 20.292 58.0546 25.3024L58.7808 20.4759C58.7808 20.4759 58.8175 20.4171 58.8542 20.4244C58.8909 20.4244 58.9129 20.4612 58.9055 20.498L58.1426 25.582C58.1426 25.582 58.1133 25.6335 58.0839 25.6335L58.0693 25.6409Z" fill="#601112"/>
<path d="M58.0693 25.6409C58.0693 25.6409 58.0106 25.6188 58.0032 25.582L57.4751 21.0645C57.4751 21.0645 57.4971 20.9983 57.5338 20.9909C57.5704 20.9909 57.5998 21.013 57.6071 21.0498L58.1279 25.5673C58.1279 25.5673 58.1059 25.6335 58.0693 25.6409Z" fill="#601112"/>
<path d="M66.1092 30.3865C66.1092 30.3865 66.0505 30.357 66.0432 30.3276C66.0432 30.2908 66.0652 30.2614 66.1018 30.2614C66.1092 30.2614 67.1875 30.2099 67.7817 30.1216C67.8184 30.1216 67.8477 30.1437 67.8551 30.1731C67.8551 30.2099 67.8331 30.2393 67.8037 30.2467C67.2095 30.335 66.1238 30.3865 66.1165 30.3865H66.1092Z" fill="#601112"/>
<path d="M51.9073 8.38754C51.9073 8.38754 51.8413 8.37283 51.8193 8.40226C51.7972 8.43169 51.8046 8.46848 51.8339 8.49055C51.8339 8.49055 52.0907 8.68184 52.3327 8.99822C52.3327 8.99822 52.3181 8.99822 52.3107 9.00557C52.2374 9.09386 51.9953 9.41024 52.12 9.56474C52.1714 9.6236 52.2594 9.64568 52.3621 9.64568C52.4721 9.64568 52.5968 9.6236 52.6702 9.60153C52.7142 9.71925 52.7509 9.84433 52.7656 9.97676C52.7656 10.0062 52.7949 10.0283 52.8242 10.0283H52.8316C52.8316 10.0283 52.8903 9.99148 52.8829 9.95469C52.7509 9.00557 51.9366 8.40962 51.9073 8.38019V8.38754ZM52.2154 9.48381C52.1787 9.43231 52.2814 9.24101 52.3988 9.09386C52.4795 9.21158 52.5528 9.33666 52.6188 9.47645C52.4575 9.51324 52.2594 9.53531 52.2154 9.47645V9.48381Z" fill="#983222"/>
<path d="M59.7785 10.8008C59.4924 10.8008 59.1549 10.7346 58.7955 10.5286C58.7661 10.5065 58.7515 10.4697 58.7735 10.4403C58.7881 10.4109 58.8322 10.3961 58.8615 10.4182C59.5951 10.8376 60.2406 10.6242 60.446 10.5359C60.292 10.3446 59.8371 9.73397 59.5657 8.94672C59.2356 7.98288 59.5511 6.61439 59.5657 6.55553C59.5731 6.51874 59.6097 6.49667 59.6391 6.51138C59.6758 6.51874 59.6904 6.55553 59.6831 6.58496C59.6831 6.59967 59.3603 7.97553 59.6831 8.90257C60.0059 9.83697 60.5854 10.5065 60.5927 10.5139C60.6074 10.5286 60.6074 10.5506 60.6074 10.5654C60.6074 10.5874 60.5927 10.6022 60.5781 10.6095C60.556 10.6242 60.2406 10.7934 59.7785 10.7934V10.8008Z" fill="#983222"/>
<path d="M56.9689 11.073C57.0349 11.073 58.3407 11.4777 59.4043 11.2864C60.4607 11.0951 60.9815 11.073 60.9815 11.073C60.9815 11.073 60.446 12.6402 59.2136 12.7064C57.9886 12.7726 56.9689 11.073 56.9689 11.073Z" fill="white"/>
<path d="M56.2647 8.21096C56.2867 8.65977 56.1913 9.02029 56.0446 9.02765C55.8979 9.035 55.7585 8.68184 55.7365 8.24039C55.7145 7.79894 55.8099 7.43107 55.9566 7.42371C56.1033 7.41635 56.2427 7.76951 56.2647 8.21096Z" fill="#601112"/>
<path d="M60.5707 7.64443C60.5927 8.08588 60.4974 8.45375 60.3506 8.46111C60.2039 8.46111 60.0646 8.11531 60.0425 7.67386C60.0205 7.23241 60.1159 6.86454 60.2626 6.85718C60.4093 6.85718 60.5487 7.20298 60.5707 7.64443Z" fill="#601112"/>
<path d="M47.792 30.5115C47.792 30.5115 47.7333 30.4895 47.7333 30.46C47.7333 30.4232 47.7479 30.3938 47.7846 30.3865C50.7116 29.7537 51.9146 29.9303 51.9586 29.9303C51.9953 29.9303 52.0173 29.9671 52.01 30.0039C52.01 30.0407 51.9733 30.0627 51.9366 30.0554C51.922 30.0554 50.7042 29.8788 47.8066 30.5115C47.8066 30.5115 47.7993 30.5115 47.792 30.5115Z" fill="#601112"/>
<path d="M51.8119 28.9959C51.8119 28.9959 51.8119 29.0106 51.8046 29.018C51.7899 29.04 51.7679 29.0547 51.7386 29.0474C51.7019 29.0474 48.0561 28.4661 44.3002 30.6366C44.2929 30.5998 44.2855 30.5557 44.2708 30.5115C48.0487 28.3337 51.7166 28.915 51.7532 28.915C51.7679 28.915 51.7826 28.9297 51.7899 28.937C51.8046 28.9517 51.8119 28.9665 51.8046 28.9885L51.8119 28.9959Z" fill="#601112"/>
<path d="M71.8677 27.9585C69.5276 27.0388 66.2265 27.6421 65.735 27.7378C65.6983 27.7451 65.6763 27.7525 65.669 27.7525C65.6397 27.7525 65.603 27.7378 65.5956 27.7083V27.6936C65.5956 27.6642 65.6176 27.6421 65.647 27.6347C65.647 27.6347 65.669 27.6347 65.713 27.62C66.2045 27.5244 69.4615 26.9358 71.831 27.8187C71.8456 27.8702 71.8603 27.9217 71.875 27.9658L71.8677 27.9585Z" fill="#601112"/>
<path d="M25.4915 36.5153C25.4915 36.5153 25.4768 36.53 25.4695 36.53C25.4622 36.53 25.4475 36.53 25.4402 36.53C25.4328 36.53 25.4181 36.53 25.4108 36.5226C24.2518 35.8972 22.6526 35.6544 21.963 35.5735C21.963 35.5367 21.9704 35.4852 21.9777 35.4484C22.6306 35.5294 24.1124 35.7501 25.2568 36.3019L25.2054 36.2283C24.9927 36.0959 22.3665 34.3595 23.4228 30.2761C23.4302 30.2467 23.4669 30.2246 23.4962 30.232C23.5329 30.2393 23.5549 30.2761 23.5402 30.3129C22.4692 34.4478 25.2494 36.118 25.2788 36.1327C25.2861 36.1327 25.2934 36.1474 25.3008 36.1547L25.4328 36.3607L25.4842 36.4417C25.4988 36.4638 25.4988 36.4932 25.4842 36.5153H25.4915Z" fill="#601112"/>
<path d="M40.1775 32.0493C37.8668 31.9683 36.2823 33.4987 36.1722 33.609C36.1722 33.6311 36.1649 33.6458 36.1576 33.6605C36.1356 33.7635 36.0989 33.8592 36.0695 33.9475C36.0695 33.9622 36.0695 33.9769 36.0549 33.9843C35.9302 34.3227 35.7688 34.6097 35.556 34.8451C35.5487 34.8525 35.5414 34.8672 35.5267 34.8745C35.4754 34.9407 35.4093 34.9996 35.3506 35.0585C35.2259 35.1688 35.0939 35.2645 34.9545 35.3454C34.4557 35.6324 33.9055 35.7133 33.4434 35.7133C32.8565 35.7133 32.4164 35.5808 32.3797 35.5735C32.3504 35.5735 32.3283 35.5293 32.3357 35.4926C32.343 35.4631 32.3797 35.4411 32.4164 35.4558C32.431 35.4558 33.8102 35.8531 34.8885 35.235C35.4607 34.904 35.8495 34.3521 36.0475 33.5796L34.6391 30.7323C34.6391 30.7323 34.6391 30.666 34.6684 30.6513C34.6978 30.6366 34.7344 30.6513 34.7491 30.6808L36.1209 33.4692C36.4363 33.1749 37.9695 31.858 40.1262 31.9242C40.1408 31.9683 40.1555 32.0051 40.1702 32.0493H40.1775Z" fill="#601112"/>
<path d="M57.5411 21.0572C57.5411 21.0572 57.4677 20.9836 57.3944 20.9394C56.7488 20.4906 54.4601 19.4017 54.4601 19.4017C54.4601 19.4017 54.7535 18.6807 55.0983 17.8493C55.5824 16.6868 56.1546 15.2962 56.1766 15.2962H56.184C56.2573 15.3183 56.338 15.3404 56.4187 15.3625C56.4847 15.3772 56.5508 15.3919 56.6241 15.3992C56.6241 15.7818 56.6168 17.1724 56.9175 18.2981C56.9175 18.3128 56.9175 18.3202 56.9249 18.3349C57.2917 19.6592 57.5484 21.0572 57.5484 21.0572H57.5411Z" fill="#2B91BE"/>
<path d="M61.6051 19.3061C60.5781 19.7181 57.7612 20.9615 57.5558 21.0572C57.7098 20.9615 58.2013 19.6813 58.6708 18.2907C59.0522 17.165 59.4264 15.9658 59.6171 15.2521V15.2227L59.9178 15.1344L61.0182 17.864L61.6051 19.3134V19.3061Z" fill="#2B91BE"/>
<path d="M61.2163 14.5384C60.7468 14.8327 60.2039 15.0534 59.6244 15.2153C58.5974 15.4949 57.4897 15.5611 56.6168 15.4066C56.5508 15.3919 56.4774 15.3845 56.4114 15.3698C56.3307 15.3477 56.2574 15.333 56.1767 15.3036C56.052 15.2668 55.9272 15.2227 55.8172 15.1712C54.4234 14.531 53.8806 13.0375 53.4991 11.2055C53.4625 11.0362 53.4184 10.867 53.3744 10.6978C53.059 9.57945 52.5162 8.5494 52.0613 7.73272C51.8559 7.35749 51.6726 7.03376 51.5332 6.76889C51.0417 5.82713 51.1811 4.09812 52.6335 2.38382C52.3034 3.89946 52.3694 5.73884 53.081 7.6665C53.081 7.81365 53.0957 7.95345 53.1177 8.10795C53.3378 9.76339 54.13 10.8449 55.1497 12.7947C55.6925 13.8247 56.3087 14.2147 56.7635 14.3471C57.5851 14.7812 59.2797 15.1049 61.2016 14.5531L61.2163 14.5384Z" fill="#441211"/>
<path d="M62.5147 5.51812C62.4193 5.99636 62.2799 6.58496 62.1626 7.04848C62.0452 7.512 61.9645 7.86516 61.9645 7.86516C61.6051 6.7689 61.7371 4.36299 61.6711 3.88476C62.0525 3.30351 62.3973 2.58248 62.6247 1.79523C63.0575 2.88414 62.6761 4.75294 62.5147 5.51812Z" fill="#441211"/>
<path d="M56.9102 18.2981C56.1253 18.2245 55.5384 18.0479 55.0983 17.8493C55.5825 16.6868 56.1546 15.2962 56.1766 15.2962H56.184C56.2573 15.3183 56.338 15.3404 56.4187 15.3625C56.4847 15.3772 56.5508 15.3919 56.6241 15.3992C56.6241 15.7818 56.6168 17.1724 56.9175 18.2981H56.9102Z" fill="#0A4E8D"/>
<path d="M61.0182 17.8566C60.1379 18.0847 59.3603 18.2172 58.6708 18.2834C59.0522 17.1577 59.4263 15.9584 59.6171 15.2447V15.2153L59.9178 15.127L61.0182 17.8566Z" fill="#0A4E8D"/>
<path d="M49.956 78.556C48.3715 78.2764 47.3078 77.8644 47.1244 77.4009C47.1097 77.3567 47.0951 77.3052 47.0951 77.2611C47.0951 76.6725 48.5035 76.1574 50.6529 75.8558C49.9193 76.7828 49.8606 77.7982 49.956 78.556Z" fill="#D2833B"/>
<path d="M49.1931 77.1581C49.1491 77.1581 49.0977 77.1507 49.0464 77.1286C48.8483 77.0477 48.7603 76.827 48.8336 76.6283L50.1687 73.3469C50.2201 73.2071 50.3521 73.1188 50.4988 73.1114L59.0669 72.6332C59.2356 72.6332 59.4043 72.7362 59.4557 72.9054L60.5047 76.3487C60.5634 76.5474 60.4533 76.7608 60.2553 76.827C60.0572 76.8932 59.8445 76.7755 59.7785 76.5768L58.8175 73.4205L50.7849 73.8693L49.5452 76.9226C49.4865 77.0698 49.3398 77.1581 49.1931 77.1581Z" fill="#D45927"/>
<path d="M41.7694 37.2731C41.7253 37.4791 41.3732 38.2663 40.7717 39.2522C40.0601 40.4221 39.0111 41.8568 37.7347 42.9163C35.3873 44.8587 31.4187 46.3817 31.4187 46.3817C31.294 47.2719 30.5311 48.4197 30.179 48.3903C30.157 48.3903 30.1423 48.3903 30.1203 48.3755C29.8489 48.2725 30.0469 47.6251 30.0469 47.6251C30.0469 47.6251 29.3794 48.8979 28.9979 48.8391C28.6385 48.7802 29.196 47.6472 29.2473 47.5368C28.7999 48.1475 28.015 49.0304 27.7582 48.8023C27.5015 48.5742 28.8072 46.4111 28.8072 46.4111C28.8072 46.4111 27.8536 47.0512 27.6628 46.9188C27.4721 46.7937 28.0443 46.1904 28.6165 45.6165C29.1887 45.0426 30.4284 44.9175 30.7145 44.8807C31.0006 44.8513 32.2403 43.5122 33.8615 41.6655C33.8835 41.6361 33.9128 41.6066 33.9348 41.5846C35.5414 39.7305 37.7274 36.8316 37.7274 36.8316C37.5733 36.6109 36.3996 34.1609 36.3996 34.1609C36.3996 34.1609 36.539 34.0284 36.9131 33.8151C37.2212 33.6385 37.676 33.403 38.3363 33.1455C39.7961 32.5716 40.3976 32.7924 40.3976 32.7924C40.7204 33.175 41.8574 36.839 41.762 37.2804L41.7694 37.2731Z" fill="#F1B5AB"/>
<path d="M38.1822 37.0156C38.1822 37.0156 35.8274 39.8703 33.9422 41.5772C35.5487 39.7231 37.7347 36.8243 37.7347 36.8243C37.5807 36.6035 36.407 34.1535 36.407 34.1535C36.407 34.1535 36.5463 34.0211 36.9205 33.8077C37.8888 35.3307 38.1529 36.5005 38.1895 37.0229L38.1822 37.0156Z" fill="#F5948D"/>
<path d="M40.7717 39.2449C40.0601 40.4147 39.0111 41.8494 37.7347 42.9089C35.3873 44.8513 31.4187 46.3743 31.4187 46.3743C31.294 47.2646 30.5311 48.4123 30.179 48.3829C30.157 48.3829 30.1423 48.3829 30.1203 48.3682C30.6998 47.4117 31.14 46.0579 31.14 46.0579C31.14 46.0579 33.5681 45.0058 36.4583 43.034C38.4316 41.6802 39.9648 40.1719 40.7644 39.2449H40.7717Z" fill="#F5948D"/>
<path d="M64.3266 36.6918C63.8791 37.0008 59.265 39.5245 55.1277 40.0395C50.7776 40.5839 48.6209 40.6428 47.1611 38.8623C45.7013 37.0818 44.5643 31.6961 44.5643 31.6961C44.5643 31.6961 44.7917 31.3871 45.9434 30.9824C46.2295 32.3362 46.9557 36.7433 49.3251 38.5459C49.3251 38.5459 53.5798 39.5024 57.1523 38.5459C59.7711 37.847 62.0085 36.6845 63.0135 36.1179C63.461 36.3239 63.9085 36.5226 64.3339 36.6992L64.3266 36.6918Z" fill="#F5948D"/>
<path d="M73.5915 35.6323C73.5622 36.3902 73.3861 37.0155 72.9974 37.4276C71.6843 38.8034 69.2048 38.1927 66.9674 37.5968C66.762 37.5379 66.564 37.4864 66.3586 37.4276C65.7864 37.2731 65.0748 37.0155 64.3192 36.6918C61.9425 35.6986 59.0669 34.1756 58.2526 33.8371C58.2526 33.8371 58.2526 33.8371 58.2453 33.8371C57.1743 33.3957 55.9786 33.3957 55.9786 33.3957C55.9786 33.3957 54.042 34.1167 52.6115 34.0946C52.2374 34.0873 52.01 33.9548 51.8779 33.7709C52.6042 33.6385 54.0346 33.3368 54.7095 32.9469C55.6265 32.4098 56.5141 32.2111 56.9616 32.2773C57.409 32.3362 60.1966 33.7415 65.8157 35.0805C69.9384 36.0591 72.2418 36.0959 73.5842 35.6397L73.5915 35.6323Z" fill="#F5948D"/>
<path d="M67.5176 30.151L66.1092 30.254V30.2246H66.1018L65.8597 28.5692C65.8597 28.5692 66.5713 28.4662 67.5103 28.3852C67.4809 29.3049 67.5176 30.1437 67.5176 30.1437V30.151Z" fill="#F5948D"/>
<path d="M64.8107 36.9493C64.8107 36.9493 64.7961 36.9493 64.7887 36.9493C63.9158 36.6256 60.8935 35.1762 58.5167 34.0211C57.1083 33.3295 56.5948 33.4251 55.8759 33.5575C55.7585 33.5796 55.6338 33.6017 55.5018 33.6238C55.1863 33.6679 54.8562 33.7783 54.5114 33.896C53.8366 34.1167 53.147 34.3448 52.4795 34.1461C52.12 34.0358 51.8706 33.8592 51.7532 33.6238C51.6065 33.3368 51.6946 33.0646 51.7019 33.0572C51.7019 33.0425 51.7752 32.4833 52.054 32.0198C52.0393 31.8138 51.9146 30.335 51.9073 30.2025C51.9073 30.1657 51.6505 26.4576 51.0123 24.243C51.005 24.2062 51.0197 24.1694 51.0563 24.162C51.093 24.1473 51.1224 24.1694 51.137 24.2062C51.7826 26.4355 52.032 30.1584 52.0393 30.1952C52.0467 30.3423 52.186 32.0198 52.186 32.0345C52.186 32.0493 52.186 32.064 52.1787 32.0713C51.8999 32.5128 51.8339 33.0793 51.8339 33.0867C51.8339 33.1014 51.7532 33.3295 51.8779 33.5723C51.9806 33.7783 52.2007 33.9254 52.5308 34.0284C53.1617 34.2197 53.8366 33.999 54.4894 33.7783C54.8416 33.6605 55.1717 33.5575 55.5018 33.506C55.6338 33.484 55.7585 33.4619 55.8759 33.4398C56.6095 33.3 57.1376 33.2044 58.5901 33.9107C60.9669 35.0658 63.9818 36.5153 64.8548 36.839C64.8841 36.8537 64.9061 36.8905 64.8914 36.9199C64.8841 36.9493 64.8548 36.9641 64.8328 36.9641L64.8107 36.9493Z" fill="#601112"/>
<path d="M72.1171 28.7899C72.1171 28.7899 72.029 28.7604 71.9043 28.7237C71.875 28.7237 71.853 28.7089 71.8237 28.6942C71.6256 28.628 71.3762 28.5692 71.0754 28.5103C71.0387 28.5103 70.9874 28.4956 70.9434 28.4882C70.5399 28.422 70.0558 28.3779 69.4836 28.3779H69.4542C67.3709 28.3779 65.8817 28.6207 65.8597 28.628C65.8597 28.628 65.8011 28.6133 65.7937 28.5839C65.735 28.3484 65.6617 28.0468 65.5883 27.7083C65.5883 27.7083 65.5883 27.6936 65.5883 27.6863C65.2142 25.9205 64.7447 23.1393 64.7447 23.0657C64.7447 23.029 64.7741 22.9995 64.8034 22.9995C64.8401 22.9995 64.8694 23.029 64.8694 23.0657C64.8694 23.154 65.3242 25.8469 65.6984 27.62C65.7057 27.6642 65.713 27.701 65.7277 27.7451C65.7864 28.0321 65.8524 28.2896 65.9038 28.5029C66.1972 28.4588 67.591 28.2675 69.4542 28.2601H69.4836C70.7673 28.2601 71.6036 28.4735 72.0731 28.6501C72.1024 28.7384 72.1171 28.7899 72.1171 28.7899Z" fill="#601112"/>
<path d="M31.1034 22.3153V22.3374C31.0374 23.0731 31.2281 23.5513 30.7219 24.5078C30.2158 25.4643 29.4235 26.487 28.9467 26.384C28.4699 26.2883 28.6606 24.2503 28.7633 23.4189C28.8 23.1172 28.712 22.7347 28.5946 22.3741C28.4626 21.9842 28.2865 21.6163 28.1691 21.3956C28.2058 21.3882 28.2425 21.3809 28.2792 21.3735C29.3502 21.1602 30.4212 20.2331 31.1107 19.2987C31.1254 20.0345 31.1474 21.7193 31.1107 22.3079L31.1034 22.3153Z" fill="#F1B5AB"/>
<path d="M31.1033 22.3153C30.1863 22.6611 29.1887 22.5213 28.5872 22.3741C28.4551 21.9842 28.2791 21.6163 28.1617 21.3956C28.1984 21.3882 28.235 21.3809 28.2717 21.3735C29.3427 21.1602 30.4137 20.2331 31.1033 19.2987C31.118 20.0345 31.14 21.7193 31.1033 22.3079V22.3153Z" fill="#F5948D"/>
<path d="M59.6244 15.2079C59.6244 15.2079 59.6244 15.23 59.6171 15.2374C59.463 15.8333 59.1843 16.7604 58.8688 17.6948C58.326 19.3355 57.7025 21.0204 57.5411 21.0572C57.5411 21.0572 57.2843 19.6592 56.9175 18.3349C56.8809 18.1877 56.8442 18.0406 56.8075 17.8861C56.6021 16.8487 56.6021 15.7303 56.6094 15.3992C57.4751 15.5537 58.5827 15.4949 59.6171 15.2079H59.6244Z" fill="#F1B5AB"/>
<path d="M59.6245 15.2079C59.6245 15.2079 59.6245 15.23 59.6172 15.2374C59.4631 15.8333 59.1844 16.7604 58.8689 17.6948C58.0033 17.9302 57.2771 17.9155 56.815 17.8861C56.6096 16.8487 56.6096 15.7303 56.6169 15.3992C57.4825 15.5537 58.5902 15.4949 59.6245 15.2079Z" fill="#F5948D"/>
<path d="M37.6981 20.3361C37.0965 20.6525 36.4803 20.7555 35.9081 20.6746C34.7418 20.5274 33.7808 19.6592 33.5607 18.4967C33.2306 16.753 33.6928 13.7806 33.5974 12.9933C33.4947 12.2061 33.392 12.2429 33.0472 12.2061C33.0472 12.2061 32.4017 11.1466 32.4604 10.4991C32.4604 10.455 32.4604 10.0577 32.6144 9.59416C32.8345 8.92463 33.392 8.12267 34.8005 8.12267C37.1699 8.12267 38.2702 10.6684 38.1015 12.677C37.9328 14.6856 36.6711 17.2607 37.1332 17.7683C37.6027 18.2687 38.703 17.7978 38.9378 17.2975C38.9378 17.2975 39.5393 19.3723 37.7054 20.3435L37.6981 20.3361Z" fill="#D0412B"/>
<path d="M35.9081 20.6746C34.7418 20.5274 33.7808 19.6592 33.5607 18.4967C33.2306 16.753 33.6928 13.7806 33.5974 12.9933C33.4947 12.2061 33.392 12.2429 33.0472 12.2061C33.0472 12.2061 32.4017 11.1466 32.4604 10.4991C32.4604 10.455 32.4604 10.0577 32.6144 9.59416C33.9275 9.17478 35.49 9.35136 35.4313 12.0074C35.3653 15.1344 34.0962 16.8339 34.7271 18.6954C35.0205 19.5415 35.4827 20.2037 35.9081 20.6819V20.6746Z" fill="#C02C26"/>
<path d="M34.0596 16.8855C33.6928 17.7536 32.2256 18.6292 32.2256 18.6292C32.1083 19.0191 31.8515 19.4974 31.4994 19.9609C31.3527 20.1595 31.184 20.3656 31.0079 20.5568C30.311 21.3073 29.4161 21.9621 28.5285 22.1461C28.4918 22.1461 28.4478 22.1534 28.4111 22.1608C26.7972 22.4477 25.4035 21.8665 24.4865 20.1007C23.5549 18.2907 23.6869 14.1117 24.1564 13.5746C26.4965 14.0087 28.8512 13.1184 29.5848 12.9124C30.3184 12.7138 30.4651 12.9345 31.1326 13.8689C31.25 14.0381 31.3674 14.2441 31.4701 14.4722C31.9395 15.4875 32.233 16.8487 32.233 16.8487C32.233 16.547 32.5998 16.0099 33.0252 15.642C33.2526 15.4434 33.4947 15.2889 33.7074 15.2374C34.309 15.1049 34.441 16.0099 34.0742 16.8781L34.0596 16.8855Z" fill="#F1B5AB"/>
<path d="M34.0595 16.8855C33.6928 17.7536 32.2256 18.6292 32.2256 18.6292C32.1083 19.0191 31.8515 19.4974 31.4994 19.9609C31.3527 20.1595 31.184 20.3656 31.0079 20.5568C31.9175 18.5188 31.6461 15.7009 31.4627 14.4796C31.9322 15.4875 32.2256 16.856 32.2256 16.856C32.2256 16.5544 32.5924 16.0173 33.0179 15.6494C33.2453 15.4507 33.4874 15.2962 33.7001 15.2447C34.3016 15.1123 34.4337 16.0173 34.0669 16.8855H34.0595Z" fill="#F5948D"/>
<path d="M33.1793 10.4403C32.6438 10.2637 32.1376 10.5874 31.9395 10.8302C32.2036 11.3305 32.4237 11.9044 32.5924 12.4783C34.1696 12.1399 33.8982 10.6831 33.1793 10.4403Z" fill="#263B7F"/>
<path d="M33.0106 15.6494C32.5924 16.0173 32.2183 16.547 32.2183 16.856C32.2183 16.856 32.0129 15.8995 31.6681 15.0019C31.5141 14.5826 31.3234 14.1779 31.1106 13.8762C30.4431 12.9418 30.2964 12.7211 29.5628 12.9198C28.8292 13.1184 26.4745 14.016 24.1344 13.5819C23.4669 13.4569 23.2468 12.4121 23.775 11.5365C24.3031 10.6684 28.2057 8.65977 30.2744 9.22629C30.9566 9.41759 31.5068 10.0356 31.9249 10.8302C31.9322 10.8449 31.9469 10.867 31.9542 10.8817C32.211 11.3673 32.4164 11.9191 32.5851 12.4783C32.9592 13.7512 33.0913 15.0461 33.0032 15.6494H33.0106Z" fill="#D0412B"/>
<path d="M33.1793 16.0982C33.1793 16.0982 33.1059 16.0761 33.0839 16.0982C33.0546 16.1276 32.3797 16.8854 32.2917 17.5182C32.2917 17.555 32.3137 17.5918 32.3503 17.5918H32.3577C32.3577 17.5918 32.4164 17.5697 32.4237 17.5329C32.431 17.452 32.4604 17.3637 32.4897 17.2827C32.5411 17.3048 32.6071 17.3269 32.6804 17.3269C32.7611 17.3269 32.8345 17.3048 32.9079 17.2386C33.0766 17.0767 32.9665 16.6426 32.9225 16.5176C33.0692 16.3189 33.1866 16.1865 33.1866 16.1865C33.2086 16.157 33.2086 16.1203 33.1866 16.0908L33.1793 16.0982ZM32.8125 17.1503C32.7245 17.2386 32.6071 17.2018 32.5411 17.1724C32.6218 16.9958 32.7245 16.8192 32.8272 16.6647C32.8712 16.8487 32.8932 17.0767 32.8125 17.1503Z" fill="#983222"/>
<path d="M26.1737 19.6666C25.8803 19.6666 25.6382 19.6592 25.6382 19.6592C25.6162 19.6592 25.5942 19.6445 25.5869 19.6298C25.5722 19.6151 25.5722 19.593 25.5795 19.5709C25.5795 19.5709 26.5552 16.6942 26.5772 16.6279C26.5918 16.5912 26.6285 16.5764 26.6652 16.5838C26.7019 16.5985 26.7166 16.6353 26.7092 16.6721C26.6872 16.7309 25.9023 19.0486 25.7336 19.5268C25.9023 19.5268 26.2911 19.5342 26.6432 19.5268C26.8559 19.5268 26.944 19.4606 26.988 19.4164C27.0247 19.3723 27.0247 19.3355 27.0247 19.3355C27.0247 19.2987 27.054 19.2693 27.0907 19.2619C27.1274 19.2619 27.1567 19.284 27.164 19.3208C27.164 19.3281 27.164 19.4164 27.098 19.4974C27.0173 19.593 26.8633 19.6445 26.6579 19.6519C26.5038 19.6519 26.3424 19.6592 26.1884 19.6592L26.1737 19.6666Z" fill="#983222"/>
<path d="M26.6799 20.5716C26.6799 20.5716 27.4061 20.704 28.1984 20.4391C28.9906 20.1743 29.5261 19.9682 29.5261 19.9682C29.5261 19.9682 28.8586 21.0866 27.9049 21.2852C26.9513 21.4839 26.6799 20.5716 26.6799 20.5716Z" fill="white"/>
<path d="M28.1103 15.8186C28.0663 15.6641 28.6458 15.0387 29.4014 14.9946C30.157 14.9504 30.8685 15.4066 30.8685 15.4066C30.8685 15.4066 29.9149 15.3772 29.2253 15.5096C28.5358 15.642 28.1103 15.826 28.1103 15.826V15.8186Z" fill="#D0412B"/>
<path d="M26.3571 16.1203C26.3571 16.1203 25.9903 15.6273 25.3448 15.5243C24.6993 15.4213 24.2298 15.8186 24.2298 15.8186C24.2298 15.8186 24.5966 15.9658 25.2934 15.9878C25.9903 16.0173 26.3571 16.1129 26.3571 16.1129V16.1203Z" fill="#D0412B"/>
<path d="M25.9903 17.062C25.9463 17.4005 25.7849 17.658 25.6309 17.6433C25.4768 17.6212 25.3888 17.3269 25.4401 16.9885C25.4841 16.65 25.6455 16.3925 25.7996 16.4072C25.9536 16.4293 26.0417 16.7236 25.9903 17.062Z" fill="#601112"/>
<path d="M29.8049 16.6426C29.7609 16.9811 29.5995 17.2386 29.4454 17.2239C29.2914 17.2018 29.2034 16.9149 29.2547 16.5691C29.2987 16.2306 29.4601 15.9731 29.6142 15.9878C29.7682 16.0099 29.8562 16.2968 29.8049 16.6353V16.6426Z" fill="#601112"/>
<path d="M33.0106 15.6494C32.5924 16.0173 32.2183 16.547 32.2183 16.856C32.2183 16.856 32.0129 15.8995 31.6681 15.0019C31.9469 13.6114 31.9689 11.8897 31.9615 10.8817C32.2183 11.3673 32.4237 11.9191 32.5924 12.4783C32.9665 13.7512 33.0986 15.0461 33.0106 15.6494Z" fill="#C02C26"/>
<path d="M51.5258 85.2513C49.7652 85.0968 48.6282 84.7731 47.9167 84.4714C47.902 84.339 47.8873 84.2139 47.88 84.0815C47.7846 83.1618 47.6819 82.2347 47.5865 81.3813C48.2468 81.6535 49.2884 81.9772 50.7996 82.1832C50.9903 83.0146 51.2911 84.2875 51.5258 85.244V85.2513Z" fill="#89C09C"/>
</g>
<defs>
<clipPath id="clip0_8_1802">
<rect width="75" height="95" fill="white"/>
</clipPath>
</defs>
</svg>
