<svg width="104" height="93" viewBox="0 0 104 93" fill="none" xmlns="http://www.w3.org/2000/svg">
<g clip-path="url(#clip0_8_1574)">
<path d="M79.4082 78.3452H12.2335C12.0696 83.1645 11.6639 86.9995 11.6171 87.4956H79.6813C79.4707 84.2749 79.3926 81.2116 79.4082 78.3452Z" fill="#98D8EA"/>
<path d="M83.3716 44.6888C83.3716 46.3031 82.3418 54.0518 81.5148 59.9106L81.3978 59.9263C80.9218 61.3674 80.4537 63.7141 80.087 66.7458H11.9526C11.6639 63.9897 11.1568 61.4777 10.3532 59.6035C9.15169 52.9336 7.38065 44.555 7.38065 44.555C8.43391 43.3738 38.6275 44.1534 46.7337 44.0667C46.8039 44.0667 46.8741 44.0667 46.9365 44.0667C47.0614 44.0667 47.1784 44.0667 47.2876 44.0667C54.442 43.9329 83.3716 44.6967 83.3716 44.6967V44.6888Z" fill="#C6E8EF"/>
<path d="M10.283 60.013C10.2596 59.9027 10.244 59.7925 10.2128 59.6822C10.1113 59.2806 9.97089 58.8948 9.80705 58.5325C8.66016 56.0048 6.13233 54.5401 3.71373 55.17C2.68387 55.4378 1.81785 56.052 1.1859 56.8867C0.11703 58.2805 -0.304276 60.2886 0.218455 62.2966C0.709978 64.2102 1.94269 65.7064 3.44066 66.4387C4.45491 66.9427 5.594 67.1002 6.71748 66.8009C9.37794 66.1001 10.9227 63.0998 10.2908 60.0051L10.283 60.013Z" fill="#C6E8EF"/>
<path d="M3.72153 55.17C6.14014 54.5401 8.66797 56.0048 9.81485 58.5325C10.0099 58.8554 10.1815 59.2098 10.3454 59.5877L9.1985 53.5006C2.37179 52.154 1.1937 56.8789 1.1937 56.8789C1.82566 56.052 2.69167 55.4299 3.72153 55.1622V55.17Z" fill="#98D8EA"/>
<path d="M11.9526 66.7458C12.0618 67.801 12.1476 68.8956 12.2023 70.0059H79.7593C79.853 68.8562 79.9622 67.7695 80.0792 66.7616C74.7193 66.8876 17.9991 66.7616 11.9526 66.7458Z" fill="#9DD9E1"/>
<path d="M12.2023 70.0059C12.3427 72.8251 12.3271 75.7308 12.2335 78.3452H79.4083C79.4239 75.2977 79.5565 72.4943 79.7593 70.0059H12.2023Z" fill="#98D8EA"/>
<path d="M12.2023 70.0059C12.1476 68.8956 12.0696 67.8089 11.9526 66.7458C11.6093 66.7458 11.9526 66.7458 11.9526 66.7458C11.6639 63.9897 11.1646 61.4777 10.3532 59.6035C10.3844 59.7531 10.3532 59.5877 10.3532 59.5877C10.1893 59.2098 10.0099 58.8554 9.82266 58.5325C9.9865 58.8948 10.1191 59.2806 10.2284 59.6822C10.2596 59.7925 10.2752 59.9027 10.2986 60.013C10.9383 63.1156 9.39355 66.108 6.72528 66.8088C5.6096 67.1002 4.47052 66.9427 3.44846 66.4466C3.44846 66.4466 6.57705 75.9907 5.67202 87.5507H11.6171C11.6171 87.5507 11.6171 87.5271 11.6171 87.4956C11.6717 87.0074 12.0696 83.1724 12.2335 78.3452C12.3271 75.7308 12.3427 72.8251 12.2023 70.0059Z" fill="#98D8EA"/>
<path d="M90.7835 64.1472C89.4884 66.1631 87.1712 67.2026 84.9866 66.5568C82.3652 65.7851 80.8906 62.8557 81.5538 59.9106H81.507L81.3899 59.9263C80.914 61.3674 80.4459 63.7141 80.0792 66.7458C80.0792 66.7458 80.3367 66.7616 80.0792 66.7694C79.9622 67.7774 79.853 68.8562 79.7593 70.0138C79.5565 72.5022 79.4239 75.3056 79.4082 78.3531C79.3926 81.2116 79.4707 84.2827 79.6813 87.5035H86.6016C86.6016 87.5035 85.2363 73.5338 90.7835 64.1551V64.1472Z" fill="#98D8EA"/>
<path d="M88.2167 55.422C89.2933 55.737 90.1749 56.4221 90.7991 57.3277C89.5274 55.0047 86.7499 51.3823 82.4198 53.2644L81.3899 59.9263C81.6084 59.2728 81.8191 58.8003 82.0219 58.5325C83.2 56.0678 85.7824 54.7054 88.2088 55.422H88.2167Z" fill="#98D8EA"/>
<path d="M91.6027 59.0444V59.0286C91.5637 58.9184 91.2984 58.2175 90.8069 57.3198C90.1827 56.4221 89.3011 55.737 88.2245 55.4142C85.798 54.6976 83.2078 56.0599 82.0375 58.5247C81.8893 58.8396 81.7566 59.1704 81.6552 59.5169C81.6162 59.6429 81.5928 59.7767 81.5616 59.9027C80.8984 62.8479 82.373 65.7694 84.9944 66.549C87.179 67.1947 89.4962 66.1473 90.7913 64.1393C91.119 63.6353 91.3842 63.0683 91.5637 62.4462C91.8992 61.2808 91.8992 60.0996 91.6105 59.0444H91.6027Z" fill="#C6E8EF"/>
<path d="M47.4437 66.7458H47.2408L46.7337 44.0667C46.8039 44.0667 46.8741 44.0667 46.9365 44.0667L47.4437 66.7458Z" fill="#3883C4"/>
<path d="M47.4202 78.172C47.3656 78.172 47.3188 78.1247 47.3188 78.0696L47.2564 70.0059C47.2564 69.9508 47.3032 69.9036 47.3578 69.9036C47.4124 69.8957 47.4593 69.9508 47.4593 70.0059L47.5217 78.0696C47.5217 78.1247 47.4749 78.172 47.4202 78.172Z" fill="#3883C4"/>
<path d="M79.377 78.3531H12.2413C12.1866 78.3531 12.1398 78.3059 12.1398 78.2507C12.1398 78.1956 12.1866 78.1484 12.2413 78.1484H79.377C79.4317 78.1484 79.4785 78.1956 79.4785 78.2507C79.4785 78.3059 79.4317 78.3531 79.377 78.3531Z" fill="#3883C4"/>
<path d="M86.352 64.2889C86.2662 64.2889 86.1725 64.281 86.0789 64.2653C84.932 64.0605 84.6356 62.7455 84.7292 61.6903C84.8462 60.3358 85.6108 58.9026 86.7811 58.9026C86.8825 58.9026 86.9761 58.9105 87.0776 58.9341C88.2244 59.1704 88.5131 60.4933 88.4117 61.5564C88.2791 62.8872 87.5145 64.2968 86.3442 64.2968L86.352 64.2889ZM86.7889 59.0995C85.7356 59.0995 85.0491 60.4461 84.9398 61.706C84.854 62.6746 85.1115 63.8794 86.1257 64.0605C86.2037 64.0763 86.2818 64.0842 86.3598 64.0842C87.4052 64.0842 88.0996 62.7691 88.2245 61.5328C88.3181 60.5563 88.0684 59.3357 87.0542 59.131C86.9683 59.1152 86.8825 59.0995 86.7967 59.0995H86.7889Z" fill="#3883C4"/>
<path d="M5.24291 64.3598C3.70593 64.3598 2.95694 62.7219 2.7853 61.3202C2.61365 59.9027 2.98815 58.3199 4.04141 58.0522C4.17404 58.0207 4.30668 58.0049 4.44711 58.0049C5.87487 58.0049 7.16219 59.9027 7.36504 61.5958C7.52888 63.0054 6.94374 64.0133 5.79685 64.2968C5.6096 64.344 5.42236 64.3677 5.25071 64.3677L5.24291 64.3598ZM4.44711 58.2018C4.33008 58.2018 4.21305 58.2175 4.09602 58.249C3.15199 58.4853 2.82431 59.9578 2.98815 61.2965C3.15979 62.7219 3.92438 64.1629 5.24291 64.1629C5.40675 64.1629 5.57059 64.1393 5.74224 64.0999C7.24021 63.7298 7.23241 62.2415 7.16219 61.6194C6.97494 60.013 5.77344 58.2097 4.44711 58.2097V58.2018Z" fill="#3883C4"/>
<path d="M11.6171 87.598H11.6015C11.5469 87.598 11.5079 87.5429 11.5157 87.4877C12.7172 76.8097 11.7731 66.3915 11.6639 65.2418C11.4143 62.6982 10.8213 60.9186 10.4156 59.95C10.7979 62.2415 10.0645 65.4465 7.70052 66.549C4.98545 67.8168 3.44066 66.5883 3.37824 66.5332C3.33923 66.5017 3.33143 66.4387 3.36264 66.3915C3.39385 66.3442 3.46407 66.3442 3.50308 66.3757C3.51868 66.3915 5.01665 67.5727 7.6147 66.36C10.2362 65.1394 10.7589 61.2099 9.97089 59.0444C9.95529 58.9971 9.97089 58.942 10.0255 58.9184C10.0801 58.8948 10.1269 58.9184 10.1581 58.9578C10.1737 58.9814 11.4767 61.1076 11.8746 65.226C11.9838 66.3836 12.9278 76.8175 11.7263 87.5192C11.7263 87.5744 11.6795 87.6137 11.6249 87.6137L11.6171 87.598Z" fill="#3883C4"/>
<path d="M79.6813 87.598C79.6267 87.598 79.5877 87.5586 79.5799 87.5035C79.5799 87.4247 78.9011 79.2193 79.5799 70.9509C80.2665 62.6746 81.3587 60.2492 81.4056 60.1468C81.429 60.0996 81.4836 60.076 81.5304 60.0917C81.5772 60.1075 81.6084 60.1626 81.6006 60.2098C81.6006 60.2256 81.3509 61.4777 81.6552 62.8715C82.0609 64.7299 83.1922 65.9347 85.0179 66.4545C89.3791 67.7065 91.0332 63.5408 91.1034 63.3597C91.1268 63.3046 91.1814 63.281 91.236 63.3046C91.2906 63.3203 91.314 63.3833 91.2906 63.4385C91.275 63.4857 89.4962 67.9585 84.9554 66.6513C81.5694 65.6827 81.2495 62.5801 81.3041 61.0445C80.9296 62.3202 80.2509 65.2654 79.7827 70.9588C79.104 79.2114 79.7671 87.4011 79.7827 87.4799C79.7827 87.535 79.7437 87.5822 79.6891 87.5901H79.6813V87.598Z" fill="#3883C4"/>
<path d="M80.0792 66.7694C80.0792 66.7694 80.0792 66.7537 80.0792 66.7458H11.9526C17.9991 66.7616 74.7193 66.8954 80.0792 66.7694Z" fill="#938B8B"/>
<path d="M79.7671 70.1083H12.2023C12.1476 70.1083 12.1008 70.0611 12.1008 70.0059C12.1008 69.9508 12.1476 69.9036 12.2023 69.9036H79.7671C79.8218 69.9036 79.8686 69.9508 79.8686 70.0059C79.8686 70.0611 79.8218 70.1083 79.7671 70.1083Z" fill="#3883C4"/>
<path d="M103.766 89.2516C103.766 90.362 100.801 91.2991 96.7208 91.6062C95.808 91.6771 94.8327 91.7085 93.8185 91.7085C88.3259 91.7085 83.871 90.6061 83.871 89.2438L83.8866 88.1177V87.8106L84.1831 71.8565C84.1831 73.1715 88.4975 74.2425 93.8185 74.2425C95.7065 74.2425 97.4698 74.1086 98.9521 73.8724C101.659 73.4472 103.454 72.7069 103.454 71.8565L103.735 87.4798V87.7712L103.766 89.2359V89.2516Z" fill="#F79738"/>
<path d="M103.766 89.2516C103.766 90.362 100.801 91.2991 96.7208 91.6062C98.1641 86.401 98.7259 79.1721 98.9521 73.8881C101.659 73.4629 103.454 72.7227 103.454 71.8722L103.735 87.4956V87.787L103.766 89.2516Z" fill="#E4822F"/>
<path d="M76.4279 83.2197L75.8506 83.385C75.8506 83.385 72.1056 78.7547 70.0459 76.1954C67.9862 73.644 65.1151 70.6438 63.7029 67.5727C62.4702 64.9031 59.8019 57.7057 59.131 55.8709C61.2219 55.1779 62.517 54.0991 63.0944 52.5793C64.0774 49.9885 63.1256 47.0591 62.283 45.3897C61.9709 44.7676 61.5574 43.9644 61.1673 43.2005C61.1049 43.0745 61.0425 42.9485 60.9722 42.8225C60.6914 42.2792 60.4339 41.7752 60.2545 41.4051C60.2233 41.3578 60.1998 41.3106 60.1842 41.2633C60.1062 41.1059 60.0438 40.9877 59.997 40.9011C59.9736 40.8617 59.958 40.8302 59.9502 40.8066C59.9502 40.7909 59.9424 40.783 59.9346 40.7751C60.0126 40.7121 60.0828 40.6491 60.153 40.5861C60.2311 40.5231 60.3013 40.4601 60.3715 40.3893C60.8006 39.9955 61.1907 39.6018 61.5184 39.2159H61.5262C61.5496 39.2396 61.573 39.2632 61.5964 39.2868C63.227 40.7672 64.3583 43.862 65.0917 46.941C65.6456 49.2561 65.9889 51.5477 66.1605 53.1462C66.5662 56.8946 67.4089 66.1316 67.4089 66.1316C70.6155 67.0529 72.0978 68.8956 72.878 71.2108C73.0341 71.6911 73.3071 72.5495 73.6192 73.6125C74.7193 77.2664 76.4201 83.2118 76.4201 83.2118L76.4279 83.2197Z" fill="#D64E27"/>
<path d="M53.3653 69.4783C55.4875 72.2345 54.9179 75.5812 53.8413 79.1878C52.827 82.5897 50.9389 87.913 50.9389 87.913L50.307 87.7791L49.8233 87.6767C49.8233 87.6767 49.1445 73.9118 49.0119 69.7146C48.8948 65.9662 48.5593 58.3435 48.5359 56.6584C49.0197 56.7686 49.7686 56.8631 50.9155 56.871C51.6255 56.871 52.4915 56.8552 53.5448 56.7922C54.1065 56.7529 54.6371 56.7135 55.1442 56.6584L53.3731 69.4705L53.3653 69.4783Z" fill="#D64E27"/>
<path d="M76.4279 83.2197L75.8506 83.385C75.8506 83.385 72.1056 78.7547 70.0459 76.1954C67.9862 73.644 65.1151 70.6438 63.7029 67.5727C62.4702 64.9031 59.8019 57.7057 59.131 55.8709C61.2219 55.1779 62.517 54.0991 63.0944 52.5793C64.0774 49.9885 63.1256 47.0591 62.283 45.3897C61.9709 44.7676 61.5574 43.9644 61.1673 43.2005C61.1049 43.0745 61.0425 42.9485 60.9722 42.8225C60.6914 42.2792 60.4339 41.7752 60.2545 41.4051C60.2233 41.3578 60.1998 41.3106 60.1842 41.2633C60.1062 41.1059 60.0438 40.9877 59.997 40.9011C59.9736 40.8617 59.958 40.8302 59.9502 40.8066C59.9502 40.7909 59.9424 40.783 59.9346 40.7751C60.0126 40.7121 60.0828 40.6491 60.153 40.5861C60.2311 40.5231 60.3013 40.4601 60.3715 40.3893C60.8006 39.9955 61.1907 39.6018 61.5184 39.2159H61.5262C61.5496 39.2396 61.573 39.2632 61.5964 39.2868C63.227 40.7672 64.3583 43.862 65.0917 46.941C64.6158 49.1302 63.9136 52.3037 63.7575 56.0363C63.5547 61.0131 65.4584 67.6199 65.4584 67.6199C65.4584 67.6199 69.3749 72.8802 73.6114 73.5968C74.7115 77.2506 76.4123 83.196 76.4123 83.196L76.4279 83.2197Z" fill="#C23F27"/>
<path d="M55.1364 56.6741L53.3653 69.4862C55.4875 72.2423 54.9179 75.5891 53.8413 79.1957C52.827 82.5976 50.9389 87.9208 50.9389 87.9208L50.307 87.787C51.0404 85.3694 52.905 79.1012 53.1859 75.6915C53.537 71.3919 52.3979 70.3761 52.3979 70.3761C52.2653 67.3207 51.3602 60.0051 50.9155 56.8867C51.6255 56.8867 52.4915 56.871 53.5448 56.808C54.1065 56.7686 54.6371 56.7292 55.1442 56.6741H55.1364Z" fill="#C23F27"/>
<path d="M62.2752 23.6477C62.2752 23.6477 61.6432 24.4351 61.2297 25.4195C61.0893 25.7502 60.9176 26.1125 60.746 26.4511C60.4105 27.1204 60.0906 27.6795 60.0906 27.6795L59.4431 27.27L59.326 27.1992L58.0777 26.4117L58.0231 26.3802C58.0231 26.3802 57.9919 26.4117 57.9763 26.4274C56.7202 27.6638 56.0336 29.9159 56.0336 31.7586C56.0336 33.6013 56.8762 35.4361 57.7578 36.0582C58.5068 36.5858 60.1296 37.956 60.5743 38.334C60.4807 38.4836 60.3559 38.6489 60.2154 38.8301C59.5913 39.6412 58.4756 40.7515 56.65 41.7437C55.4094 42.413 54.0207 42.8225 52.7802 43.0666C52.7334 43.0745 52.6866 43.0824 52.6398 43.0981C50.5956 43.4919 48.9494 43.4525 48.9494 43.4525C48.848 43.0115 48.0366 39.7357 47.8338 37.3181C47.7713 36.6015 47.7011 35.8849 47.6309 35.2156C47.4827 33.8611 47.3422 32.7429 47.3032 32.4516C47.2954 32.4043 47.2954 32.3807 47.2954 32.3807C47.0848 32.3098 46.8897 32.2468 46.7103 32.1681C45.9535 31.8767 45.4073 31.5617 45.0251 31.2467C44.3307 30.6719 44.1356 30.0892 44.0966 29.5852C44.0264 28.7347 45.3137 26.4511 45.735 25.1911C46.0549 24.2304 46.4684 22.2145 46.7337 21.1593C46.8195 20.8364 46.8897 20.6002 46.9365 20.5214C47.038 20.3482 47.3656 20.0489 47.7245 19.7261C47.7947 19.6631 47.865 19.6001 47.9352 19.5371C48.2317 19.2694 48.5281 18.9937 48.7154 18.7575C48.731 18.8126 48.7466 18.8756 48.7466 18.9386C48.7856 19.3245 48.8558 20.3954 48.9884 21.2695C49.0821 21.8759 49.2069 22.3877 49.3863 22.5216C49.4019 22.5373 49.4176 22.5452 49.4332 22.5452C49.4644 22.5452 49.4878 22.5452 49.519 22.5216C49.519 22.5216 49.5346 22.5137 49.558 22.4901C49.5658 22.4743 49.5814 22.4586 49.5892 22.4428C49.753 22.2145 49.9091 21.616 50.0963 20.9939C50.1587 20.7892 50.229 20.5765 50.2992 20.3718C50.6659 19.3481 51.407 17.9858 51.3758 17.781C51.3758 17.781 51.5319 17.781 51.7815 17.7889C52.3979 17.8047 53.576 17.8362 54.4186 17.8992C54.7619 17.9307 55.0506 17.9543 55.2222 17.9937C55.9712 18.1433 56.7748 18.7654 58.265 19.9623C59.2246 20.734 60.6133 22.0412 61.4872 22.8681C61.5184 22.8996 61.5574 22.9311 61.5808 22.9626C62.0021 23.3721 62.283 23.6398 62.283 23.6398L62.2752 23.6477Z" fill="#F79738"/>
<path d="M48.7388 18.9307C48.7778 19.3166 48.848 20.3876 48.9806 21.2616C47.9352 21.4349 47.2096 21.3404 46.7181 21.1514C46.8039 20.8285 46.8741 20.5923 46.9209 20.5135C47.0224 20.3403 47.35 20.0411 47.7089 19.7182C47.7791 19.6552 47.8494 19.5922 47.9196 19.5292C48.2161 19.2615 48.5125 18.9859 48.6998 18.7496C48.7154 18.8047 48.731 18.8677 48.731 18.9307H48.7388Z" fill="#E18726"/>
<path d="M54.4186 17.9149C53.6696 18.8126 52.1248 20.3403 50.0885 21.0018C50.1509 20.797 50.2212 20.5844 50.2914 20.3797C50.6581 19.356 51.3992 17.9937 51.368 17.7889C51.368 17.7889 51.5241 17.7889 51.7737 17.7968C52.3901 17.8125 53.5682 17.844 54.4108 17.907L54.4186 17.9149Z" fill="#E18726"/>
<path d="M57.75 36.0503C58.499 36.5779 60.1218 37.9481 60.5665 38.3261C60.4729 38.4757 60.3481 38.6411 60.2076 38.8222C58.9203 37.9009 56.1272 35.7983 55.5655 34.4754C54.8243 32.7351 55.2612 31.0026 55.2612 31.0026C54.0129 31.7901 52.3901 31.2704 52.3901 31.2704C55.1598 30.8609 56.2755 29.7427 56.3145 27.5614C56.3535 25.3722 55.8308 24.4588 55.8308 24.4588C55.8308 24.4588 55.2534 23.8052 56.6266 24.1517C57.8125 24.4509 59.7707 25.6951 60.7538 26.4432C60.4183 27.1125 60.0984 27.6716 60.0984 27.6716L59.4509 27.2622L59.3338 27.1913L58.0855 26.4038L58.0309 26.3723C58.0309 26.3723 57.9997 26.4038 57.9841 26.4196C56.728 27.6559 56.0414 29.9081 56.0414 31.7507C56.0414 33.5934 56.884 35.4282 57.7656 36.0503H57.75Z" fill="#E18726"/>
<path d="M50.2212 13.8437C50.268 13.0641 50.2212 12.4893 50.2212 12.4893C52.3043 10.7726 50.8765 8.55978 50.2212 8.73303C49.558 8.90627 49.5892 10.1032 49.5892 10.1032L48.692 8.55978C48.4657 8.16605 48.1224 7.88256 47.7167 7.68569C46.5308 7.10297 44.8066 7.28409 43.8236 7.85894C42.505 8.63066 41.0461 10.245 40.8354 11.3002C40.2425 11.1821 39.2126 10.4576 38.8849 9.12676C38.5026 7.55183 39.829 4.56732 41.6312 3.65386C43.4023 2.76402 45.9613 3.61448 46.0705 3.65386C46.0081 3.58298 45.1265 2.56715 46.0705 2.53565C46.9365 2.50415 49.3317 3.93735 49.9013 4.28383C49.9793 4.33108 50.0261 4.3547 50.0261 4.3547C50.0261 4.3547 52.3355 6.53599 52.8582 8.78028C53.3809 11.0246 52.7724 14.1823 50.229 13.8516L50.2212 13.8437Z" fill="#B75349"/>
<path d="M50.2212 13.8437C50.268 13.0641 50.2212 12.4892 50.2212 12.4892C52.3043 10.7726 50.8765 8.55978 50.2212 8.73303C49.558 8.90627 49.5892 10.1032 49.5892 10.1032L48.692 8.55978C48.4657 8.16605 48.1224 7.88256 47.7167 7.68569C50.6815 7.4022 50.3148 6.221 49.9013 4.27596C49.9793 4.3232 50.0261 4.34683 50.0261 4.34683C50.0261 4.34683 52.3355 6.52811 52.8582 8.7724C53.3809 11.0167 52.7724 14.1744 50.229 13.8437H50.2212Z" fill="#A03E37"/>
<path d="M59.287 9.57561C59.1154 11.2214 58.1713 12.8042 56.7514 13.2925C56.7514 13.2925 57.3053 11.7175 56.923 10.9064C56.6266 10.2765 56.4393 10.3473 55.3938 10.5206C54.3484 10.6938 53.654 10.3473 53.4122 8.90627C53.1781 7.52032 52.7412 5.15004 50.9935 4.64606C51.29 3.7641 51.017 2.95301 50.4084 2.89001C50.4708 2.50415 50.6347 1.9293 50.9623 1.38595C51.4071 0.645725 52.1638 -0.0157484 53.4122 9.88279e-07C55.6669 0.0393744 56.3691 1.51194 56.7124 3.18925C57.0323 4.74056 56.3223 6.65411 56.2053 6.94547C56.2833 6.78798 56.6266 6.19738 57.4458 6.38637C58.226 6.55961 59.1076 7.52032 59.2714 8.78815C59.3026 9.04014 59.3104 9.30788 59.2792 9.57561H59.287Z" fill="#B75349"/>
<path d="M59.287 9.57562C59.1154 11.2214 58.1713 12.8042 56.7514 13.2925C56.7514 13.2925 57.3053 11.7175 56.923 10.9064C56.6266 10.2765 56.4393 10.3473 55.3938 10.5206C54.3484 10.6938 53.654 10.3473 53.4122 8.90627C53.1781 7.52033 52.7412 5.15005 50.9935 4.64607C51.29 3.76411 51.017 2.95301 50.4084 2.89002C50.4708 2.50416 50.6347 1.9293 50.9623 1.38595C53.1235 0.937094 54.9569 1.23633 55.5655 3.10263C56.2989 5.32329 55.3626 7.50458 55.7371 7.57545C56.0648 7.63845 58.46 6.27613 59.2714 8.78028C59.3026 9.03227 59.3104 9.30001 59.2792 9.56775L59.287 9.57562Z" fill="#A03E37"/>
<path d="M50.2134 12.4893C50.2134 12.4893 50.2368 12.7727 50.2368 13.2137C50.2368 13.4027 50.2368 13.6153 50.2212 13.8437C50.1665 14.828 49.9559 16.1352 49.2771 16.9778C49.2693 16.9936 49.2537 17.0093 49.2459 17.0172C48.9963 17.3243 48.7466 17.5999 48.4891 17.8362C47.5061 18.7417 46.4216 19.1119 44.869 18.8362C42.8873 18.4819 41.9823 16.9463 41.6 14.8674C41.2177 12.8042 40.8354 11.2923 40.8354 11.2923C41.0461 10.2371 42.505 8.62278 43.8236 7.85106C44.7442 7.31558 46.3124 7.11872 47.4827 7.57545C47.9898 7.77232 48.4189 8.0873 48.692 8.55191L49.5892 10.0953C49.5892 10.0953 49.558 8.90627 50.2212 8.72515C50.8765 8.55191 52.3043 10.7568 50.2212 12.4814L50.2134 12.4893Z" fill="#F1B5AB"/>
<path d="M50.2133 12.4893C50.2133 12.4893 50.2368 12.7727 50.2368 13.2137C50.2368 13.4027 50.2368 13.6153 50.2212 13.8437C50.1665 14.828 49.9559 16.1352 49.2771 16.9778C49.2693 16.9936 49.2537 17.0093 49.2459 17.0172C50.1899 12.5601 48.4267 9.05589 47.4827 7.58333C47.9898 7.7802 48.4189 8.09518 48.692 8.55979L49.5892 10.1032C49.5892 10.1032 49.558 8.91415 50.2212 8.73303C50.8765 8.55979 52.3043 10.7647 50.2212 12.4893H50.2133Z" fill="#F5948D"/>
<path d="M50.4006 2.89001C50.4006 2.89001 50.385 2.89001 50.3772 2.89001C49.6282 2.84276 49.7843 4.20508 49.7843 4.20508C50.2758 4.49645 50.7673 5.14217 50.7673 5.14217C50.8609 4.9768 50.9311 4.81143 50.9936 4.64606C51.29 3.7641 51.017 2.95301 50.4084 2.89001H50.4006Z" fill="#5F1D16"/>
<path d="M64.093 42.0272C64.1164 41.9563 64.132 41.9169 64.132 41.9169C64.132 41.9169 64.1164 41.9563 64.093 42.0272Z" fill="#F1B5AB"/>
<path d="M45.3137 11.2293C45.3137 11.2293 45.1421 10.2843 45.9223 10.1741C46.7025 10.0717 47.8182 10.7017 47.8182 10.7017C47.8182 10.7017 45.735 10.6308 45.3137 11.2293Z" fill="#B75349"/>
<path d="M43.0512 11.6703C43.0512 11.6703 42.505 11.2529 41.8965 11.6703C41.2801 12.0876 41.3503 12.8909 41.3503 12.8909C41.3503 12.8909 41.795 12.4735 42.3022 12.19C42.8093 11.8986 43.0512 11.6703 43.0512 11.6703Z" fill="#B75349"/>
<path d="M59.919 40.7909C60.5353 40.279 61.0737 39.7514 61.5106 39.2395L59.9112 40.7987L59.919 40.7909Z" fill="#5F1D16"/>
<path d="M62.2752 45.3897C61.9631 44.7676 61.5496 43.9644 61.1595 43.2005C61.0971 43.0745 61.0269 42.9485 60.9644 42.8225C60.6836 42.2792 60.4261 41.7752 60.2467 41.4051C60.2155 41.3578 60.192 41.3106 60.1764 41.2633C60.0984 41.1058 60.036 40.9877 59.9892 40.9011C59.9658 40.8617 59.9502 40.8302 59.9424 40.8066C59.9346 40.7909 59.9268 40.783 59.9268 40.7751L61.3467 39.3813L61.5106 39.2238L61.495 39.208L60.5743 38.3261C60.0516 39.1214 58.8891 40.5231 56.6422 41.7358C53.2951 43.547 48.9416 43.4446 48.9416 43.4446V44.3975C48.9416 44.3975 48.9416 44.4132 48.9416 44.4211C48.9416 44.4526 48.926 44.4998 48.9182 44.555C48.7232 45.9803 47.6231 55.1858 47.6231 56.2567C47.6231 56.2567 47.7167 56.4851 48.5281 56.6662C49.3161 56.8395 50.7907 56.9733 53.537 56.808C54.0987 56.7686 54.6293 56.7292 55.1364 56.6741C56.6968 56.5087 58.0231 56.241 59.131 55.8709C61.2219 55.1779 62.517 54.0991 63.0944 52.5793C64.0774 49.9885 63.1256 47.0591 62.283 45.3897H62.2752ZM59.9112 40.7909C59.9112 40.7909 59.9112 40.7909 59.9034 40.7909H59.9112Z" fill="#263B7F"/>
<path d="M61.5262 39.2317C61.4872 39.2789 61.4482 39.3262 61.5106 39.2317C61.5886 39.1372 61.5574 39.1844 61.5262 39.2317Z" fill="#5F1D16"/>
<path d="M50.9311 87.9208C50.9311 87.9208 49.8701 87.3381 48.5281 87.6137C47.1862 87.8815 45.7974 89.2517 45.7974 89.2517H50.9311V87.9208Z" fill="#263B7F"/>
<path d="M75.7647 83.2827C75.8506 83.385 75.4839 86.9601 75.1406 87.5429C74.8051 88.1256 73.588 88.5666 73.5178 88.8186C73.4476 89.0784 75.7803 89.3068 76.4201 88.8186C77.0599 88.3303 78.4096 84.8497 78.4096 84.8497L76.3343 82.8417L75.7569 83.2748L75.7647 83.2827Z" fill="#263B7F"/>
<path d="M49.3707 22.5137C49.2537 22.435 48.1302 21.7026 47.2876 22.0885C47.2876 22.0885 47.4983 20.608 47.9196 19.5213C48.2161 19.2536 48.5125 18.978 48.6998 18.7417C48.7154 18.7969 48.731 18.8599 48.731 18.9229C48.8012 19.5765 48.9338 22.1751 49.3629 22.5058L49.3707 22.5137Z" fill="#263B7F"/>
<path d="M52.7568 20.8837C51.5397 20.9467 49.8233 22.2775 49.5502 22.4901C49.7842 22.246 49.9871 21.2065 50.2914 20.3718C50.6581 19.3481 51.3992 17.9858 51.368 17.781C51.368 17.781 51.5241 17.781 51.7737 17.7889L52.749 20.8758L52.7568 20.8837Z" fill="#263B7F"/>
<path d="M50.2836 11.2923C50.2836 11.2923 50.2446 11.2844 50.2289 11.2608C49.7062 10.5285 49.9949 9.63862 50.2055 9.17401V9.15039C50.2055 9.15039 50.268 9.09527 50.2992 9.11101C50.3304 9.12676 50.3538 9.15826 50.3382 9.19764C50.3382 9.19764 50.3382 9.21339 50.3226 9.23701C50.1197 9.67799 49.8467 10.5127 50.3226 11.1899C50.346 11.2214 50.3382 11.2608 50.307 11.2844C50.2992 11.2923 50.2836 11.3002 50.268 11.3002L50.2836 11.2923Z" fill="#983222"/>
<path d="M50.1119 10.6781C50.1119 10.6781 50.0573 10.6623 50.0495 10.6308C50.0339 10.5993 50.0495 10.56 50.0885 10.5442C50.1041 10.5442 50.3772 10.434 50.3382 10.2056C50.3226 10.1269 50.2914 10.1111 50.2758 10.1111C50.2056 10.0717 50.0807 10.1269 50.0417 10.1426C50.0105 10.1584 49.9637 10.1426 49.9481 10.1111C49.9325 10.0796 49.9481 10.0324 49.9793 10.0166C50.0027 10.0087 50.1977 9.91424 50.3382 9.98511C50.385 10.0087 50.4474 10.0639 50.4708 10.182C50.5176 10.4576 50.268 10.623 50.1353 10.6702C50.1353 10.6702 50.1197 10.6702 50.1119 10.6702V10.6781Z" fill="#983222"/>
<path d="M40.7418 9.87485C40.7418 9.87485 40.6794 9.84335 40.6716 9.81186C40.6716 9.76461 40.5857 8.7409 40.8978 8.39441C40.929 8.36291 40.968 8.36291 40.9992 8.39441C41.0305 8.41804 41.0305 8.46528 40.9992 8.49678C40.773 8.74877 40.7808 9.52837 40.8042 9.81186C40.8042 9.85123 40.7808 9.88273 40.7418 9.8906V9.87485Z" fill="#993E3A"/>
<path d="M42.0603 6.10289C42.0603 6.10289 42.0369 6.10289 42.0291 6.09501C41.9979 6.07926 41.9823 6.03989 41.9979 6.00051C42.0369 5.91389 42.6923 4.99256 43.1136 4.82719C43.1448 4.81144 43.1916 4.82719 43.2072 4.86656C43.2228 4.90593 43.2072 4.94531 43.1682 4.96106C42.7937 5.11068 42.1695 5.98477 42.1305 6.07139C42.1149 6.09501 42.0915 6.11076 42.0681 6.11076L42.0603 6.10289Z" fill="#993E3A"/>
<path d="M47.2408 6.18951C47.2408 6.18951 47.2096 6.18951 47.194 6.17376C46.5152 5.59891 44.674 5.78002 44.6584 5.7879C44.6194 5.7879 44.5881 5.76427 44.5803 5.7249C44.5803 5.68553 44.6038 5.65403 44.6428 5.64615C44.7208 5.64615 46.5542 5.45716 47.2798 6.06351C47.311 6.08714 47.311 6.13438 47.2876 6.16588C47.272 6.18163 47.2564 6.18951 47.233 6.18951H47.2408Z" fill="#993E3A"/>
<path d="M48.3331 5.97688C48.3331 5.97688 48.2863 5.96114 48.2707 5.94539C48.021 5.52015 47.2876 4.96105 47.2798 4.95318C47.2486 4.92955 47.2408 4.8823 47.2642 4.85081C47.2876 4.81931 47.3344 4.81143 47.3656 4.83506C47.3968 4.85868 48.1302 5.41778 48.3955 5.86664C48.4111 5.89814 48.3955 5.94539 48.3721 5.96114C48.3643 5.96114 48.3487 5.96901 48.3409 5.96901L48.3331 5.97688Z" fill="#993E3A"/>
<path d="M40.063 9.87486C40.063 9.87486 40.024 9.87486 40.0162 9.85124C39.5559 9.36301 39.7899 8.08731 39.8368 8.00856C39.8602 7.97707 39.8992 7.96919 39.9304 7.98494C39.9616 8.00856 39.9694 8.04794 39.9538 8.07944C39.907 8.19756 39.7275 9.34726 40.1176 9.74887C40.141 9.77249 40.141 9.81974 40.1176 9.84337C40.102 9.85911 40.0864 9.86699 40.0708 9.86699L40.063 9.87486Z" fill="#993E3A"/>
<path d="M55.0428 4.68544C55.0428 4.68544 54.9803 4.66182 54.9725 4.63032C54.9725 4.6067 54.4966 2.70102 53.2249 2.27579C51.9844 1.86631 51.6801 2.6774 51.6801 2.68527C51.6645 2.72465 51.6255 2.7404 51.5865 2.73252C51.5553 2.71677 51.5319 2.6774 51.5475 2.63803C51.5475 2.63015 51.8986 1.68519 53.2717 2.14192C54.6137 2.5829 55.0896 4.5122 55.1052 4.59095C55.113 4.63032 55.0896 4.66969 55.0506 4.67757C55.0506 4.67757 55.0428 4.67757 55.035 4.67757L55.0428 4.68544Z" fill="#5F1D16"/>
<path d="M55.6669 3.66961C55.6669 3.66961 55.5967 3.63811 55.5967 3.59873C55.6279 2.66952 54.9881 1.59856 54.9803 1.58281C54.9569 1.55132 54.9725 1.50407 55.0038 1.48832C55.035 1.46469 55.0818 1.48044 55.0974 1.51194C55.1286 1.55919 55.7683 2.63015 55.7293 3.60661C55.7293 3.64598 55.6981 3.66961 55.6591 3.66961H55.6669Z" fill="#5F1D16"/>
<path d="M51.6177 3.87434C51.6177 3.87434 51.5943 3.87434 51.5865 3.87434C51.5553 3.85859 51.5397 3.81134 51.5553 3.77984C51.5709 3.74835 51.9142 3.08687 52.3667 3.1105C52.4057 3.1105 52.4369 3.142 52.4369 3.18137C52.4369 3.22074 52.3979 3.24437 52.3667 3.24437C52.0624 3.22862 51.7737 3.6696 51.6879 3.84284C51.6723 3.86647 51.6489 3.88222 51.6255 3.88222L51.6177 3.87434Z" fill="#5F1D16"/>
<path d="M54.0363 7.29983C54.0363 7.29983 53.9739 7.26833 53.9661 7.23684C53.8491 6.32337 52.6944 5.33116 52.3433 5.04767C52.3277 5.03192 52.3199 5.03192 52.3199 5.02405C52.2887 4.99255 52.2887 4.95318 52.3199 4.92955C52.3433 4.89805 52.3901 4.89805 52.4135 4.92955L52.4291 4.9453C52.788 5.23667 53.9817 6.26037 54.1065 7.22109C54.1065 7.26046 54.0831 7.29196 54.0441 7.29983C54.0441 7.29983 54.0441 7.29983 54.0363 7.29983Z" fill="#5F1D16"/>
<path d="M57.9295 11.3002C57.9295 11.3002 57.9295 11.3002 57.9217 11.3002C57.8827 11.3002 57.8593 11.2608 57.8593 11.2214C57.9607 10.4891 57.2663 8.99289 57.1727 8.89839C57.1415 8.8669 57.1415 8.82752 57.1727 8.79602C57.1961 8.76453 57.2429 8.76453 57.2663 8.79602C57.4224 8.92989 58.1089 10.4733 57.9997 11.245C57.9997 11.2765 57.9685 11.308 57.9295 11.308V11.3002Z" fill="#5F1D16"/>
<path d="M58.499 10.3946C58.46 10.3946 58.4366 10.3552 58.4366 10.3158C58.499 9.74099 58.343 9.17401 57.9841 8.63853C57.9685 8.62278 57.9607 8.60703 57.9607 8.59916C57.9373 8.56766 57.9529 8.52041 57.9841 8.50466C58.0153 8.48104 58.0621 8.49679 58.0777 8.52828C58.0777 8.52828 58.0933 8.54403 58.1011 8.55978C58.577 9.2685 58.6239 9.91423 58.577 10.3316C58.577 10.371 58.5458 10.3946 58.5068 10.3946H58.499Z" fill="#5F1D16"/>
<path d="M45.0641 16.9463C45.0641 16.9463 47.116 15.9462 47.5295 15.2454C47.5295 15.2454 47.6153 16.5053 46.8663 17.3479C46.1173 18.1905 45.0563 16.9463 45.0563 16.9463H45.0641Z" fill="white"/>
<path d="M43.7845 16.0644C43.4803 16.0644 43.2228 15.9777 43.2072 15.9777C43.176 15.9699 43.1526 15.9305 43.1604 15.8911C43.1604 15.8911 43.332 15.2218 43.4725 14.4579C43.6051 13.702 43.5973 13.2531 43.176 12.7412C43.1526 12.7097 43.1604 12.6704 43.1838 12.6467C43.215 12.6231 43.254 12.6231 43.2774 12.6467C43.7299 13.198 43.7455 13.6941 43.6051 14.4737C43.4959 15.1036 43.3554 15.6627 43.3086 15.8517C43.4647 15.8911 43.8938 15.9856 44.2058 15.836C44.5881 15.6549 44.6896 15.4029 44.6896 15.4029C44.7052 15.3714 44.7442 15.3478 44.7754 15.3635C44.8066 15.3793 44.83 15.4186 44.8144 15.4501C44.8144 15.4659 44.6974 15.7572 44.2605 15.962C44.1122 16.0329 43.9406 16.0565 43.7845 16.0565V16.0644Z" fill="#983222"/>
<path d="M52.7724 43.0666C52.7256 43.0745 52.6788 43.0824 52.632 43.0981C52 41.7437 50.8843 37.8221 50.4162 35.9952C50.0807 34.6959 49.7296 33.6485 49.4176 32.7193C49.1601 31.9476 48.9338 31.2861 48.7778 30.6404C48.4267 29.223 48.614 28.1362 48.848 26.7582L48.9104 26.4038C49.0665 25.4825 49.1757 24.6084 49.2615 23.8367C49.3239 23.3406 49.3785 22.8996 49.4254 22.5531C49.4566 22.5531 49.48 22.5531 49.5112 22.5295C49.5112 22.5295 49.5268 22.5216 49.5502 22.498C49.558 22.4822 49.5736 22.4665 49.5814 22.4507C49.519 22.813 49.4566 23.3012 49.3941 23.8445C49.3005 24.6163 49.1991 25.4982 49.0431 26.4196L48.9806 26.7739C48.7466 28.1363 48.5593 29.2151 48.9026 30.601C49.0587 31.2389 49.2849 31.9003 49.5424 32.6721C49.8545 33.6013 50.2134 34.6565 50.5488 35.9558C51.0794 38.0032 52.1716 41.8303 52.7724 43.0666Z" fill="#993E3A"/>
<path d="M52.632 31.294C52.4915 31.294 52.4057 31.2861 52.3901 31.2861C52.3511 31.2861 52.3277 31.2467 52.3277 31.2074C52.3277 31.168 52.3667 31.1444 52.3979 31.1444C52.4135 31.1444 53.693 31.2782 54.8711 30.4199C56.0414 29.5616 56.3301 28.6009 56.4393 27.8528C56.4393 27.8134 56.4783 27.7898 56.5173 27.7976C56.5563 27.7976 56.5797 27.837 56.5719 27.8764C56.4549 28.6481 56.1584 29.6482 54.9491 30.5302C54.0207 31.2074 53.0611 31.294 52.6241 31.294H52.632Z" fill="#993E3A"/>
<path d="M47.7167 32.5067C47.5607 32.5067 47.233 32.4752 46.7337 32.2626C46.7025 32.2468 46.6869 32.2075 46.6947 32.176C46.7103 32.1445 46.7493 32.1287 46.7805 32.1366C47.4593 32.428 47.7948 32.365 47.7948 32.365C47.826 32.365 47.865 32.3807 47.8728 32.4201C47.8728 32.4594 47.8572 32.4909 47.8182 32.4988C47.8182 32.4988 47.7791 32.5067 47.7089 32.5067H47.7167Z" fill="#993E3A"/>
<path d="M58.0777 26.4117L58.0231 26.3802C58.0231 26.3802 57.9919 26.4117 57.9763 26.4274L56.3379 24.9864C56.3379 24.9864 56.3067 24.9155 56.3379 24.8919C56.3613 24.8604 56.4081 24.8604 56.4315 24.8919L58.0777 26.3329C58.0777 26.3329 58.1089 26.3959 58.0933 26.4196L58.0777 26.4117Z" fill="#993E3A"/>
<path d="M61.5808 22.9705C59.9346 24.5926 59.4665 27.2228 59.4587 27.2543C59.4587 27.2543 59.4587 27.2779 59.4509 27.2779L59.3338 27.207C59.3884 26.9235 59.8956 24.4509 61.4872 22.8838C61.5184 22.9153 61.5574 22.9468 61.5808 22.9783V22.9705Z" fill="#993E3A"/>
<path d="M61.5964 39.2947C61.1829 39.8144 60.629 40.3656 59.9892 40.9011C59.326 41.4602 58.5692 42.0114 57.7656 42.5075C57.7266 42.539 57.6876 42.5627 57.6486 42.5863C56.5407 43.2635 55.347 43.8384 54.2158 44.177C54.1689 44.1927 54.1299 44.2085 54.0831 44.2164C53.8881 44.2715 53.7008 44.3187 53.5136 44.3581C52.3979 44.6022 51.4227 44.681 50.6191 44.681C50.5254 44.681 50.424 44.681 50.3382 44.681C50.2914 44.681 50.2446 44.681 50.2055 44.681C49.675 44.6652 49.2381 44.6101 48.9182 44.555C48.926 44.4998 48.9338 44.4526 48.9416 44.4211C49.7686 44.555 51.3836 44.6888 53.4902 44.2321C53.6852 44.1849 53.8803 44.1376 54.0831 44.0825C54.1065 44.0825 54.1299 44.0667 54.1455 44.0667C56.135 43.4761 58.304 42.1611 59.9112 40.7987C59.9112 40.7987 59.919 40.7987 59.9268 40.7909C60.0048 40.7279 60.075 40.6649 60.1452 40.6019C60.2233 40.5389 60.2935 40.4759 60.3637 40.405C60.7382 40.0585 61.0659 39.7199 61.3467 39.397C61.4013 39.334 61.4482 39.2789 61.495 39.2238L61.5106 39.2396C61.5886 39.1451 61.5574 39.1923 61.5262 39.2396C61.5496 39.2632 61.573 39.2868 61.5964 39.3104V39.2947Z" fill="#A6DDEB"/>
<path d="M49.7452 47.9017C49.7452 47.9017 49.7374 47.9017 49.7296 47.9017C49.6906 47.9017 49.6672 47.8623 49.675 47.823C49.7842 47.193 50.2134 44.6416 50.2134 44.618C50.2134 44.5786 50.2524 44.555 50.2914 44.5628C50.3304 44.5628 50.3538 44.6022 50.346 44.6416C50.346 44.6652 49.9169 47.2245 49.8077 47.8466C49.8077 47.8781 49.7764 47.9017 49.7452 47.9017Z" fill="#A6DDEB"/>
<path d="M54.7619 47.9017C54.7619 47.9017 54.6917 47.8702 54.6917 47.8387C54.6449 46.3898 54.0675 44.177 54.0597 44.1534C54.0519 44.1219 54.0753 44.0825 54.1065 44.0667C54.1455 44.051 54.1767 44.0746 54.1923 44.114C54.1923 44.1376 54.7775 46.3661 54.8243 47.8308C54.8243 47.8702 54.7931 47.9017 54.7619 47.9017Z" fill="#A6DDEB"/>
<path d="M59.5133 47.76C59.5133 47.76 59.4665 47.7442 59.4509 47.7206C59.4509 47.7048 58.8345 46.4055 58.2572 45.1062C57.672 43.7911 57.6564 42.5705 57.6564 42.5627C57.6564 42.5233 57.6876 42.4918 57.7188 42.4918C57.7188 42.4918 57.789 42.5233 57.789 42.5627C57.789 42.5705 57.8124 43.7675 58.382 45.0511C58.9593 46.3504 59.5679 47.6497 59.5757 47.6655C59.5913 47.697 59.5757 47.7442 59.5445 47.7521C59.5367 47.7521 59.5289 47.7521 59.5133 47.7521V47.76Z" fill="#A6DDEB"/>
<path d="M42.7391 13.7413C42.8873 14.1823 42.8405 14.5918 42.6299 14.6705C42.4192 14.7414 42.1305 14.4422 41.9823 14.0091C41.8341 13.5681 41.8809 13.1586 42.0915 13.0877C42.3022 13.0169 42.5908 13.3161 42.7391 13.7492V13.7413Z" fill="#1E1724"/>
<path d="M46.445 12.2924C46.5932 12.7334 46.5464 13.1428 46.3358 13.2137C46.1251 13.2846 45.8365 12.9854 45.6882 12.5522C45.54 12.1191 45.5868 11.7018 45.7974 11.6309C46.0081 11.56 46.2968 11.8514 46.445 12.2924Z" fill="#1E1724"/>
<path d="M47.6231 35.2077V35.7432C47.6231 35.7432 46.5464 38.2316 45.6648 39.7672C44.791 41.3027 42.6923 42.6965 42.6923 42.6965C42.1539 43.3029 41.5922 43.9407 41.2957 43.7675C41.2723 43.7517 41.2567 43.736 41.2411 43.7202C40.968 43.4131 41.5454 42.6335 41.5454 42.6335L40.6013 43.0745C40.6013 43.0745 40.4687 44.303 40.1254 44.2006C39.7899 44.0982 39.8524 42.5627 40.1254 42.1217C40.3985 41.6807 41.7092 41.3027 41.7092 41.3027C41.7092 41.3027 42.5206 39.5624 43.4335 37.1843C44.3463 34.7982 44.9158 31.2231 44.9158 31.2231L45.0016 31.2546C45.4073 31.5854 45.9691 31.9082 46.7727 32.2075C46.9287 32.2705 47.1004 32.3256 47.2798 32.3807C47.2798 32.3807 47.4437 33.6328 47.6153 35.2156L47.6231 35.2077Z" fill="#F1B5AB"/>
<path d="M47.6231 35.2077V35.7432C47.6231 35.7432 46.5464 38.2316 45.6648 39.7672C44.791 41.3027 42.6923 42.6965 42.6923 42.6965C42.1539 43.3029 41.5922 43.9407 41.2957 43.7675C41.6624 43.3659 42.1851 42.791 42.4582 42.4997C42.8951 42.0272 45.8677 37.9954 46.3046 36.3968C46.601 35.3101 46.7337 33.3493 46.7805 32.1996C46.9365 32.2626 47.1082 32.3177 47.2876 32.3728C47.2876 32.3728 47.4515 33.6249 47.6231 35.2077Z" fill="#F5948D"/>
<path d="M83.9334 79.5343C79.3536 79.5343 76.5527 70.8879 74.2044 61.5091C71.9418 52.4454 68.4231 47.3347 62.7199 41.0743C57.2195 35.0345 53.615 35.4833 49.4644 36.696C45.5712 37.8379 42.6923 42.665 42.4114 43.3108C42.3178 43.6651 42.0057 43.9171 41.6312 43.9171C41.1865 43.9171 40.8198 43.5549 40.8198 43.0981C40.8198 42.2319 44.4165 36.4677 49.0119 35.1211C53.5448 33.7903 57.7891 33.2469 63.9136 39.964C69.7963 46.4291 73.4242 51.7052 75.7803 61.1075C77.0443 66.1631 79.9778 77.9042 83.9412 77.9042C83.9958 77.9042 84.0504 77.9042 84.1128 77.9042C84.5653 77.8649 84.9476 78.2035 84.9867 78.6523C85.0257 79.1012 84.6902 79.4949 84.2455 79.5343C84.144 79.5422 84.0348 79.55 83.9334 79.55V79.5343Z" fill="#A6D6B4"/>
<path d="M51.3761 17.7889C51.4073 17.9937 50.6662 19.356 50.2995 20.3797C49.925 21.3955 49.6987 22.7421 49.3866 22.5216C48.9497 22.2145 48.8171 19.5922 48.7469 18.9307C48.7469 18.8677 48.7313 18.8047 48.7157 18.7496C48.6923 18.6551 48.6611 18.5606 48.6142 18.474C48.505 18.222 48.3412 18.0094 48.2163 17.8677C48.4816 17.6235 48.7313 17.3479 48.9887 17.0329C49.6519 16.214 49.8548 14.9462 49.9094 13.9854C50.2136 14.5445 50.5491 15.3714 50.8222 16.1116C51.1343 16.9621 51.3683 17.6944 51.3839 17.7889H51.3761Z" fill="#F1B5AB"/>
<path d="M50.8063 16.1116C50.1431 17.3322 49.1523 18.096 48.5983 18.474C48.4891 18.222 48.3253 18.0094 48.2004 17.8677C48.4657 17.6235 48.7154 17.3479 48.9728 17.0329C49.636 16.214 49.8389 14.9462 49.8935 13.9854C50.1977 14.5445 50.5332 15.3714 50.8063 16.1116Z" fill="#F5948D"/>
<path d="M66.0983 40.9956C66.3323 42.3894 65.8642 43.3108 65.5599 43.3108C65.3805 43.3108 65.4117 42.9485 65.4741 42.6572C65.5053 42.476 65.5521 42.3264 65.5599 42.2949C65.5521 42.3107 65.5287 42.35 65.4975 42.413C65.3259 42.7202 64.8656 43.4998 64.6159 43.4446C64.4599 43.4131 64.4599 43.1848 64.5067 42.98C64.5301 42.8304 64.5847 42.6887 64.6003 42.6257C64.5769 42.6729 64.5379 42.7517 64.4833 42.854C64.4833 42.854 64.4833 42.854 64.4833 42.8619C64.3506 43.0981 64.14 43.3974 63.9761 43.2714C63.8669 43.1926 63.8747 42.9564 63.9215 42.7044C63.9605 42.4682 64.0386 42.2083 64.0932 42.0587C64.0776 42.0981 64.062 42.1453 64.0386 42.1926C63.9137 42.476 63.7109 42.8462 63.5392 42.6887C63.2662 42.4445 63.7421 40.2711 63.7421 40.2711C63.7421 40.2711 62.9307 40.8854 62.6264 40.468C62.5796 40.405 62.5718 40.3263 62.5874 40.2396C62.681 39.7514 63.5626 38.9797 63.508 38.8301C63.4378 38.6647 63.2037 35.0502 62.6966 32.5933C62.1895 30.1364 62.3923 29.5301 62.3611 29.3883C62.3299 29.2702 60.5043 28.1362 60.1064 27.6638C60.1064 27.6638 60.4341 27.081 60.7773 26.4038C60.9412 26.0731 61.1128 25.7187 61.2455 25.4037C61.659 24.4194 62.2909 23.6319 62.2909 23.6319C63.469 24.5848 65.6302 27.2385 65.6302 27.2385C65.6302 27.2385 66.1061 27.8213 66.1685 30.0655C66.2309 32.3177 65.5677 38.6568 65.5677 38.6568C65.5677 38.6568 65.872 39.5782 66.1061 40.972L66.0983 40.9956Z" fill="#F1B5AB"/>
<path d="M63.7653 35.3731C63.7653 38.1607 63.5079 39.1766 63.5079 39.1766C63.5079 39.1766 63.1802 39.6569 62.5794 40.2475C62.6731 39.7593 63.5547 38.9876 63.5001 38.8379C63.4299 38.6726 63.1958 35.0581 62.6887 32.6012C62.1815 30.1443 62.3844 29.5379 62.3532 29.3962C62.322 29.2781 60.4963 28.1441 60.0984 27.6716C60.0984 27.6716 60.4261 27.0889 60.7694 26.4117C61.9865 27.4748 62.6419 28.6245 62.8915 29.223C63.1646 29.8687 63.7653 32.5618 63.7653 35.3573V35.3731Z" fill="#F5948D"/>
<path d="M63.9136 42.7123C63.9526 42.476 64.0306 42.2162 64.0852 42.0666C64.0696 42.1059 64.054 42.1532 64.0306 42.2004C64.1242 41.8776 64.171 41.4917 64.1866 41.0428C64.1866 41.0271 64.2022 41.0114 64.2179 41.0114C64.2335 41.0114 64.2491 41.0271 64.2491 41.0428C64.2257 41.7516 64.1086 42.3107 63.9058 42.7123H63.9136Z" fill="#993E3A"/>
<path d="M64.4987 42.98C64.5221 42.8304 64.5767 42.6965 64.5923 42.6257C64.5689 42.6729 64.5299 42.7517 64.4753 42.854C64.6001 42.5548 64.7406 42.1374 64.8576 41.5783C64.8576 41.5547 64.8732 41.5468 64.8966 41.5547C64.9122 41.5547 64.9278 41.5783 64.92 41.5941C64.7796 42.2241 64.6236 42.6808 64.4909 42.98H64.4987Z" fill="#993E3A"/>
<path d="M65.4662 42.6493C65.4974 42.476 65.5442 42.3185 65.552 42.287C65.5442 42.3028 65.5208 42.3422 65.4896 42.4052C65.63 42.0193 65.7002 41.6807 65.708 41.3972C65.708 41.3815 65.7158 41.3657 65.7392 41.3657C65.7548 41.3657 65.7704 41.3815 65.7704 41.3972C65.7704 41.7437 65.6612 42.1611 65.4662 42.6493Z" fill="#993E3A"/>
<path d="M93.8107 74.2583C99.1321 74.2583 103.446 73.19 103.446 71.8722C103.446 70.5545 99.1321 69.4862 93.8107 69.4862C88.4892 69.4862 84.1752 70.5545 84.1752 71.8722C84.1752 73.19 88.4892 74.2583 93.8107 74.2583Z" fill="#FFC40C"/>
<path d="M93.8106 70.4075C90.5572 70.4075 87.9124 71.0611 87.9124 71.8722C87.9124 72.6833 90.5572 73.3291 93.8106 73.3291C97.0641 73.3291 99.7089 72.6755 99.7089 71.8722C99.7089 71.069 97.0719 70.4075 93.8106 70.4075Z" fill="#F79738"/>
<path d="M84.5731 90.992C84.815 90.1258 85.6342 89.606 86.3988 89.8265C87.1634 90.047 87.5847 90.9211 87.3428 91.7873C87.101 92.6535 86.2818 93.1733 85.5172 92.9528C84.7526 92.7323 84.3313 91.8582 84.5731 90.992Z" fill="#5F1D16"/>
<path d="M85.8761 92.1889C85.8293 92.1889 85.7824 92.1889 85.7434 92.1653C85.5484 92.1102 85.447 91.9448 85.4002 91.8582C85.3065 91.6692 85.2909 91.4408 85.3611 91.2125C85.4782 90.803 85.7981 90.5904 86.0555 90.5904C86.1023 90.5904 86.1491 90.5904 86.1881 90.6061C86.3832 90.6612 86.4846 90.8266 86.5314 90.9132C86.6251 91.1022 86.6407 91.3306 86.5782 91.5589C86.4612 91.9684 86.1413 92.181 85.8839 92.181L85.8761 92.1889Z" fill="#9FD8D4"/>
<path d="M103.735 87.787C102.018 88.5429 98.5698 89.7635 93.8185 89.9761C93.4284 89.9919 93.0383 89.9998 92.6638 89.9998C89.6132 89.9998 87.2882 89.4407 85.8215 88.9367C84.9867 88.6532 84.3469 88.3618 83.8866 88.1256V87.8185C85.2519 88.5272 88.6302 89.9368 93.8107 89.7005C98.6245 89.48 102.081 88.228 103.735 87.4877V87.7791V87.787Z" fill="#CE615A"/>
<path d="M99.6699 76.408C99.4983 76.408 99.389 76.408 99.3656 76.408C99.311 76.408 99.2642 76.3608 99.2642 76.3057C99.2642 76.2505 99.3188 76.2033 99.3656 76.2033C99.389 76.2033 101.519 76.2427 102.393 75.9356C102.447 75.9119 102.502 75.9356 102.518 75.9986C102.533 76.0537 102.51 76.1088 102.455 76.1246C101.737 76.3765 100.286 76.408 99.6621 76.408H99.6699Z" fill="#CE615A"/>
<path d="M99.6699 77.416C99.4983 77.416 99.3812 77.416 99.3656 77.416C99.311 77.416 99.2642 77.3688 99.2642 77.3136C99.2642 77.2585 99.3032 77.2191 99.3656 77.2113C99.389 77.2113 101.519 77.2506 102.393 76.9435C102.447 76.9199 102.502 76.9514 102.518 77.0065C102.533 77.0617 102.51 77.1168 102.455 77.1404C101.745 77.3924 100.294 77.4239 99.6621 77.4239L99.6699 77.416Z" fill="#CE615A"/>
<path d="M99.6699 78.4476C99.4983 78.4476 99.3812 78.4476 99.3656 78.4476C99.311 78.4476 99.2642 78.4003 99.2642 78.3452C99.2642 78.2901 99.3032 78.2507 99.3656 78.2507C99.389 78.2507 101.519 78.2901 102.393 77.983C102.447 77.9672 102.502 77.9909 102.518 78.046C102.533 78.1011 102.51 78.1562 102.455 78.172C101.745 78.424 100.294 78.4555 99.6621 78.4555L99.6699 78.4476Z" fill="#CE615A"/>
<path d="M99.6699 79.4634C99.4983 79.4634 99.389 79.4634 99.3656 79.4634C99.311 79.4634 99.2642 79.4162 99.2642 79.361C99.2642 79.3059 99.3188 79.2666 99.3656 79.2587C99.389 79.2587 101.519 79.2981 102.393 78.9909C102.447 78.9673 102.502 78.9988 102.518 79.0539C102.533 79.1091 102.51 79.1642 102.455 79.1878C101.737 79.4398 100.286 79.4713 99.6621 79.4713L99.6699 79.4634Z" fill="#CE615A"/>
<path d="M99.6699 80.4871C99.4983 80.4871 99.3812 80.4871 99.3656 80.4871C99.311 80.4871 99.2642 80.4399 99.2642 80.3848C99.2642 80.3296 99.3032 80.2903 99.3656 80.2824C99.389 80.2824 101.519 80.3218 102.393 80.0146C102.447 79.9989 102.502 80.0225 102.518 80.0776C102.533 80.1328 102.51 80.1879 102.455 80.2115C101.745 80.4635 100.294 80.495 99.6621 80.495L99.6699 80.4871Z" fill="#CE615A"/>
<path d="M99.6699 81.4085C99.4983 81.4085 99.3812 81.4085 99.3656 81.4085C99.311 81.4085 99.2642 81.3612 99.2642 81.3061C99.2642 81.251 99.3032 81.2037 99.3656 81.2037C99.389 81.2037 101.519 81.2431 102.393 80.936C102.447 80.9202 102.502 80.9439 102.518 80.999C102.533 81.0541 102.51 81.1092 102.455 81.1329C101.745 81.3848 100.294 81.4163 99.6621 81.4163L99.6699 81.4085Z" fill="#CE615A"/>
<path d="M99.6699 82.3456C99.4983 82.3456 99.3812 82.3456 99.3656 82.3456C99.311 82.3456 99.2642 82.2983 99.2642 82.2432C99.2642 82.1881 99.3032 82.1408 99.3656 82.1408C99.389 82.1408 101.519 82.1802 102.393 81.8731C102.447 81.8495 102.502 81.881 102.518 81.9361C102.533 81.9912 102.51 82.0463 102.455 82.0699C101.745 82.3219 100.294 82.3534 99.6621 82.3534L99.6699 82.3456Z" fill="#CE615A"/>
<path d="M99.6699 83.2275C99.4983 83.2275 99.389 83.2275 99.3656 83.2275C99.311 83.2275 99.2642 83.1803 99.2642 83.1251C99.2642 83.07 99.3188 83.0307 99.3656 83.0228C99.389 83.0228 101.519 83.0621 102.393 82.755C102.447 82.7393 102.502 82.7629 102.518 82.818C102.533 82.8732 102.51 82.9283 102.455 82.9519C101.737 83.2039 100.286 83.2354 99.6621 83.2354L99.6699 83.2275Z" fill="#CE615A"/>
<path d="M99.6699 84.4323C99.4983 84.4323 99.3812 84.4323 99.3656 84.4323C99.311 84.4323 99.2642 84.3851 99.2642 84.33C99.2642 84.2749 99.3032 84.2276 99.3656 84.2276C99.389 84.2276 101.519 84.267 102.393 83.9599C102.447 83.9441 102.502 83.9677 102.518 84.0229C102.533 84.078 102.51 84.1331 102.455 84.1489C101.745 84.4008 100.294 84.4323 99.6621 84.4323H99.6699Z" fill="#CE615A"/>
<path d="M42.6143 42.9406L36.7706 55.8945L34.7343 60.3988L24.6152 82.8417L22.9065 86.6136L20.6986 86.9286L22.5788 82.8417L32.8852 60.3988L34.9449 55.8945L40.8276 43.0981L42.6143 42.9406Z" fill="#4D4263"/>
<path d="M20.7064 86.9286L13.3647 89.48L26.238 89.7005L25.0287 88.8185L22.9611 86.4955L20.7064 86.9286Z" fill="#F79738"/>
<path d="M13.3647 89.48V90.8423H26.238V89.7005L13.3647 89.48Z" fill="#CA6428"/>
<path d="M36.7706 55.8945L34.7343 60.3988H32.8852L34.9449 55.8945H36.7706Z" fill="#263B7F"/>
<path d="M24.6152 82.8417L22.9065 86.6136L20.6986 86.9286L22.5788 82.8417H24.6152Z" fill="#263B7F"/>
<path d="M48.7388 24.128C48.7388 24.2855 48.6686 24.4115 48.5827 24.4115C48.4969 24.4115 48.4267 24.2855 48.4267 24.128C48.4267 23.9705 48.4969 23.8445 48.5827 23.8445C48.6686 23.8445 48.7388 23.9705 48.7388 24.128Z" fill="#993E3A"/>
<path d="M48.3643 29.1127C48.3643 29.2702 48.2941 29.3962 48.2083 29.3962C48.1224 29.3962 48.0522 29.2702 48.0522 29.1127C48.0522 28.9552 48.1224 28.8292 48.2083 28.8292C48.2941 28.8292 48.3643 28.9552 48.3643 29.1127Z" fill="#993E3A"/>
<path d="M49.3551 33.5304C49.3785 33.6879 49.3239 33.8218 49.2381 33.8296C49.1523 33.8375 49.0665 33.7273 49.0431 33.5698C49.0197 33.4123 49.0743 33.2784 49.1601 33.2705C49.2459 33.2627 49.3317 33.3729 49.3551 33.5304Z" fill="#993E3A"/>
<path d="M50.502 37.6882C50.5254 37.8457 50.4708 37.9796 50.385 37.9875C50.2992 38.0032 50.2134 37.8851 50.1899 37.7276C50.1665 37.5701 50.2212 37.4363 50.307 37.4284C50.3928 37.4126 50.4786 37.5308 50.502 37.6882Z" fill="#993E3A"/>
<path d="M51.29 40.7751C51.3134 40.9326 51.2588 41.0665 51.173 41.0744C51.0872 41.0822 51.0013 40.972 50.9779 40.8145C50.9545 40.657 51.0091 40.5231 51.095 40.5152C51.1808 40.4995 51.2666 40.6176 51.29 40.7751Z" fill="#993E3A"/>
<path d="M98.484 89.0942C98.9599 87.4169 100.544 86.401 102.026 86.8263C103.508 87.2515 104.335 88.9603 103.86 90.6376C103.384 92.3149 101.8 93.3308 100.317 92.9055C98.8351 92.4803 98.0081 90.7715 98.484 89.0942Z" fill="#5F1D16"/>
<path d="M101.004 92.1889C100.848 92.1889 100.684 92.1653 100.536 92.1259C100.044 91.9842 99.6387 91.6298 99.3968 91.118C99.1394 90.5825 99.0926 89.9446 99.2642 89.3225C99.5529 88.2831 100.411 87.5507 101.34 87.5507C101.496 87.5507 101.659 87.5743 101.808 87.6137C102.299 87.7555 102.705 88.1098 102.947 88.6217C103.204 89.165 103.251 89.8029 103.079 90.4171C102.783 91.4566 101.932 92.1889 101.004 92.1889Z" fill="#9FD8D4"/>
<g style="mix-blend-mode:multiply" opacity="0.5">
<path d="M98.3514 71.7541C98.3514 71.9352 98.211 72.077 98.0393 72.077H88.0372C87.8656 72.077 87.7173 71.9352 87.7173 71.7541C87.7173 71.5809 87.8578 71.4391 88.0372 71.4391H98.0393C98.211 71.4391 98.3514 71.5809 98.3514 71.7541Z" fill="#CE615A"/>
</g>
<path d="M98.3514 71.8722H97.1031L96.7442 69.5728C96.7442 69.5728 91.7509 68.8484 89.1373 69.8012L89.0437 71.8644H87.6939L87.8422 69.6279L87.9202 68.5255C87.9202 68.5255 94.7157 67.6593 98.0471 68.5255L98.1251 69.3445L98.3514 71.8644V71.8722Z" fill="#9B3C36"/>
<path d="M98.3514 71.8722H97.1031L96.7442 69.5728C96.7442 69.5728 91.7509 68.8484 89.1373 69.8012L89.0437 71.8644H87.6939L87.8422 69.628C88.6614 69.3287 90.6041 68.7302 93.0383 68.8011C95.3008 68.8641 97.1811 69.1712 98.1251 69.3523L98.3514 71.8722Z" fill="#872D2B"/>
<path d="M10.3454 59.5877L10.439 60.0602C10.4078 59.9106 10.3844 59.761 10.3532 59.6035V59.5877H10.3454Z" fill="#A89E9E"/>
<path d="M80.0792 66.7694C80.3445 66.7694 80.4849 66.7537 80.4849 66.7458H80.0792C80.0792 66.7458 80.0792 66.7616 80.0792 66.7694Z" fill="#A89E9E"/>
<path d="M81.6474 59.5247C81.7488 59.1783 81.8737 58.8475 82.0297 58.5325C81.8269 58.8003 81.6084 59.2727 81.3978 59.9263L81.5616 59.9106C81.5928 59.7846 81.6162 59.6507 81.6552 59.5247H81.6474Z" fill="#A89E9E"/>
<path d="M90.7991 57.3198C91.2906 58.2097 91.5481 58.9105 91.5949 59.0286C91.4233 58.4065 91.1502 57.8317 90.7991 57.3198Z" fill="#B9B0B0"/>
<path d="M86.0945 75.2977L89.2231 75.66L87.9124 88.7477L86.0945 87.9208V75.2977Z" fill="#FFC10D"/>
</g>
<defs>
<clipPath id="clip0_8_1574">
<rect width="104" height="93" fill="white"/>
</clipPath>
</defs>
</svg>
