<svg width="65" height="90" viewBox="0 0 65 90" fill="none" xmlns="http://www.w3.org/2000/svg">
<g clip-path="url(#clip0_8_1710)">
<path d="M52.8625 84.8815L52.3881 85.7844L52.2889 85.9763C52.2889 85.9763 50.1079 83.5592 47.7568 80.6161C45.4058 77.6801 40.9233 71.9147 38.9759 68.1682C37.0215 64.4218 31.7954 49.7275 31.7954 49.7275C31.7954 49.7275 31.7954 49.7275 31.7954 49.7488L28.7575 68.2251C29.501 70.1872 29.7914 73.4147 28.7575 78.5972C27.7236 83.7796 26.3498 89.0829 26.3498 89.0829L26.2649 89.0616L25.0256 88.7915C25.0256 88.7915 23.3615 75.0213 23.1915 62.6872C23.1774 61.5213 23.1703 60.391 23.1703 59.3104C23.1986 48.9171 24.0201 42.3412 23.928 42.2844C24.537 42.6469 26.3923 43.7986 27.405 43.8199C27.405 43.8199 27.4828 42.4408 27.582 40.5711C27.582 40.5711 27.582 40.564 27.582 40.5569L28.6442 40.5213L32.4469 40.3934L33.3675 40.3649C33.6507 42.2204 33.8348 43.8128 33.8348 43.8128C33.8348 43.8128 34.6067 43.8128 35.6264 43.6066C36.6462 43.4076 37.9137 43.0095 38.898 42.2346C39.7974 43.6137 41.0437 48.0569 41.4898 51.7962C41.9359 55.5427 43.4514 67.4147 43.4514 67.4147C43.4514 67.4147 46.4397 69.0284 47.9268 71.8507C49.421 74.673 52.8625 84.8744 52.8625 84.8744V84.8815Z" fill="#272B6A"/>
<path d="M52.8625 84.8815L52.3881 85.7844C51.3754 83.673 47.6719 74.3175 47.0629 72.8389C46.376 71.1682 42.5237 68.6872 42.5237 68.6872C42.5237 68.6872 41.0295 57.7962 39.7124 52.3791C38.3882 46.9621 37.241 44.1967 37.241 44.1967C36.0938 44.7156 33.3533 44.1967 33.3533 44.1967L32.4327 40.4005L33.3533 40.372C33.6366 42.2275 33.8207 43.8199 33.8207 43.8199C33.8207 43.8199 34.5926 43.8199 35.6123 43.6137C36.632 43.4147 37.8996 43.0166 38.8839 42.2417C39.7832 43.6209 41.0295 48.064 41.4757 51.8033C41.9218 55.5498 43.4372 67.4218 43.4372 67.4218C43.4372 67.4218 46.4256 69.0355 47.9126 71.8578C49.4068 74.6801 52.8484 84.8815 52.8484 84.8815H52.8625Z" fill="#202259"/>
<path d="M28.6371 40.5284L27.4545 44.9431C27.4545 44.9431 25.7621 45.0569 25.3018 45.4052C25.0398 45.6043 23.9988 52.9763 23.1561 59.3033C23.1845 48.91 24.0059 42.3341 23.9138 42.2773C24.5228 42.6398 26.3782 43.7915 27.3908 43.8128C27.3908 43.8128 27.4687 42.4337 27.5678 40.564C27.5678 40.564 27.5678 40.5569 27.5678 40.5498L28.63 40.5142L28.6371 40.5284Z" fill="#202259"/>
<path d="M28.7504 68.2251C29.4939 70.1872 29.7843 73.4147 28.7504 78.5971C27.7165 83.7796 26.3427 89.0829 26.3427 89.0829L26.2578 89.0616C26.6543 86.3744 27.3908 81.3554 27.5749 79.5711C27.8298 77.0972 28.2618 73.3507 28.1626 72.2559C28.0635 71.1611 27.4616 67.9336 27.4616 67.9336C27.4616 67.9336 29.0195 59.8081 29.9755 56.5237C30.889 53.3957 31.7175 50.0545 31.7883 49.7488L28.7504 68.2251Z" fill="#202259"/>
<path d="M13.6246 23.4739C13.5892 23.4739 13.5042 23.5735 13.3201 23.6943C13.0297 23.8863 12.5057 24.128 11.5568 24.0924C11.5002 24.0924 11.4435 24.0924 11.3869 24.0853C10.5229 24.0284 9.72981 23.7583 9.15622 23.5095C8.60387 23.2678 8.25688 23.0474 8.25688 23.0474C8.25688 23.0474 8.28521 22.7488 8.33478 22.2938C8.43392 21.327 8.60387 19.6493 8.70301 18.7038C8.76674 18.0498 8.61095 16.9194 8.441 15.8744C8.25688 14.7156 8.07277 13.6564 8.19315 13.5071C8.43392 13.2227 8.83047 14.8649 8.83047 14.8649C8.83047 14.8649 8.71717 12.5118 9.09249 12.2915C9.4678 12.0711 9.89268 14.0332 9.89268 14.0332C9.89268 14.0332 10.0343 10.9194 10.5512 10.7488C10.9549 10.6137 11.1815 11.9147 11.2665 12.4976C11.2877 12.6611 11.3019 12.7678 11.3019 12.7678C11.3019 12.7678 11.316 12.6185 11.3514 12.3839C11.4577 11.609 11.7409 9.93127 12.2508 9.97393C12.9093 10.0308 12.966 14.0047 12.966 14.0047C12.966 14.0047 13.5679 14.9289 13.4829 16.109C13.4617 16.4289 13.4263 16.7275 13.3838 16.9976C13.2776 17.7156 13.1501 18.2062 13.1076 18.2701C13.051 18.3554 13.2209 20.4881 13.3626 21.5545C13.5042 22.6208 13.6175 23.4739 13.6175 23.4739H13.6246Z" fill="#FFC40C"/>
<path d="M13.6246 23.4739C13.5892 23.4739 13.5042 23.5735 13.3201 23.6943C13.0297 23.8863 12.5057 24.128 11.5568 24.0924C11.6489 23.4953 11.9817 21.455 12.2295 20.4455C12.2295 20.4455 11.6843 21.3768 10.8912 21.782C10.3601 22.0521 9.10665 22.2156 8.33478 22.3009C8.43392 21.3341 8.60387 19.6564 8.70301 18.7109C8.76674 18.0569 8.61095 16.9265 8.441 15.8815L11.9109 16.6991L10.8912 14.0687C10.8912 14.0687 11.0469 12.8957 11.2665 12.4905C11.2877 12.4408 11.316 12.4052 11.3514 12.3768C11.4081 12.3341 11.4718 12.3483 11.5356 12.4621C11.8826 13.0806 13.1218 16.0592 13.3909 16.9905C13.2847 17.7085 13.1572 18.1991 13.1147 18.263C13.0581 18.3483 13.228 20.481 13.3696 21.5474C13.5113 22.6137 13.6246 23.4668 13.6246 23.4668V23.4739Z" fill="#E6AB23"/>
<path d="M28.7504 25.6706C28.7504 25.6706 28.0918 28.4929 27.9715 32.0118C27.9077 34.0877 27.7165 37.8412 27.5749 40.564V40.5782C27.4758 42.4479 27.3979 43.827 27.3979 43.827C26.3852 43.8057 24.5299 42.654 23.9209 42.2915C23.8076 42.2275 23.7368 42.1848 23.7226 42.1848C23.6377 42.1848 23.9492 39.4763 24.0696 37.2299C24.1263 36.1351 24.1971 34.2299 24.2537 32.545C24.3104 30.7678 24.36 29.2464 24.36 29.2464C23.6093 28.955 22.7525 28.1232 22.6179 26.9005C22.5471 26.2038 22.7383 25.0592 22.9649 23.9431C23.142 23.09 23.3402 22.2654 23.4677 21.6682C23.758 20.282 23.1207 17.609 23.1207 17.6019C23.4252 17.3104 23.6943 17.1114 23.9846 17.019C24.0696 16.9905 24.19 16.9692 24.3387 16.955C24.3529 16.955 24.367 16.955 24.3812 16.955C24.3883 16.955 24.4024 16.955 24.4095 16.955C24.4874 16.9479 24.5653 16.9408 24.6432 16.9336C25.4646 16.8768 26.7181 16.9265 27.6386 16.9692C27.4828 17.09 27.15 17.3673 27.1075 17.5237C27.0509 17.7299 27.0226 19.7701 27.4191 21.846C27.8228 23.9218 28.7433 25.6777 28.7433 25.6777L28.7504 25.6706Z" fill="#F79738"/>
<path d="M24.2537 32.545C24.3104 30.7678 24.36 29.2464 24.36 29.2464C23.6093 28.955 22.7525 28.1232 22.6179 26.9005C22.5471 26.2038 22.7383 25.0592 22.9649 23.9431C23.1632 25.3081 23.8289 28.827 25.6558 30.0213L24.2537 32.545Z" fill="#E18726"/>
<path d="M39.2875 41.8934C39.16 42.0142 39.0326 42.128 38.891 42.2417C36.9152 43.7986 33.8278 43.827 33.8278 43.827C33.8278 43.827 33.6436 42.2346 33.3604 40.3791C33.2683 39.782 33.1692 39.1493 33.0488 38.545C32.9284 37.8554 32.7868 37.1943 32.6452 36.6114C32.6027 36.4194 32.5531 36.2346 32.5035 36.064C31.7812 33.5118 30.2658 25.7062 30.2942 25.6208C30.3225 25.5355 32.1636 23.2891 32.8789 21.2701C33.3533 19.9265 33.2683 18.4692 33.148 17.6445C33.1055 17.3317 33.0559 17.1185 33.0347 17.0261H33.4808C33.4808 17.0261 36.0513 17.2536 37.935 17.6232C37.7863 17.9929 37.5313 18.7393 37.326 19.9763C37.1631 20.9716 37.1631 22.5213 37.1985 23.7796C37.2339 24.9242 37.3047 25.8128 37.3047 25.8199C37.1985 26.8507 36.8374 33.5474 37.1206 35.1611C37.2552 35.9218 37.7438 37.4716 38.2182 38.8863C38.7564 40.4716 39.2733 41.9005 39.2733 41.9005L39.2875 41.8934Z" fill="#F79738"/>
<path d="M38.2324 38.8791C37.1135 38.673 35.5485 38.3815 34.7908 38.2038C34.1748 38.0616 33.5374 38.282 33.0488 38.5379C32.9284 37.8483 32.7868 37.1872 32.6452 36.6043L32.7797 36.5474L36.6391 36.7536C35.7468 34.0877 36.115 29.7227 36.115 29.7227C35.1166 30.1209 33.4879 29.7227 33.4879 29.7227C33.4879 29.7227 34.7625 29.4739 35.6335 28.1659C36.4266 26.9787 37.0852 24.2701 37.2056 23.7725C37.241 24.9099 37.3118 25.8057 37.3118 25.8057C37.2056 26.8365 36.8444 33.5332 37.1277 35.1469C37.2622 35.9076 37.7508 37.4573 38.2253 38.872L38.2324 38.8791Z" fill="#E18726"/>
<path d="M33.3604 40.372C33.2117 40.4431 32.8647 40.4929 32.4115 40.5284C31.4272 40.6066 29.933 40.6066 28.8 40.5924C28.2972 40.5924 27.8652 40.5782 27.5749 40.5711C27.7236 37.8483 27.9077 34.0877 27.9715 32.0047C27.9927 31.2654 28.0423 30.5616 28.106 29.9076C28.3255 27.5261 28.715 25.8128 28.7433 25.6777C28.7433 25.6777 27.8227 23.9076 27.4191 21.8389C27.2562 21 27.1642 20.1682 27.1146 19.4573C27.1146 19.3578 27.1004 19.2654 27.0934 19.173C27.0438 18.2772 27.065 17.6232 27.0934 17.5166C27.1359 17.3602 27.4687 17.0829 27.6245 16.9621C27.9573 16.9834 28.2547 16.9976 28.4601 17.0118C28.5167 17.0118 28.5663 17.0118 28.6159 17.019C28.538 17.2536 27.5182 17.5877 27.7378 18.0995C27.936 18.5616 28.4672 19.4858 30.11 19.2512C31.4201 19.0663 32.5531 18.4194 33.1338 17.6445C33.1834 18 33.2329 18.4692 33.2258 18.9953C33.2258 19.0806 33.2258 19.173 33.2258 19.2654C33.2046 19.8981 33.1055 20.5948 32.8647 21.2701C32.1495 23.2891 30.3154 25.5355 30.28 25.6208C30.28 25.6706 30.3296 25.9621 30.4145 26.4313C30.4216 26.481 30.4287 26.5237 30.4429 26.5735C30.8536 28.7488 31.9158 34.045 32.4894 36.0569C32.808 37.1943 33.1055 38.872 33.3391 40.372H33.3604Z" fill="#A6DDEB"/>
<path d="M44.6056 34.9692C44.6056 34.9692 43.9612 33.8886 42.3892 33.1564C42.0209 32.9858 41.681 32.8507 41.3624 32.7441C40.5622 32.4668 39.9461 32.3602 39.6982 32.3246H39.6911C39.6133 32.3175 39.5708 32.3104 39.5708 32.3104C39.5708 32.3104 39.5708 32.2962 39.5708 32.2891C39.5354 32.1611 39.4787 31.9905 39.4079 31.7773C39.3937 31.7275 39.3725 31.6706 39.3583 31.6137C38.9476 30.3768 38.1474 28.109 37.673 26.7583C37.5313 26.3602 37.418 26.0403 37.3543 25.8554C37.3472 25.827 37.333 25.7986 37.326 25.7772C37.326 25.7772 37.3118 25.5711 37.2906 25.2299C37.2197 24.0711 37.0994 21.3981 37.3472 19.9408C37.5526 18.7038 37.8075 17.9502 37.9562 17.5806C38.7989 17.7441 39.507 17.936 39.7832 18.1493C40.6755 18.8389 42.6795 24.3981 43.2248 26.8507C43.5505 28.3081 43.9825 30.9171 44.2799 32.7796C44.294 32.872 44.3082 32.9573 44.3224 33.0498C44.4357 33.7393 44.5207 34.3081 44.5702 34.6422C44.6056 34.8483 44.6198 34.9763 44.6198 34.9763L44.6056 34.9692Z" fill="#A6DDEB"/>
<path d="M23.4748 21.6682C23.3332 22.3436 23.0924 23.3104 22.9083 24.2701C22.71 25.2796 22.5613 26.2749 22.625 26.9005L22.5259 26.7654C22.5259 26.7654 19.8279 29.1043 16.7262 30.0498C15.6782 30.3697 14.8497 30.5545 14.2194 30.6469C14.1486 30.654 14.0849 30.6682 14.0211 30.6754C12.9235 30.8246 12.4845 30.7109 12.527 30.6896C12.527 30.6896 12.8244 30.0924 13.1572 29.2962C13.5963 28.2583 14.099 26.8863 14.099 26.0829C14.099 25.9905 14.099 25.8981 14.0849 25.8057L14.1274 25.6991C14.2265 25.6422 14.446 25.4716 14.7576 25.2227C14.8001 25.1872 14.8497 25.1445 14.8992 25.1019C16.4501 23.8436 19.7641 20.9645 21.0105 19.7844C21.9877 18.8531 22.6109 18.0924 23.1349 17.5877C23.1349 17.5877 23.7793 20.2678 23.4819 21.654L23.4748 21.6682Z" fill="#A6DDEB"/>
<path d="M22.625 26.9005L22.5259 26.7654C22.5259 26.7654 19.8279 29.1043 16.7262 30.0498C15.6782 30.3697 14.8497 30.5545 14.2194 30.6469C14.1486 30.654 14.0849 30.6682 14.0211 30.6754C12.9235 30.8246 12.4845 30.7109 12.527 30.6896C12.527 30.6896 12.8244 30.0924 13.1572 29.2962C14.3186 29.1327 16.4005 28.7062 18.5391 27.5972C20.2173 26.7299 21.7894 25.3294 22.9083 24.2701C22.71 25.2796 22.5613 26.2749 22.625 26.9005Z" fill="#66C8CE"/>
<path d="M41.3623 32.737L39.6982 32.3175H39.6911L39.5708 32.2891C39.5354 32.1611 39.4787 31.9905 39.4079 31.7772C39.3937 31.7275 39.3725 31.6706 39.3583 31.6137C38.9476 30.3768 37.8004 27.1208 37.326 25.7772L37.6729 23.7014L41.3694 32.7441L41.3623 32.737Z" fill="#66C8CE"/>
<path d="M29.0691 26.6943L28.8 40.5995C28.2972 40.5995 27.8652 40.5853 27.5749 40.5782C27.7236 37.8554 27.9077 34.0948 27.9714 32.0118C27.9927 31.2725 27.9502 30.3839 28.0139 29.7227L28.7504 25.6777L29.0691 26.6872V26.6943Z" fill="#66C8CE"/>
<path d="M33.3604 40.372C33.2117 40.4431 32.8647 40.4929 32.4115 40.5284C32.1141 38.3886 31.0306 30.7251 30.8323 29.1469C30.712 28.173 30.5633 27.2346 30.457 26.5735C30.8678 28.7488 31.93 34.045 32.5036 36.0569C32.8222 37.1943 33.1196 38.872 33.3533 40.372H33.3604Z" fill="#66C8CE"/>
<path d="M36.115 11.872C36.0725 11.9573 36.0301 12.0426 35.9805 12.128C35.0033 13.827 32.5743 16.2725 31.6608 16.5071C31.5971 15.8389 31.4342 14.2678 31.2643 13.2085C31.6113 12.5332 31.8308 11.7796 31.845 11.0403C31.845 11.0403 33.1054 10.4929 33.4099 9.56871C33.5941 9.02132 33.4029 8.218 33.1338 7.6635C32.9497 7.27961 32.7372 7.01658 32.5885 7.0308C32.5602 7.0308 32.5177 7.05212 32.4823 7.08056C32.0928 7.35781 31.4555 8.76539 31.4555 8.76539C31.4555 8.76539 30.5774 6.53317 29.6993 5.80805C28.8141 5.07582 28.2051 4.61373 27.5961 5.23222C26.9801 5.84359 26.4773 6.21326 26.1444 6.38388C25.238 6.83174 23.9988 6.99525 23.6943 7.22985C23.5173 7.36492 23.3969 8.50236 23.5173 9.86729C23.4889 9.83885 23.4394 9.78198 23.3685 9.69667C23.0428 9.25592 22.3417 8.08293 22.2284 6.69667C22.0868 5.02606 23.064 3.67535 23.6943 3.2417C24.3245 2.80805 25.1885 3.01421 25.1885 3.01421C25.1885 3.01421 26.6543 0.909943 28.9203 0.909943C31.1864 0.909943 34.0898 4.25118 35.4919 6.06397C36.8302 7.79146 36.9436 10.1943 36.115 11.8862V11.872Z" fill="#721813"/>
<path d="M31.4697 8.7583C31.4697 8.7583 30.5916 6.52607 29.7135 5.80095C28.8283 5.06872 28.2193 4.60664 27.6103 5.22512C26.9942 5.8365 26.4914 6.20616 26.1586 6.37678C25.2522 6.82465 24.013 6.98816 23.7085 7.22275C23.5314 7.35782 23.411 8.49526 23.5314 9.86019C23.5031 9.83176 23.4535 9.77489 23.3827 9.68958C23.1986 8.99289 22.8162 7.79858 23.1278 7.22275C23.5456 6.45498 25.146 6.5474 26.2648 5.99289C27.3837 5.43839 27.5112 3.92417 29.4373 4.94076C30.1738 5.33176 31.328 6.0782 32.4965 7.08057C32.107 7.35782 31.4697 8.76541 31.4697 8.76541V8.7583Z" fill="#581210"/>
<path d="M36.1151 11.872C36.0726 11.9574 36.0301 12.0427 35.9805 12.128C35.0033 13.827 32.5744 16.2725 31.6609 16.5071C31.5971 15.8389 31.4343 14.2678 31.2643 13.2085C31.6113 12.5332 31.8308 11.7796 31.845 11.0403C31.845 11.0403 33.1055 10.4929 33.41 9.56873C33.5941 9.02133 33.4029 8.21802 33.1338 7.66351C34.3872 8.84361 35.5485 10.2938 36.108 11.872H36.1151Z" fill="#581210"/>
<path d="M33.155 17.6374C32.5673 18.4194 31.4413 19.0592 30.1313 19.2441C28.4884 19.4716 27.9573 18.5545 27.759 18.0924C27.5395 17.5806 28.5663 17.2464 28.6371 17.0118C28.6513 16.9621 28.6371 16.8483 28.6088 16.6919C28.5521 16.4005 28.4247 15.9881 28.3114 15.6611C28.8283 15.6043 29.3523 15.3554 29.8268 14.9929C30.3296 14.6019 30.7828 14.0758 31.1298 13.4716C31.1793 13.3791 31.236 13.2938 31.2785 13.2014C31.2926 13.2654 31.2997 13.3294 31.3139 13.4005C31.4413 14.2749 31.5617 15.4123 31.6396 16.1232C31.6538 16.2654 31.6679 16.3934 31.675 16.5C31.6963 16.699 31.7033 16.8199 31.7033 16.8199L33.0346 16.9621C33.0346 16.9621 33.0346 16.9834 33.0488 17.0118C33.07 17.1043 33.1196 17.3246 33.1621 17.6303L33.155 17.6374Z" fill="#F1B5AB"/>
<path d="M31.6325 16.1303C30.6482 16.5498 29.2957 16.6635 28.6017 16.699C28.5451 16.4076 28.4176 15.9953 28.3043 15.6682C28.8212 15.6114 29.3453 15.3626 29.8197 15C30.3225 14.609 30.7757 14.0829 31.1227 13.4787L31.2997 13.4076C31.4272 14.282 31.5476 15.4194 31.6255 16.1303H31.6325Z" fill="#E98582"/>
<path d="M33.4171 9.56872C33.1126 10.4929 31.8521 11.0403 31.8521 11.0403C31.8379 11.7796 31.6255 12.5332 31.2714 13.2085C30.9102 13.9194 30.4004 14.5521 29.8197 15C29.6993 15.0924 29.5789 15.1777 29.4515 15.2559C29.0832 15.4834 28.6938 15.6327 28.3043 15.6754H28.2901C26.5269 15.8673 25.0398 14.9858 24.1546 12.7536C23.8005 11.8507 23.6023 10.7986 23.5244 9.86019C23.404 8.49526 23.5244 7.35782 23.7014 7.22275C24.0059 6.99526 25.2451 6.82464 26.1516 6.37678C26.4915 6.20616 26.9942 5.83649 27.6032 5.22512C27.9715 4.84834 28.3468 4.87677 28.7787 5.11848C29.0549 5.27488 29.3594 5.51659 29.7064 5.80805C30.5845 6.53317 31.4626 8.7654 31.4626 8.7654C31.4626 8.7654 32.2274 7.07346 32.5956 7.03791C32.9638 6.99526 33.7216 8.65166 33.4171 9.57583V9.56872Z" fill="#F1B5AB"/>
<path d="M33.4171 9.56872C33.1126 10.4929 31.8521 11.0403 31.8521 11.0403C31.8379 11.7796 31.6255 12.5332 31.2714 13.2085C30.9102 13.9194 30.4004 14.5521 29.8197 15C29.6993 15.0924 29.5789 15.1777 29.4515 15.2559C29.9613 14.2251 30.7969 12.2701 30.8394 10.4645C30.8819 8.58768 29.5294 6.25593 28.7787 5.11848C29.0549 5.27488 29.3594 5.51659 29.7064 5.80806C30.5845 6.53318 31.4626 8.7654 31.4626 8.7654C31.4626 8.7654 32.2274 7.07346 32.5956 7.03792C32.9638 6.99526 33.7216 8.65166 33.4171 9.57583V9.56872Z" fill="#F5948D"/>
<path d="M14.099 26.0829C14.099 26.481 13.9786 27.0284 13.7945 27.5972C13.3413 29.0474 12.527 30.6896 12.527 30.6896C12.4561 30.7251 12.3712 30.7393 12.2791 30.7464C11.5072 30.8033 10.268 29.9076 9.5811 28.045C8.81631 25.9692 8.96502 23.7014 9.0075 23.4739C9.0075 23.4739 9.05707 23.4882 9.15621 23.5095C9.72981 23.7583 10.5229 24.0284 11.3868 24.0853C11.571 24.0995 11.748 24.0995 11.9109 24.0924C12.6403 24.064 13.0722 23.8578 13.3201 23.6943C13.5538 24.0853 13.9999 24.9242 14.0778 25.8057C14.0849 25.8981 14.0919 25.9905 14.0919 26.0829H14.099Z" fill="#F1B5AB"/>
<path d="M14.099 26.0829C14.099 26.481 13.9786 27.0284 13.7945 27.5972C13.5183 26.1825 12.6048 24.8673 11.9109 24.0924C12.6402 24.064 13.0722 23.8578 13.3201 23.6943C13.5537 24.0853 13.9999 24.9242 14.0778 25.8057C14.0848 25.8981 14.0919 25.9905 14.0919 26.0829H14.099Z" fill="#F5948D"/>
<path d="M44.0958 36.3412C43.4655 36.7109 41.0154 37.045 38.9193 37.0308C38.9334 36.7536 38.9051 36.1919 38.8626 35.5592C38.7706 34.2512 38.6077 32.6374 38.6077 32.6374C38.7139 32.6374 39.2663 32.3744 39.6911 32.3175C40.0311 32.3673 41.0933 32.545 42.3892 33.1493C43.5222 33.6825 44.1807 34.3863 44.4569 34.7417C44.5631 34.8839 44.6127 34.9621 44.6127 34.9621C44.6269 35.2891 44.6056 36.0427 44.1028 36.3341L44.0958 36.3412Z" fill="#F1B5AB"/>
<path d="M44.0958 36.3412C43.4655 36.7109 41.0154 37.045 38.9193 37.0308C38.9335 36.7535 38.9051 36.1919 38.8626 35.5592C40.9729 35.9147 41.6173 35.8649 42.7574 35.5592C43.3593 35.3957 43.9754 35.0545 44.4499 34.7488C44.5561 34.891 44.6056 34.9692 44.6056 34.9692C44.6198 35.2962 44.5986 36.0498 44.0958 36.3412Z" fill="#F5948D"/>
<path d="M29.2673 7.92654C29.2673 7.92654 28.4317 7.37915 27.5182 7.72749C26.5977 8.07583 26.8313 8.47393 27.1429 8.5308C27.4616 8.58768 28.892 7.95497 29.2673 7.92654Z" fill="#721813"/>
<path d="M25.2239 8.85781C25.0469 8.77251 24.098 8.43838 23.4748 9.41942L23.5102 9.88151C23.5102 9.88151 24.1546 9.37677 24.6645 9.24881C25.1672 9.12085 25.4151 8.94312 25.2239 8.85781Z" fill="#721813"/>
<path d="M24.4166 16.9405C24.4874 16.9405 24.5724 16.9265 24.6503 16.9194C24.5653 16.9194 24.4874 16.9335 24.4166 16.9405Z" fill="#804F4A"/>
<path d="M24.3387 16.9479C23.9138 16.9905 23.6164 17.09 23.1278 17.5948C23.4323 17.3033 23.7014 17.1043 23.9917 17.0118C24.0767 16.9834 24.1971 16.9621 24.3458 16.9479H24.3387Z" fill="#5E3431"/>
<path d="M44.5915 34.8057C44.5915 34.8057 44.5915 34.7488 44.5561 34.6351C44.5915 34.8483 44.6056 34.9692 44.6056 34.9692C44.6056 34.8697 44.5915 34.8057 44.5915 34.8057Z" fill="#F1B5AB"/>
<path d="M24.629 10.4645C24.629 10.7844 24.5086 11.0403 24.367 11.0403C24.2254 11.0403 24.105 10.7844 24.105 10.4645C24.105 10.1446 24.2254 9.88863 24.367 9.88863C24.5086 9.88863 24.629 10.1446 24.629 10.4645Z" fill="#1E1724"/>
<path d="M27.3766 9.72512C27.3766 10.045 27.2562 10.301 27.1146 10.301C26.973 10.301 26.8526 10.045 26.8526 9.72512C26.8526 9.40522 26.973 9.14929 27.1146 9.14929C27.2562 9.14929 27.3766 9.40522 27.3766 9.72512Z" fill="#1E1724"/>
<path d="M26.2648 13.6564C26.2648 13.6564 26.7464 13.7488 27.5678 13.4858C28.3892 13.2156 29.4373 12.4692 29.4373 12.4692C29.4373 12.4692 28.892 14.3104 27.9502 14.5806C27.0155 14.8507 26.2648 13.6564 26.2648 13.6564Z" fill="white"/>
<path d="M25.061 12.9881C25.061 12.9881 25.0327 12.9881 25.0185 12.9668C25.0044 12.9526 25.0044 12.9313 25.0044 12.9171C25.0044 12.9171 25.1177 12.3697 25.231 11.4597C25.3443 10.5569 25.231 9.33412 25.231 9.3199C25.231 9.29146 25.2522 9.26303 25.2805 9.25592C25.3159 9.25592 25.3372 9.27725 25.3443 9.30568C25.3443 9.3199 25.4576 10.5569 25.3443 11.4739C25.2593 12.1848 25.1672 12.6754 25.1318 12.8602C25.3726 12.8175 26.0807 12.6611 26.2082 12.2986C26.2224 12.2701 26.2507 12.2559 26.279 12.263C26.3073 12.2772 26.3215 12.3057 26.3144 12.3341C26.1303 12.8389 25.1035 12.981 25.061 12.9881C25.061 12.9881 25.061 12.9881 25.0539 12.9881H25.061Z" fill="#983222"/>
<path d="M31.8875 10.3791C31.8875 10.3791 31.8308 10.3507 31.8308 10.3223C31.8733 9.46209 32.5177 8.19668 32.546 8.13981C32.5602 8.11137 32.5956 8.10427 32.6239 8.11137C32.6523 8.12559 32.6664 8.16114 32.6452 8.18957C32.6452 8.20379 31.9866 9.48341 31.9441 10.3223C31.9441 10.3507 31.9158 10.3791 31.8875 10.3791Z" fill="#983222"/>
<path d="M32.1424 9.78199C32.0928 9.78199 32.0574 9.77488 32.0291 9.76777C32.0291 9.76777 32.0291 9.76777 32.022 9.76777C32.0079 9.76777 31.9937 9.77488 31.9795 9.76777C31.9512 9.76777 31.93 9.73222 31.937 9.69668C31.9512 9.6327 32.022 9.64691 32.0433 9.64691C32.1141 9.66113 32.2769 9.68957 32.5673 9.49052C32.6381 9.44075 32.6735 9.38388 32.6735 9.32701C32.6735 9.14928 32.3761 8.94312 32.2699 8.87914C32.2415 8.86492 32.2345 8.82938 32.2486 8.80094C32.2628 8.77251 32.2982 8.7654 32.3265 8.77962C32.3761 8.80805 32.7797 9.05687 32.7868 9.32701C32.7868 9.43364 32.7372 9.51895 32.631 9.59004C32.4044 9.74644 32.2415 9.77488 32.1353 9.77488L32.1424 9.78199Z" fill="#983222"/>
<path d="M33.2471 18.9882C33.2471 19.0735 33.2471 19.1659 33.2471 19.2583C32.6239 19.8839 31.5829 20.4313 30.0959 20.4455H30.0392C28.5734 20.4455 27.6528 19.9763 27.1288 19.4574C27.1288 19.3578 27.1146 19.2654 27.1075 19.173C27.5253 19.6848 28.3892 20.282 30.0888 20.2749C31.7246 20.2607 32.716 19.6066 33.2471 18.9953V18.9882Z" fill="#1E2D58"/>
<path d="M15.0763 27.8815C14.9205 28.9123 14.5239 29.9573 14.2123 30.654C14.1415 30.6611 14.0778 30.6754 14.0141 30.6825C14.3186 30 14.7434 28.9194 14.9063 27.8602C15.0763 26.7441 14.8922 25.7773 14.7435 25.2299C14.7859 25.1943 14.8355 25.1517 14.8851 25.109C15.048 25.6564 15.2533 26.673 15.0692 27.8815H15.0763Z" fill="#1E2D58"/>
<path d="M37.3118 25.8555C37.2693 25.8555 37.2268 25.8199 37.2268 25.7773C37.2197 25.6706 37.5101 22.5 38.197 20.9787C38.2182 20.936 38.2678 20.9147 38.3103 20.936C38.3527 20.9574 38.374 21.0071 38.3528 21.0498C37.68 22.5284 37.3897 25.6137 37.3897 25.7701C37.3897 25.8199 37.3543 25.8555 37.3118 25.8555Z" fill="#1E2D58"/>
<path d="M31.7529 25.6777L32.1353 26.9858L35.9451 26.8507L35.8106 25.4716L31.7529 25.6777Z" fill="#D64E27"/>
<path d="M34.7908 29.6445C34.7554 29.6445 34.72 29.6232 34.7058 29.5877C34.6917 29.545 34.72 29.4953 34.7625 29.481C36.9294 28.7773 37.1489 26.7938 37.156 26.7725C37.156 26.7227 37.2056 26.6872 37.248 26.6943C37.2976 26.6943 37.333 26.737 37.3259 26.7867C37.3259 26.8081 37.0923 28.9123 34.8191 29.6445C34.8121 29.6445 34.7979 29.6445 34.7908 29.6445Z" fill="#47211F"/>
<path d="M25.1318 29.7228C25.1318 29.7228 25.1106 29.7228 25.1035 29.7228C25.0539 29.7014 23.8005 29.1896 23.4111 28.7133C23.3827 28.6777 23.3827 28.6209 23.4181 28.5924C23.4535 28.564 23.5102 28.564 23.5385 28.6066C23.9068 29.0474 25.1531 29.5592 25.1672 29.5664C25.2097 29.5806 25.231 29.6374 25.2168 29.6801C25.2026 29.7156 25.1743 29.737 25.1389 29.737L25.1318 29.7228Z" fill="#47211F"/>
<path d="M44.3082 33.0427C42.3112 31.2227 40.2435 31.5355 39.4008 31.7701C39.3866 31.7204 39.3654 31.6706 39.3512 31.6066C40.2081 31.372 42.2617 31.0592 44.2728 32.7796C44.287 32.872 44.3011 32.9573 44.3153 33.0498L44.3082 33.0427Z" fill="#1E2D58"/>
<path d="M13.0085 14.1327C13.0085 14.1327 12.9519 14.1114 12.9448 14.0758C12.8102 13.4005 12.0667 12.2559 11.7693 12.2559H11.7551C11.7197 12.2559 11.6843 12.2915 11.656 12.3412C11.4789 12.6185 11.5285 13.4076 11.5568 13.5213C11.571 13.5569 11.5497 13.5924 11.5143 13.6066C11.4789 13.6209 11.4435 13.5995 11.4294 13.564C11.401 13.4645 11.3302 12.6114 11.5427 12.2773C11.5922 12.192 11.663 12.1493 11.7339 12.1351C12.1729 12.064 12.9519 13.4431 13.0722 14.0616C13.0793 14.0972 13.0581 14.1327 13.0227 14.1398C13.0227 14.1398 13.0156 14.1398 13.0085 14.1398V14.1327Z" fill="#5C2F2C"/>
<path d="M12.527 19.2583C12.527 19.2583 12.2225 19.9052 11.3585 20.7441C10.4946 21.5901 8.05152 23.1683 7.20884 23.6446C6.36615 24.128 5.52347 24.263 5.35352 23.7583C5.31103 23.6303 5.30395 23.4028 5.33227 23.1256C5.40309 22.3294 5.71467 21.0995 5.98376 20.5308C6.34491 19.763 6.0829 19.173 6.1962 18.2488C6.3095 17.3246 6.79104 17.5024 7.13094 17.4028C7.47793 17.3033 7.54875 16.4787 8.24272 15.9028C8.92961 15.327 9.82895 14.5948 10.2326 14.0972C10.5371 13.7204 10.8133 13.3578 11.1248 13.2014C11.2311 13.1446 11.3373 13.1161 11.4577 13.1161C11.4577 13.1161 11.663 14.0403 11.8188 14.8863C11.9746 15.7322 12.527 16.7133 12.527 16.7133C12.6403 17.1967 12.527 19.2583 12.527 19.2583Z" fill="#EE3852"/>
<path d="M12.527 19.2583C12.527 19.2583 12.2225 19.9052 11.3585 20.7441C10.4946 21.5901 8.05152 23.1683 7.20884 23.6446C6.36615 24.128 5.52347 24.263 5.35352 23.7583C5.31103 23.6303 5.30395 23.4028 5.33227 23.1256C6.89018 22.3365 8.86588 21.0427 9.41115 20.4455C10.2184 19.5711 10.792 17.1683 10.8912 16.4574C10.9832 15.846 10.8416 14.2607 11.1248 13.2014C11.2311 13.1446 11.3373 13.1161 11.4577 13.1161C11.4577 13.1161 11.663 14.0403 11.8188 14.8863C11.9746 15.7322 12.527 16.7133 12.527 16.7133C12.6403 17.1967 12.527 19.2583 12.527 19.2583Z" fill="#DB2245"/>
<path d="M54.6966 86.8222C54.6966 86.8222 54.3779 87.199 53.9247 87.6895C53.3936 88.2724 52.6926 89.0118 52.1331 89.4739C51.1063 90.3198 50.5611 89.8933 50.5611 89.8933C50.9081 89.5876 52.1331 85.8127 52.1331 85.8127L52.3881 85.4857L52.8554 84.8814L54.6895 86.8222H54.6966Z" fill="#D64E27"/>
<path d="M54.6966 86.8223C54.6966 86.8223 54.3779 87.199 53.9247 87.6896L52.3881 85.4787L52.8554 84.8744L54.6895 86.8152L54.6966 86.8223Z" fill="#BF3A27"/>
<path d="M26.3427 89.0829V89.8934H21.1025C21.1025 89.8934 21.8673 88.5071 23.6306 88.3934C24.6149 88.3294 25.3443 88.5498 25.7975 88.763C26.1586 88.9265 26.3427 89.0829 26.3427 89.0829Z" fill="#D64E27"/>
<path d="M26.3427 89.0829V89.8934H24.4237C24.9052 89.4953 25.4292 89.0616 25.7975 88.763C26.1586 88.9265 26.3427 89.0829 26.3427 89.0829Z" fill="#BF3A27"/>
<path d="M48.9607 0H47.2965V89.3246H48.9607V0Z" fill="#A6D6B4"/>
<path d="M19.7004 0H18.0363V89.3246H19.7004V0Z" fill="#A6D6B4"/>
<path opacity="0.4" d="M18.8719 0H0V89.3246H18.8719V0Z" fill="url(#paint0_linear_8_1710)"/>
<path opacity="0.1" d="M65 0.284363H19.2684V89.609H65V0.284363Z" fill="#B2DBDB"/>
<path opacity="0.2" d="M13.0014 7.03081C13.0014 7.03081 10.4946 8.41706 10.3813 8.06872C10.268 7.72038 10.438 7.08768 9.43241 7.5782C8.43394 8.06872 7.40005 8.07583 7.22302 8.06872C7.05307 8.06872 7.05307 9.98104 5.90588 10.4645C4.7587 10.9479 5.21899 9.50474 4.872 9.96683C4.52501 10.4289 4.24176 11.872 4.0718 11.5237C3.90185 11.1754 3.20788 11.6374 3.09457 12.3555C2.98127 13.0806 3.32118 14.4739 2.81132 14.0616C2.29438 13.6493 1.60748 13.237 1.31715 14.1398C1.02681 15.0355 1.94739 18.1706 2.40768 19.7133C2.86797 21.2559 1.72079 22.7915 1.77744 23.4668C1.83409 24.1351 3.27161 23.4242 3.15831 24.0711C3.045 24.718 1.66413 27.3057 2.23773 27.5047C2.81132 27.7109 2.81132 27.981 3.27161 28.1588C3.7319 28.3436 4.41879 26.4171 4.65248 26.9787C4.87908 27.5332 4.90033 28.7204 5.31813 28.564C5.74301 28.4005 6.4299 27.0071 6.4299 27.5901C6.4299 28.173 6.66359 29.2038 7.63374 28.7773C8.61097 28.3436 8.83049 27.2417 8.95088 27.5047C9.07126 27.7678 9.53155 28.6422 10.6787 27.8886C11.8259 27.1351 12.1446 26.2251 12.527 26.5664C12.9164 26.9076 13.6954 26.6019 14.0211 25.4005C14.3469 24.1991 13.9645 22.3507 14.5877 22.5853C15.2108 22.8128 15.3241 22.8768 15.8411 21.6611C16.358 20.4526 14.5239 18.8104 15.1542 18.59C15.7844 18.3768 15.9544 18.0071 16.705 17.2678C17.4485 16.5284 17.6822 14.5379 16.9387 14.609C16.1951 14.6872 15.3312 14.282 15.8481 13.8199C16.3651 13.3578 17.2857 11.3389 16.3651 11.4597C15.4445 11.5735 14.4744 10.8555 15.1612 10.1801C15.8481 9.50474 14.7789 7.50711 14.5947 8.10427C14.4106 8.70142 13.3201 9.22749 13.2068 8.53081C13.0935 7.83412 13.5679 7.31517 13.0156 7.03081H13.0014Z" fill="#7EC9D4"/>
<path d="M35.2795 46.5995C35.2795 46.5995 34.9183 47.3886 33.757 47.9502C33.4029 48.1209 32.9638 48.2772 32.4398 48.3839C30.2233 48.8246 29.062 47.6517 29.062 47.6517C29.062 47.6517 28.1343 41.9502 28.021 40.372C27.9077 38.7938 29.1328 37.436 29.1682 37.3791C29.1682 37.3791 29.4586 37.3791 30.6057 37.2654C30.8961 37.237 31.1581 37.1943 31.3776 37.1445C32.0291 37.0024 32.369 36.8175 32.369 36.8175C33.325 37.0948 33.8986 38.4242 34.3589 40.109C34.8192 41.8009 35.2795 46.5995 35.2795 46.5995Z" fill="#D64E27"/>
<path d="M32.369 36.8104C31.583 37.3009 29.1753 37.3792 29.1753 37.3792L29.0691 32.019L29.5506 31.9479L30.2233 31.8483L31.151 33.9953L32.369 36.8104Z" fill="#D64E27"/>
<path d="M31.151 33.9953L30.3579 34.0308L29.5506 31.9479L30.2233 31.8483L31.151 33.9953Z" fill="#C23827"/>
<path d="M34.2597 31.0379V31.7488L31.9158 31.6208L27.4616 32.2322L27.3271 31.7701L26.9518 30.4194L31.9158 28.4644L34.2597 31.0379Z" fill="#2B91BE"/>
<path d="M35.2794 46.5995C35.2794 46.5995 34.9183 47.3886 33.7569 47.9502C33.6436 46.2867 33.4454 43.5711 33.2117 41.6019C32.9072 39.0284 31.7317 37.5355 31.3776 37.1374C32.0291 36.9953 32.369 36.8104 32.369 36.8104C33.325 37.0877 33.8986 38.4171 34.3589 40.1019C34.8191 41.7938 35.2794 46.5924 35.2794 46.5924V46.5995Z" fill="#C23827"/>
<path d="M38.9547 36.0782C38.9476 36.4976 38.9334 36.8389 38.9193 37.0308C38.9193 37.1303 38.9122 37.1943 38.9122 37.1943C38.0766 37.7702 33.2188 37.0735 33.2188 37.0735C33.2188 37.0735 31.2785 37.9408 29.7914 37.6848C29.1399 37.5711 28.8637 37.3365 28.7504 37.1019C28.6725 36.9384 28.6796 36.7749 28.7009 36.6611C28.7079 36.6114 28.7221 36.5758 28.7363 36.5474C28.7504 36.519 28.7575 36.5047 28.7575 36.5047C28.0352 36.2844 28.0989 35.7441 28.1697 35.5024C28.1839 35.4526 28.1981 35.41 28.2052 35.3957C28.2052 35.3886 28.2122 35.3815 28.2122 35.3815C28.2122 35.3815 27.5253 35.2962 27.4687 34.7062C27.4262 34.2796 27.9927 34.1303 28.2972 34.0806C28.4034 34.0593 28.4813 34.0593 28.4813 34.0593C28.4813 34.0593 28.4176 34.0237 28.3255 33.9668C28.0494 33.7962 27.5041 33.4123 27.7307 33.1066C28.0281 32.7085 30.6128 32.7583 30.6128 32.7583C30.6128 32.7583 32.2557 33.0142 33.6932 32.9005C35.1307 32.7867 38.3599 32.609 38.3599 32.609C38.9547 32.2465 38.9972 34.5995 38.9618 36.0711L38.9547 36.0782Z" fill="#FFC40C"/>
<path d="M30.3579 34.0308C30.3579 34.0308 30.3366 34.0877 30.3083 34.0948C29.9826 34.1303 29.671 34.1445 29.3877 34.1445C28.9416 34.1445 28.5663 34.109 28.2972 34.0735C28.4034 34.0521 28.4813 34.0521 28.4813 34.0521C28.4813 34.0521 28.4176 34.0166 28.3255 33.9597C28.7575 34.0095 29.4869 34.0664 30.2942 33.9739C30.3225 33.9739 30.3508 33.9953 30.3579 34.0237V34.0308Z" fill="#5C2F2C"/>
<path d="M29.9755 35.4455C29.9755 35.4455 29.9542 35.5095 29.9259 35.5095C29.5719 35.545 29.2603 35.5592 28.9841 35.5592C28.6442 35.5592 28.368 35.5379 28.1627 35.5024C28.1768 35.4526 28.191 35.41 28.1981 35.3957C28.5238 35.4455 29.0974 35.481 29.9118 35.3957C29.9401 35.3957 29.9684 35.4171 29.9755 35.4455Z" fill="#5C2F2C"/>
<path d="M30.8394 36.6611C30.8394 36.6611 30.8182 36.718 30.7899 36.7251C30.5208 36.7464 30.2658 36.7536 30.0322 36.7536C29.4869 36.7536 29.0337 36.7109 28.7079 36.6611C28.715 36.6114 28.7292 36.5758 28.7434 36.5474C29.2036 36.6114 29.9118 36.6682 30.7828 36.6114C30.8111 36.6114 30.8394 36.6327 30.8394 36.6682V36.6611Z" fill="#5C2F2C"/>
<path d="M38.9547 36.0782C38.9476 36.4976 38.9335 36.8389 38.9193 37.0308C38.9193 37.1303 38.9122 37.1943 38.9122 37.1943C38.0766 37.7701 33.2188 37.0735 33.2188 37.0735C33.2188 37.0735 31.2785 37.9408 29.7914 37.6848C29.1399 37.5711 28.8637 37.3365 28.7504 37.1019C29.5081 37.1517 30.7686 37.1517 31.76 36.7536C33.2896 36.128 33.8561 35.8934 33.8561 35.8934C33.8561 35.8934 36.9577 36.6043 38.9618 36.0853L38.9547 36.0782Z" fill="#E6AB23"/>
<path d="M34.2597 31.5427V31.7488L31.9087 31.6137L27.4545 32.2251L27.3271 31.763C28.4105 31.4645 31.4272 30.6682 31.4272 30.6682L34.2597 31.5284V31.5427Z" fill="#0D64A5"/>
<path d="M27.3341 31.7915L26.3994 31.8839L26.2932 31.5355L26.187 31.173C26.187 31.173 27.0792 30.9313 27.0792 30.8815L27.1925 31.2725L27.3341 31.7915Z" fill="#3D66B0"/>
<path d="M27.3341 31.7915L26.3994 31.8839L26.2932 31.5355L27.1925 31.2725L27.3341 31.7915Z" fill="#065C93"/>
<path d="M28.9628 32.019C28.6371 32.4668 27.5607 33.6967 26.9305 34.2583C26.7747 34.3934 26.6472 34.4858 26.5623 34.5213C26.1303 34.6919 26.1303 34.2867 26.5623 33.8246C26.7464 33.6185 26.9801 33.2915 27.1783 32.9787C27.4403 32.5735 27.6528 32.1967 27.6528 32.1967L28.9487 32.019H28.9628Z" fill="#1F4FA1"/>
<path d="M28.9628 32.019C28.6371 32.4668 27.5607 33.6967 26.9305 34.2583C27.1146 33.7535 27.1783 33.3128 27.1854 32.9787C27.4474 32.5735 27.6599 32.1967 27.6599 32.1967L28.9558 32.019H28.9628Z" fill="#1D4380"/>
<path d="M29.3311 38.7228C28.8779 38.6374 28.1981 39.8104 28.7079 42.6469C29.2178 45.4834 29.9472 44.6374 29.9826 44.2962C30.018 43.9479 29.7985 42.9597 29.7772 41.7085C29.756 40.4573 29.9472 38.8436 29.3382 38.7299L29.3311 38.7228Z" fill="#EB5729"/>
</g>
<defs>
<linearGradient id="paint0_linear_8_1710" x1="10.0768" y1="5.09005" x2="8.80647" y2="82.9975" gradientUnits="userSpaceOnUse">
<stop stop-color="#B2DBDB"/>
<stop offset="1" stop-color="#B2DBDB"/>
</linearGradient>
<clipPath id="clip0_8_1710">
<rect width="65" height="90" fill="white"/>
</clipPath>
</defs>
</svg>
